<mxfile host="65bd71144e">
    <diagram id="0KDArgii2_jjGqpCG1OO" name="Page-1">
        <mxGraphModel dx="1155" dy="689" grid="0" gridSize="10" guides="1" tooltips="1" connect="1" arrows="1" fold="1" page="0" pageScale="1" pageWidth="827" pageHeight="1169" math="0" shadow="0">
            <root>
                <mxCell id="0"/>
                <mxCell id="1" parent="0"/>
                <mxCell id="2" value="1+2" style="text;html=1;align=center;verticalAlign=middle;resizable=0;points=[];autosize=1;strokeColor=none;fillColor=none;" vertex="1" parent="1">
                    <mxGeometry x="92" y="193" width="38" height="26" as="geometry"/>
                </mxCell>
                <mxCell id="3" value="&lt;div style=&quot;color: rgb(212, 212, 212); background-color: rgb(30, 30, 30); font-family: Consolas, &amp;quot;Courier New&amp;quot;, monospace; font-size: 14px; line-height: 19px;&quot;&gt;&lt;div&gt;&lt;span style=&quot;color: #569cd6;&quot;&gt;const&lt;/span&gt; &lt;span style=&quot;color: #4fc1ff;&quot;&gt;token&lt;/span&gt; = &lt;span style=&quot;color: #9cdcfe;&quot;&gt;it&lt;/span&gt;.&lt;span style=&quot;color: #dcdcaa;&quot;&gt;next&lt;/span&gt;();&lt;/div&gt;&lt;div&gt;&lt;span style=&quot;color: #569cd6;&quot;&gt;const&lt;/span&gt; &lt;span style=&quot;color: #4fc1ff;&quot;&gt;lookahead&lt;/span&gt; = &lt;span style=&quot;color: #9cdcfe;&quot;&gt;it&lt;/span&gt;.&lt;span style=&quot;color: #dcdcaa;&quot;&gt;peek&lt;/span&gt;();&lt;/div&gt;&lt;div&gt;&lt;span style=&quot;color: #9cdcfe;&quot;&gt;it&lt;/span&gt;.&lt;span style=&quot;color: #dcdcaa;&quot;&gt;putBack&lt;/span&gt;();&lt;/div&gt;&lt;/div&gt;" style="text;html=1;align=left;verticalAlign=middle;resizable=0;points=[];autosize=1;strokeColor=none;fillColor=none;" vertex="1" parent="1">
                    <mxGeometry x="53" y="239" width="234" height="69" as="geometry"/>
                </mxCell>
                <mxCell id="4" style="edgeStyle=none;html=1;" edge="1" parent="1" source="5" target="7">
                    <mxGeometry relative="1" as="geometry"/>
                </mxCell>
                <mxCell id="5" value="1" style="rounded=0;whiteSpace=wrap;html=1;" vertex="1" parent="1">
                    <mxGeometry x="669" y="264" width="69" height="39" as="geometry"/>
                </mxCell>
                <mxCell id="6" style="edgeStyle=none;html=1;entryX=0;entryY=0.5;entryDx=0;entryDy=0;" edge="1" parent="1" source="7" target="8">
                    <mxGeometry relative="1" as="geometry"/>
                </mxCell>
                <mxCell id="7" value="+" style="rounded=0;whiteSpace=wrap;html=1;" vertex="1" parent="1">
                    <mxGeometry x="786" y="264" width="69" height="39" as="geometry"/>
                </mxCell>
                <mxCell id="8" value="2" style="rounded=0;whiteSpace=wrap;html=1;" vertex="1" parent="1">
                    <mxGeometry x="900" y="264" width="69" height="39" as="geometry"/>
                </mxCell>
                <mxCell id="9" value="&lt;div style=&quot;color: rgb(212, 212, 212); background-color: rgb(30, 30, 30); font-family: Consolas, &amp;quot;Courier New&amp;quot;, monospace; font-size: 14px; line-height: 19px;&quot;&gt;&lt;span style=&quot;color: #9cdcfe;&quot;&gt;stackPutBacks&lt;/span&gt;&lt;/div&gt;" style="text;html=1;align=center;verticalAlign=middle;resizable=0;points=[];autosize=1;strokeColor=none;fillColor=none;" vertex="1" parent="1">
                    <mxGeometry x="540" y="375" width="118" height="31" as="geometry"/>
                </mxCell>
                <mxCell id="10" value="" style="endArrow=classic;html=1;dashed=1;" edge="1" parent="1">
                    <mxGeometry width="50" height="50" relative="1" as="geometry">
                        <mxPoint x="703.1600000000001" y="219" as="sourcePoint"/>
                        <mxPoint x="703.1600000000001" y="257" as="targetPoint"/>
                    </mxGeometry>
                </mxCell>
                <mxCell id="11" value="&lt;div style=&quot;color: rgb(212, 212, 212); background-color: rgb(30, 30, 30); font-family: Consolas, &amp;quot;Courier New&amp;quot;, monospace; font-size: 14px; line-height: 19px;&quot;&gt;&lt;span style=&quot;color: #9cdcfe;&quot;&gt;queueCache&lt;/span&gt;&lt;/div&gt;" style="text;html=1;align=center;verticalAlign=middle;resizable=0;points=[];autosize=1;strokeColor=none;fillColor=none;" vertex="1" parent="1">
                    <mxGeometry x="551.5" y="474" width="95" height="31" as="geometry"/>
                </mxCell>
                <mxCell id="12" value="next()" style="text;html=1;align=center;verticalAlign=middle;resizable=0;points=[];autosize=1;strokeColor=#6F0000;fillColor=#a20025;fontColor=#ffffff;" vertex="1" parent="1">
                    <mxGeometry x="494" y="273" width="49" height="26" as="geometry"/>
                </mxCell>
                <mxCell id="13" value="" style="html=1;dashed=0;whitespace=wrap;shape=partialRectangle;right=0;" vertex="1" parent="1">
                    <mxGeometry x="671" y="364" width="208" height="53" as="geometry"/>
                </mxCell>
                <mxCell id="14" value="" style="html=1;dashed=0;whitespace=wrap;shape=partialRectangle;right=0;left=0;" vertex="1" parent="1">
                    <mxGeometry x="669" y="456" width="216" height="60" as="geometry"/>
                </mxCell>
                <mxCell id="15" value="" style="endArrow=classic;html=1;" edge="1" parent="1">
                    <mxGeometry width="50" height="50" relative="1" as="geometry">
                        <mxPoint x="820.0699999999997" y="223" as="sourcePoint"/>
                        <mxPoint x="820.0699999999997" y="261" as="targetPoint"/>
                    </mxGeometry>
                </mxCell>
                <mxCell id="16" value="1" style="rounded=0;whiteSpace=wrap;html=1;" vertex="1" parent="1">
                    <mxGeometry x="671" y="470" width="69" height="39" as="geometry"/>
                </mxCell>
                <mxCell id="17" style="edgeStyle=none;html=1;" edge="1" source="18" target="20" parent="1">
                    <mxGeometry relative="1" as="geometry"/>
                </mxCell>
                <mxCell id="18" value="1" style="rounded=0;whiteSpace=wrap;html=1;" vertex="1" parent="1">
                    <mxGeometry x="669" y="616" width="69" height="39" as="geometry"/>
                </mxCell>
                <mxCell id="19" style="edgeStyle=none;html=1;entryX=0;entryY=0.5;entryDx=0;entryDy=0;" edge="1" source="20" target="21" parent="1">
                    <mxGeometry relative="1" as="geometry"/>
                </mxCell>
                <mxCell id="20" value="+" style="rounded=0;whiteSpace=wrap;html=1;" vertex="1" parent="1">
                    <mxGeometry x="786" y="616" width="69" height="39" as="geometry"/>
                </mxCell>
                <mxCell id="21" value="2" style="rounded=0;whiteSpace=wrap;html=1;" vertex="1" parent="1">
                    <mxGeometry x="900" y="616" width="69" height="39" as="geometry"/>
                </mxCell>
                <mxCell id="22" value="&lt;div style=&quot;color: rgb(212, 212, 212); background-color: rgb(30, 30, 30); font-family: Consolas, &amp;quot;Courier New&amp;quot;, monospace; font-size: 14px; line-height: 19px;&quot;&gt;&lt;span style=&quot;color: #9cdcfe;&quot;&gt;stackPutBacks&lt;/span&gt;&lt;/div&gt;" style="text;html=1;align=center;verticalAlign=middle;resizable=0;points=[];autosize=1;strokeColor=none;fillColor=none;" vertex="1" parent="1">
                    <mxGeometry x="540" y="727" width="118" height="31" as="geometry"/>
                </mxCell>
                <mxCell id="23" value="" style="endArrow=classic;html=1;dashed=1;" edge="1" parent="1">
                    <mxGeometry width="50" height="50" relative="1" as="geometry">
                        <mxPoint x="820.2599999999999" y="578" as="sourcePoint"/>
                        <mxPoint x="820.2599999999999" y="616" as="targetPoint"/>
                    </mxGeometry>
                </mxCell>
                <mxCell id="24" value="&lt;div style=&quot;color: rgb(212, 212, 212); background-color: rgb(30, 30, 30); font-family: Consolas, &amp;quot;Courier New&amp;quot;, monospace; font-size: 14px; line-height: 19px;&quot;&gt;&lt;span style=&quot;color: #9cdcfe;&quot;&gt;queueCache&lt;/span&gt;&lt;/div&gt;" style="text;html=1;align=center;verticalAlign=middle;resizable=0;points=[];autosize=1;strokeColor=none;fillColor=none;" vertex="1" parent="1">
                    <mxGeometry x="551.5" y="826" width="95" height="31" as="geometry"/>
                </mxCell>
                <mxCell id="25" value="next()" style="text;html=1;align=center;verticalAlign=middle;resizable=0;points=[];autosize=1;strokeColor=#6F0000;fillColor=#a20025;fontColor=#ffffff;" vertex="1" parent="1">
                    <mxGeometry x="494" y="625" width="49" height="26" as="geometry"/>
                </mxCell>
                <mxCell id="26" value="" style="html=1;dashed=0;whitespace=wrap;shape=partialRectangle;right=0;" vertex="1" parent="1">
                    <mxGeometry x="671" y="716" width="208" height="53" as="geometry"/>
                </mxCell>
                <mxCell id="27" value="" style="html=1;dashed=0;whitespace=wrap;shape=partialRectangle;right=0;left=0;" vertex="1" parent="1">
                    <mxGeometry x="669" y="808" width="216" height="60" as="geometry"/>
                </mxCell>
                <mxCell id="28" value="" style="endArrow=classic;html=1;" edge="1" parent="1">
                    <mxGeometry width="50" height="50" relative="1" as="geometry">
                        <mxPoint x="934.2599999999998" y="578" as="sourcePoint"/>
                        <mxPoint x="934.2599999999998" y="616" as="targetPoint"/>
                    </mxGeometry>
                </mxCell>
                <mxCell id="29" value="1" style="rounded=0;whiteSpace=wrap;html=1;" vertex="1" parent="1">
                    <mxGeometry x="671" y="822" width="69" height="39" as="geometry"/>
                </mxCell>
                <mxCell id="30" value="+" style="rounded=0;whiteSpace=wrap;html=1;" vertex="1" parent="1">
                    <mxGeometry x="761" y="822" width="69" height="39" as="geometry"/>
                </mxCell>
                <mxCell id="31" style="edgeStyle=none;html=1;" edge="1" source="32" target="34" parent="1">
                    <mxGeometry relative="1" as="geometry"/>
                </mxCell>
                <mxCell id="32" value="1" style="rounded=0;whiteSpace=wrap;html=1;" vertex="1" parent="1">
                    <mxGeometry x="669" y="951" width="69" height="39" as="geometry"/>
                </mxCell>
                <mxCell id="33" style="edgeStyle=none;html=1;entryX=0;entryY=0.5;entryDx=0;entryDy=0;" edge="1" source="34" target="35" parent="1">
                    <mxGeometry relative="1" as="geometry"/>
                </mxCell>
                <mxCell id="34" value="+" style="rounded=0;whiteSpace=wrap;html=1;" vertex="1" parent="1">
                    <mxGeometry x="786" y="951" width="69" height="39" as="geometry"/>
                </mxCell>
                <mxCell id="35" value="2" style="rounded=0;whiteSpace=wrap;html=1;" vertex="1" parent="1">
                    <mxGeometry x="900" y="951" width="69" height="39" as="geometry"/>
                </mxCell>
                <mxCell id="36" value="&lt;div style=&quot;color: rgb(212, 212, 212); background-color: rgb(30, 30, 30); font-family: Consolas, &amp;quot;Courier New&amp;quot;, monospace; font-size: 14px; line-height: 19px;&quot;&gt;&lt;span style=&quot;color: #9cdcfe;&quot;&gt;stackPutBacks&lt;/span&gt;&lt;/div&gt;" style="text;html=1;align=center;verticalAlign=middle;resizable=0;points=[];autosize=1;strokeColor=none;fillColor=none;" vertex="1" parent="1">
                    <mxGeometry x="540" y="1062" width="118" height="31" as="geometry"/>
                </mxCell>
                <mxCell id="37" value="" style="endArrow=classic;html=1;dashed=1;" edge="1" parent="1">
                    <mxGeometry width="50" height="50" relative="1" as="geometry">
                        <mxPoint x="820.2599999999998" y="912.9999999999998" as="sourcePoint"/>
                        <mxPoint x="820.2599999999998" y="951" as="targetPoint"/>
                    </mxGeometry>
                </mxCell>
                <mxCell id="38" value="&lt;div style=&quot;color: rgb(212, 212, 212); background-color: rgb(30, 30, 30); font-family: Consolas, &amp;quot;Courier New&amp;quot;, monospace; font-size: 14px; line-height: 19px;&quot;&gt;&lt;span style=&quot;color: #9cdcfe;&quot;&gt;queueCache&lt;/span&gt;&lt;/div&gt;" style="text;html=1;align=center;verticalAlign=middle;resizable=0;points=[];autosize=1;strokeColor=none;fillColor=none;" vertex="1" parent="1">
                    <mxGeometry x="551.5" y="1161" width="95" height="31" as="geometry"/>
                </mxCell>
                <mxCell id="39" value="putBack" style="text;html=1;align=center;verticalAlign=middle;resizable=0;points=[];autosize=1;strokeColor=#6F0000;fillColor=#a20025;fontColor=#ffffff;" vertex="1" parent="1">
                    <mxGeometry x="488" y="960" width="61" height="26" as="geometry"/>
                </mxCell>
                <mxCell id="40" value="" style="html=1;dashed=0;whitespace=wrap;shape=partialRectangle;right=0;" vertex="1" parent="1">
                    <mxGeometry x="671" y="1051" width="208" height="53" as="geometry"/>
                </mxCell>
                <mxCell id="41" value="" style="html=1;dashed=0;whitespace=wrap;shape=partialRectangle;right=0;left=0;" vertex="1" parent="1">
                    <mxGeometry x="669" y="1143" width="216" height="60" as="geometry"/>
                </mxCell>
                <mxCell id="42" value="" style="endArrow=classic;html=1;" edge="1" parent="1">
                    <mxGeometry width="50" height="50" relative="1" as="geometry">
                        <mxPoint x="934.2599999999998" y="912.9999999999998" as="sourcePoint"/>
                        <mxPoint x="934.2599999999998" y="951" as="targetPoint"/>
                    </mxGeometry>
                </mxCell>
                <mxCell id="43" value="1" style="rounded=0;whiteSpace=wrap;html=1;" vertex="1" parent="1">
                    <mxGeometry x="671" y="1157" width="69" height="39" as="geometry"/>
                </mxCell>
                <mxCell id="46" style="edgeStyle=orthogonalEdgeStyle;html=1;entryX=1;entryY=0.5;entryDx=0;entryDy=0;dashed=1;" edge="1" parent="1" source="44" target="45">
                    <mxGeometry relative="1" as="geometry">
                        <Array as="points">
                            <mxPoint x="905" y="1177"/>
                            <mxPoint x="905" y="1077"/>
                        </Array>
                    </mxGeometry>
                </mxCell>
                <mxCell id="44" value="+" style="rounded=0;whiteSpace=wrap;html=1;dashed=1;" vertex="1" parent="1">
                    <mxGeometry x="761" y="1157" width="69" height="39" as="geometry"/>
                </mxCell>
                <mxCell id="45" value="+" style="rounded=0;whiteSpace=wrap;html=1;" vertex="1" parent="1">
                    <mxGeometry x="684" y="1058" width="69" height="39" as="geometry"/>
                </mxCell>
                <mxCell id="47" value="&lt;div style=&quot;color: rgb(212, 212, 212); background-color: rgb(30, 30, 30); font-family: Consolas, &amp;quot;Courier New&amp;quot;, monospace; font-size: 14px; line-height: 19px;&quot;&gt;&lt;div&gt;&lt;span style=&quot;color: #569cd6;&quot;&gt;static&lt;/span&gt; &lt;span style=&quot;color: #dcdcaa;&quot;&gt;parse&lt;/span&gt;(&lt;span style=&quot;color: #9cdcfe;&quot;&gt;it&lt;/span&gt;) {&lt;/div&gt;&lt;div&gt;&amp;nbsp; &amp;nbsp; &lt;span style=&quot;color: #c586c0;&quot;&gt;return&lt;/span&gt; &lt;span style=&quot;color: #4ec9b0;&quot;&gt;Expr&lt;/span&gt;.&lt;span style=&quot;color: #dcdcaa;&quot;&gt;E&lt;/span&gt;(&lt;span style=&quot;color: #9cdcfe;&quot;&gt;it&lt;/span&gt;, &lt;span style=&quot;color: #b5cea8;&quot;&gt;0&lt;/span&gt;);&lt;/div&gt;&lt;div&gt;&amp;nbsp; }&lt;/div&gt;&lt;/div&gt;" style="text;html=1;align=left;verticalAlign=middle;resizable=0;points=[];autosize=1;strokeColor=none;fillColor=none;" vertex="1" parent="1">
                    <mxGeometry x="73" y="1438" width="211" height="69" as="geometry"/>
                </mxCell>
                <mxCell id="49" value="k=0" style="text;html=1;align=center;verticalAlign=middle;resizable=0;points=[];autosize=1;strokeColor=none;fillColor=none;" vertex="1" parent="1">
                    <mxGeometry x="217" y="1598" width="38" height="26" as="geometry"/>
                </mxCell>
                <mxCell id="50" style="edgeStyle=none;html=1;" edge="1" source="51" target="53" parent="1">
                    <mxGeometry relative="1" as="geometry"/>
                </mxCell>
                <mxCell id="51" value="1" style="rounded=0;whiteSpace=wrap;html=1;" vertex="1" parent="1">
                    <mxGeometry x="659" y="1292" width="69" height="39" as="geometry"/>
                </mxCell>
                <mxCell id="52" style="edgeStyle=none;html=1;entryX=0;entryY=0.5;entryDx=0;entryDy=0;" edge="1" source="53" target="54" parent="1">
                    <mxGeometry relative="1" as="geometry"/>
                </mxCell>
                <mxCell id="53" value="+" style="rounded=0;whiteSpace=wrap;html=1;" vertex="1" parent="1">
                    <mxGeometry x="776" y="1292" width="69" height="39" as="geometry"/>
                </mxCell>
                <mxCell id="54" value="2" style="rounded=0;whiteSpace=wrap;html=1;" vertex="1" parent="1">
                    <mxGeometry x="890" y="1292" width="69" height="39" as="geometry"/>
                </mxCell>
                <mxCell id="55" value="&lt;div style=&quot;color: rgb(212, 212, 212); background-color: rgb(30, 30, 30); font-family: Consolas, &amp;quot;Courier New&amp;quot;, monospace; font-size: 14px; line-height: 19px;&quot;&gt;&lt;span style=&quot;color: #9cdcfe;&quot;&gt;stackPutBacks&lt;/span&gt;&lt;/div&gt;" style="text;html=1;align=center;verticalAlign=middle;resizable=0;points=[];autosize=1;strokeColor=none;fillColor=none;" vertex="1" parent="1">
                    <mxGeometry x="530" y="1403" width="118" height="31" as="geometry"/>
                </mxCell>
                <mxCell id="56" value="" style="endArrow=classic;html=1;dashed=1;" edge="1" parent="1">
                    <mxGeometry width="50" height="50" relative="1" as="geometry">
                        <mxPoint x="810.2599999999998" y="1253.9999999999998" as="sourcePoint"/>
                        <mxPoint x="810.2599999999998" y="1292" as="targetPoint"/>
                    </mxGeometry>
                </mxCell>
                <mxCell id="57" value="&lt;div style=&quot;color: rgb(212, 212, 212); background-color: rgb(30, 30, 30); font-family: Consolas, &amp;quot;Courier New&amp;quot;, monospace; font-size: 14px; line-height: 19px;&quot;&gt;&lt;span style=&quot;color: #9cdcfe;&quot;&gt;queueCache&lt;/span&gt;&lt;/div&gt;" style="text;html=1;align=center;verticalAlign=middle;resizable=0;points=[];autosize=1;strokeColor=none;fillColor=none;" vertex="1" parent="1">
                    <mxGeometry x="541.5" y="1502" width="95" height="31" as="geometry"/>
                </mxCell>
                <mxCell id="58" value="putBack" style="text;html=1;align=center;verticalAlign=middle;resizable=0;points=[];autosize=1;strokeColor=#6F0000;fillColor=#a20025;fontColor=#ffffff;" vertex="1" parent="1">
                    <mxGeometry x="478" y="1301" width="61" height="26" as="geometry"/>
                </mxCell>
                <mxCell id="59" value="" style="html=1;dashed=0;whitespace=wrap;shape=partialRectangle;right=0;" vertex="1" parent="1">
                    <mxGeometry x="661" y="1392" width="208" height="53" as="geometry"/>
                </mxCell>
                <mxCell id="60" value="" style="html=1;dashed=0;whitespace=wrap;shape=partialRectangle;right=0;left=0;" vertex="1" parent="1">
                    <mxGeometry x="659" y="1484" width="216" height="60" as="geometry"/>
                </mxCell>
                <mxCell id="61" value="" style="endArrow=classic;html=1;" edge="1" parent="1">
                    <mxGeometry width="50" height="50" relative="1" as="geometry">
                        <mxPoint x="924.2599999999998" y="1253.9999999999998" as="sourcePoint"/>
                        <mxPoint x="924.2599999999998" y="1292" as="targetPoint"/>
                    </mxGeometry>
                </mxCell>
                <mxCell id="62" value="1" style="rounded=0;whiteSpace=wrap;html=1;dashed=1;" vertex="1" parent="1">
                    <mxGeometry x="661" y="1498" width="69" height="39" as="geometry"/>
                </mxCell>
                <mxCell id="63" style="edgeStyle=orthogonalEdgeStyle;html=1;dashed=1;exitX=1;exitY=0.5;exitDx=0;exitDy=0;" edge="1" source="62" target="66" parent="1">
                    <mxGeometry relative="1" as="geometry">
                        <mxPoint x="820" y="1517.5" as="sourcePoint"/>
                        <mxPoint x="875" y="1416" as="targetPoint"/>
                        <Array as="points">
                            <mxPoint x="895" y="1518"/>
                            <mxPoint x="895" y="1419"/>
                        </Array>
                    </mxGeometry>
                </mxCell>
                <mxCell id="65" value="+" style="rounded=0;whiteSpace=wrap;html=1;" vertex="1" parent="1">
                    <mxGeometry x="674" y="1399" width="69" height="39" as="geometry"/>
                </mxCell>
                <mxCell id="66" value="1" style="rounded=0;whiteSpace=wrap;html=1;" vertex="1" parent="1">
                    <mxGeometry x="763" y="1399" width="69" height="39" as="geometry"/>
                </mxCell>
                <mxCell id="69" style="html=1;dashed=1;" edge="1" parent="1" source="67" target="68">
                    <mxGeometry relative="1" as="geometry"/>
                </mxCell>
                <mxCell id="88" style="edgeStyle=orthogonalEdgeStyle;html=1;dashed=1;" edge="1" parent="1" source="67" target="87">
                    <mxGeometry relative="1" as="geometry"/>
                </mxCell>
                <mxCell id="108" style="edgeStyle=orthogonalEdgeStyle;html=1;entryX=0.002;entryY=0.849;entryDx=0;entryDy=0;entryPerimeter=0;dashed=1;" edge="1" parent="1" source="67" target="87">
                    <mxGeometry relative="1" as="geometry">
                        <Array as="points">
                            <mxPoint x="232" y="2516"/>
                        </Array>
                    </mxGeometry>
                </mxCell>
                <mxCell id="67" value="" style="shape=image;verticalLabelPosition=bottom;labelBackgroundColor=default;verticalAlign=top;aspect=fixed;imageAspect=0;image=data:image/png,iVBORw0KGgoAAAANSUhEUgAAAZAAAAJRCAYAAABr4+FAAAAgAElEQVR4nOzdfXxU5b3v/Y/WFiSBUCJ0iPKUhCiPaYCABFuTuCU1GhU4cdeUHu5tEzexUDxaw03TY5KeptyictSkwm1S983ZNOxtDviADgWOSbQShAgYFFDIA4jCFAySkCD08f5jHjIzmUlmVibJDHzfr1der8ysNWtdM4H1m+t3Xev6XTN27Nh/ICIi4qdrB7oBIiISmhRARETEEAUQERExRAFEREQMUQARERFDrgv4EROiyUg39bibxVxL3QHnZyJIzB9L68sfcfS09ZnwtGmkRH7G1opWr8cJT5tGIkep3n65y3HaUpKY1LLPaVsnU1YSiRN6auUFPnVqj7fzp8zqoK64CYvPbXQy2kTKQ0M40s3rRUSCkdcAYsqaxrDq7i+eXrU2UV1qod3jxkHELZtJRJfzTSH8g33UOc4XwaRZQ4EpZOS77tv+geeg0OU4FfsYtiyOuIOe30fXIObMGoh60r79I6qZRsoyk/f3fPAs7Q/NJCPyULfBUEQklFzjfh+IKSuJMUdqOTIqmqiDTbSlWB97v9C6MdIDGW0iZRHUlX5F1LKZ3HhsH0ciZ5I4wa0HMNpEykMj+eLljziKiZSHogl3HPECn37Qwc2zuj+3/bx+90B8fF/e36e9Z3QUFs3kZvcI6qxZgUZEgl+XAAKuF9fuvu17lBBNxryLPfdAdrlfWD/iqMn22l1DSJnUwtbq6zvTOwnRZKSHdUkpOdJDB79tDSjOvZ9u2mIPlD31QFpf/oyIh1xTa6Ys76kxEqLJmNTiFAAiSMyP5KS3FFWPKSzr53Uz3fXqRET6X49jIO1nfAwebt/QU/Kju98/PYmMdLB8bMHEUEwPJXEzFuqKvyJq2Ug+3dwEp1upftlESn4SiVioK/7I6ziBKSWa9g+aYFZ0l3N3Pra4jFWEjxoEeHt/rdQVf2R9X61nOeIUtCxHLCTO+zbh2z0EpkkmLEeaOp8YfYnWZhOJ+V2Dn4hIKOsSQOzfzKtbOlNYifiQwjrQxNYDX7j1Ltx7G1683mQ7r/Xibin9CLAPUA+l/YMmLLOiScw3dTNucYHWM/jcA7EcsZCYPpOMWT28L6xpKJfXH/iCT+fFETXa4hoQRpuYNKLJtX2nL3O0opa2rCQmTR/E0dN+9OYAuMzR0lqO+vkqEZG+5jGFBUYH0W3pFrf8vqXZgmlC1/ED5/GIzpRQ5zG6ps86t1nMtdRZOsdBHI8XQZ0PAcSX99Ft4OtybN+CpW9jLz0N8IuIDDyvAcQY94to5+OTk5zHHJzGBUa7DYa7zOCKIDF/CiY8XFBtA+9Hjo1kkn2KrPuxurBQZ4bEXg2GdzJlJZHIIbZWXCLONvjvbbzI85RkH3toIiJBqE8CSJceiKO3YB0sprtBaGejBxF++jLtjkDS9b4Ml3ssRvdjD8TG3qPofrKB5+O59Ly6DL6LiAS3wN9IiPO3dad7Pk5bqDZHk5GfZO1lVLhebO3jHfbXn5yU5DSNt5W64tqAt9OXmwB7en3iBGhvvUD4rG7u80i40TqL6oDbaznEVnvQOdBE3aQkUtK8pO00C0tEgkwAA0hnusk+w8ohPYmUUYf4YqItdRQRzaQEizXI2GZvtX+wj63FThfOA7VsHW0i5aEkbrY95dO4QER3s7Bcewrt2z9i65loMvKn+TFDqvN9urfZlJVku+nRdbaXaZKJ9mP7HBf/Luks59TbhJkknlFKS0SCX4BTWO5sPZBz1kF05wBgTf30vFRIJ9uF2zFG4mF8xD2F5SfXAW7XINA5TdniQ4/FuW2HIN3pPhJP4zTO4z69fA8iIv2ljwOIiIhcqbQar4iIGKIAIiIihiiAiIiIIQogIiJiiAKIiIgYogAiIiKGKIBILw0ibtk04kYPdDtEpL95DSCmrL6+KESQmO/fOcLTppGSNqjvmhTiwtOmkZHVXanDrkxZSSQm9FGDQoA+MxHjvNYDOdLSwTB8qdznxONquJ7u3B5E3DL3Guid5/e20GL79s9ozw++pT6c1/Gy87mSo8+fWQ8Som3rermtxdVDxUNLdROTHppGnKUfi10lRJORjoc7/fHtfV+Nn5lIEOoSQCwVtZCVRMoEYJZ1japqvy7WPf9HDk+Lsy4O6E+pXABaqXu5iZSHojEdMLYAovc2Oa3qa0Sv6pgbuPi5iCAx3bpUjN/HOG2h2jyEjEUmToXU8in6zEQGWuBK2vosgkmz4NOXXf/juXyLn+BUKdD9wnzawpHmJCalfYHF6MXeA3vvxuuKukEsPG0spuZDbHUJ9E6LWwKJ+fbfPKw/duALPp03s3OBy6uAPjOR3gtcSVtfJURicqsxDraVcbd3n8Ky664muXGt1BXvI27ZTDKWhdLS6YOImjgUyy73oGdbAr+HdIzVZU4du8DNkyLgQGgFT2P0mYkEgscUlgUwZYW5PPadyembG24VBiF8VBica+ndxdlykfaIIYRDgC/y1vrjbVlJpOQP8S9FMmGKbSl3WxP9Kknb/WfWvcFERFygtZf5vPYzHTDxesJpDZHAqc9MZKB5TWFZKj4ymF/uPjcdHjnUyxY/nP6adkYybDRYfB3E7DLw2lMO3eRfmmygxkBGX0840OvvwH0WlPuKPjORgdYnFQm7095yASJ7eZDR1xNOByf9mQFz2kJ1cU+XG6fqf8UhksI6/XVg2mkaQnjrxf55z5aLtDOk6/P9df5Q/MxEglC/30jYfqYDRlzvNgXTaXvLBcInftvrdqCP/uPagse5Q2wNmfEPgEu0tg4lwuRl8+mvacfEmB7uW7CmFgN0Ye1JlzYNIm6eifZjX/XT5x6Cn5lIEOqDHohbbto91XCgBUv6FK+zV9q3H+XTiTM7y9B6SA25l4gNhPC0OG48tq+zRnm/6uEz65ZtMHeeifADngJfK3VmCxmOMsOeqkB6G1TuK/bp2E6lj5sP+fnZX22fmUjwGZCKhOFp00iZeNbYTCefZshcbazTT/Fr4N5JQjQZ8y4anHk2iLhlcbA51G6qG8jPTOTKMCBrYbVvP8qnRJPo97IkESQ+FE27WcHDlfUbsyk9Gm9ZGa9Gm0hJD+PTzVfbhVCfmUhv9fsgutVljpYeIiI/jriDvn9zDU8bS7jfd8aHLlNWEokTvG11Tw02UT1qGilZEX7NBjOlRNNurg2x3oN3+sxE+s+ApLBERCT0aTl3ERExRAFEREQMUQARERFDFEBERMQQBRARETFkAEvaiohIKOsSQOz1nttbOlwei4iIOPN4H4jzzVg+1/YWEZGrSo9jIIEvaSsiIlcCjymsMUdqqf7Awqcv13JyklJYIiLSldelTExZ0xhWHWorrIqISH/RWlgiImKI7gMRERFDFEBERMQQBRARETFEAURERAxRABEREUMUQERExBAFEBERMUQBREREDFEAERERQxRARETEEAUQERExJLABJCGajGUmwt2eDk+bRkZWRA8vjiAxPxpTQBskIiJ95TpvG/p9Nd7R1xPeepF2lycjSMyf0iWoWMy11B3ohzYlRJMy6gsV1BIR8aBLALHXAznS0sEwp8cBv2CPNpGyCOpKLbQD4dNHEn7uM7cAAmChrrgJi3P7AtSE8LRppMwa2jUgJUSTMamFrdUXaR/l9Lii1dEGe8VG6MeAJiISRLoEEEtFLWQlkTIBmGWylrTti+Dx0Ei+ePkjSJtGxqyhtg1TyMi3/dp8iK0VvhxsEHHLZnIzTVTbgpGvr7nxWBMWhnbdfKCJrUST8ZC175PR2kR1aatjs6Wilq0u72UacRbVThGRq4vXFJad3yVtI6JJyY/ufNx8iOoWp+1OwePoaeD0R2zdPoi4ZXGw2fpceNo0ErkEDPbv3D4KT4sjYlct1QciSJzlwwvOfe09MJ3uZpsXrj2YC3z6cmfwMWUlMallH3XEkWILrP72cMLTppEy8ayXgGoPnp5q3bulDJsPOXpdIiLuvKawqluiiTrYRFtKEon4cQFr7doTCE+z/ZIQTUY61BV/5EhJATD629zIWepsF9HwyKG0H7mMbwHkMkdLaznqY/MA2rd/RF13O9hTVi9fJHH6V9SduZGMLDxfTBMiMbWe5YiPvY/wtGkkjmiiutiWukubRspD0bQ5penCZ80kpfkQW4tbrdvnmQg/4GvvyjhTViQni2ttn401mCQmKD0nIp55TGFZAFNWmMvjXpswhQysF0V34dNHwrGjtgtkBGMmWDjpU/qqjxxoYusBICGScL7qfOxgS5vZJpZZzLU+XtwjmDRrKBbzR47927cf5dOJMxmT0ITFfo7WJqptwar94FnaZw0hHPo8gFgqmpwetXKyGSaNGgRoEoGIdOU1hWWp+CgwgcOum3RIeORQwifMJPFMLUdGjcXU/Fn3PYT+cqCJao8bnHs9g4hblkTKKE8pIU8u0NrDB9t+7KvOYHHaQnWxD4cdbSLloWinKdRDHanE9g9cU2IAzJpJxixrexwptIRoMtJd57y1tyAi4lGPYyB9x2nco6KWrUSQmJ9EChf49OVQyrtf5tSxC9wcORjfvqkPJcIEOFJeg4no6RYZX5y2UF1sjUyex0A+Yut28DoGMtpESrrJZbzFlJXEpAA0TUSuTH16J7opK4mUtEFetg4mIqKDti5jB0O5+aFpxI329SzWHoCnGxj7hy0tdcSXoGdNC5nmdbY1PG0sptYmjgTFOINT7ygh2mWqsoiIu8D3QJxmYVnMtVQfcBpEd+Z846AtdWIx11rHGmxTY3n5M8BEYr5rWsVypJdtdE/VpCeRke7rbCfX8Q/wb5aUpaKWuqwkp5lqFuqK+36AvEenLRxpjibxoSRuBmht4tNmuHGg2yUiQeuasWPH/iNQBzNlJVlnGLlPH+2Sn7dq/2Af1WdutM3MavIw5hJBYn4kJ91vJOyLGxtFRMQvAQ0gIiJy9dBqvCIiYogCiIiIGKIAIiIihiiAiIiIIQogIiJiiAKIiIgYogAiIiKGeA0gpix/lhNxFbHYzLwC68/0u5KNti0oDXv6BWZXvsDsp7veXj/s6V8z6vv+vcZXCWXNFFbXc/d8w4cQEQmoLgHElJVEYgK0t3S4PPZNMqYVZsa1rGFXUTq7itZwJi6PmBkBbPFAWvIYt4w/zieZP2PvE9sdTw97+gXGL4HLX55zeWzX9sTP2JtZyvERd7s8HygJZc08Wpwd+AOLiHQjsCVtZywipmULu7bV2J6owfLHRcybnE3j/vKANXqgDDKNgON/pM3t+bYnfgZPv0D8eGDWC7R/UMrhDe6vPkrr0TZuMMWBX+WvrA7kTECrt4hIMAlgSdtkTN8z0Vi53PXp/fVYMuKJAC7fVUkcv+VEZB5TY6ybLVvTadzvdIwVecQMtz08X8e+5wu4BBBVxPScEZwoqueGgoXWsqvO24HBd1Uyc3aY7VEHjWWZWE4BM0qYN/kcjZGJxAzvoHHrYUZlJDLU7fWBctHif4Dwan4Fj66ai/UjaeD1lDsdgcRUXM/SpGHWB7H5FFbbCso3vEJhzsrAtUFExAOPKawxR2qp/sDCpy/XcnKSjymsqBRGcZjzp6wXcvsYSMyMBjrOd+42dHZeZ4prayOmjBLsC9sOvmsRVKY70l+NJBLnMoYSw9SCNDrK0tlVtAXL8ERutKfHooq4kd/aXpvOvr0Qk1nUWRQ3JpGwP6bzcWMYMRkjOFG0BcvwyQyP8v9Dczfs6RcY8fHPqP/gOMdLfsa5qS8ELlW1I4vnUiZQuHo35902WfLjKUyZwOsNcL62mMKUCdYfBQ8R6QddAoilwrrSbXhkmMvjHplGMLTlJJeiioibbeHjojU0nu+gw32J3cYtHLSnuPbXY8HE9baL+KVty609BgBqOH+0g6GRsa7t22rrVVDOl40Q9h1bgDlVQKMjdQaX6g9zYfgIHNVIztfxha2nc2HvZoyUrBp0wzDav2zu8nzbEz/j+AYYdMMIl8fuLlvOER43F28VUkREQklAS9peaGlgcHwa7P0trcRyw3ALX56C67t9VRhhJuAUtjRVIkOdNze6Pvhyf+ej1o3pHHQ8ckt/dX2xYYNW/pr4WcM48+bPPIxtdGp74pddxkdcbFjLXh5jdqVtnOSpAKa6RET6WcAKSg3+jrVA06DIMGgBosYQdv4cXxDLDZzrkn7pZO+lZBOTkwh71zgG4QffVcnMSN/OH7E4jxjq2FfkOmYSCJef+iV7saaqJq80fuEftPLXxN/wR/Zmrg1Iu0REBlLAbiS89CfX/srg+MnWnsSMeEwtJz0OVEcsXojpvHXcxK7jT7Y0VFQRcY4BcR85zpOMKdOtJxMAl79sI/yG3tV59ZQC663TZ9oYPiUVU8+7iogETEBL2g6NjKX1cCNDM/KY2VhHI4nMzOigscxpZlbMQuYVLLT+7jILqpwv9qYxM8OMKQOgkca9HQz1sQfSWlXHhZzOY1v21nFhdmB6IAPJZaYVcF91M/e5zcay5JdQ91o+S6ttwUmzsESkHwSuIqFjmu1yrwPU1pTUdnZtDM17QhwpKKebCP19fQz/S2MfInJFCNxaWKcKONEYw9TFnXdED76rBFMApskGi8uWczDCZHAWVRwRccMCe4+IiMgACmgKq3XjGhpX5LmmqLYF8gwDbMNaPpn6AvGVM+H4Wz73RIY9/QK3jAfa9lHfzSwuEZFQErgUloiIXFW0nLuIiBiiACIiIoYogIiIiCEKICIiYogCiIiIGKKStn7q75K2puJ6Cl+r0DIlIhJ0VNLWH0Fa0lZEZCB4rAdyclISKbNM3PxQEpNa9vlWDwQcJW0PupS0bcQ0+cqo120taXvIY0nbc1NfIH7WeMYvf4Gbviz1UA/EWtJ2iCmun1orItK3VNI22Evaukkoa+a+WGiunMCGF/vsNCIiPVJJ22AvaeskoayZ+0buZn2KgoeIDDyVtPXDQJa0nWkPHvdn+V0pUkSkL6ikrQ8GvKRtxFwSI+B8bZWCh4gEjYDdB+JS0hYcJW0vE0sY5/A+kuKhpK0jDdXh8/k7S9raUmBldVzoxftxdvmpX7I305qamrzS+CD4oJW/ZvbUQ+zN/Jl/NUFad7N+9W5IymfJI4ZPLyISUCpp64cBLWm7I4vnKhuYkFnP3fN71QQRkYBQSdtQ8uKdrL+xnqWrmpl4ezHP5YdmZUcRuTKopK0fVNJWRKSTStr6QSVtRUQ6qaStP1TSVkTEQSVtRUTEEC3nLiIihiiAiIiIIQogIiJiiAKIiIgYogAiIiKG9LKk7SDilvlTsVBERK4UvStpm3AjN9PEEV8rFoqIyBWjy42ElopayEoiZQIwy0T7B/uo9hIgTJNMWHbV0t7HjRQRkeDT4xiI15K2o01MmmDhpHofIiJXJcMlbU0p0fDBFypwJCJylfKYwrIApqwwl8euIhgz4QJfVHsvEyUiIlc2QyVtw9PGYmr+jLrTfdQqEREJegbuAxlE1MShWI54q/ohIiJXA/8DiKbuiogIBgKIaZKJ9mNfaequiMhVzr8AYpu6e2S7Bs9FRK52KiglIiKGaDFFERExRAFEREQMUQARERFDFEBERMQQBRARETFEAURERAxRABEREUMGJIBELDYzr6ASU9RAnB3IKcG8qYhk9+fnV/BodTOFZU/1X1se2Ulh9U66qwqcXWqmJKd3p8kuNWM2mzGXZvfuQCIiNh4DSMRiM9Pv6nJ59U1UEdMLSojoTauMyF1BVdVa159XF3OH+36pRVQuMFFXVkCNP8efX8GjPVzo+0r5ljpMCyopSjV4gJwSFkY3siU9nfRl5QFtm4hcvbwu596XWjems6tPDryf4gUbedvrDskU5STCnjUUVHnYvCOL53b0RcN6qaqAzJgSzDlFJFf5GfiA5CgTNG1HoUNEAum6eQVmLuxdw8FtNQy+q5KZs62FpIjJY97sPOvvjVvYtdF++ckmpmAhJvsRHNtcn59aYLb91kFjWSaWU1h7JzmJDLW+kI+LltNlUfgZJczLiHE8tLctIHIWkUgda4q6Hi+hrJn7Yq2/n68t5rl8+/t9iiXVDzDB9ui+6mbuA6CNutXxvBXggGMqrmdp0jC3NgBlm6lLzWNRDtSUBfacIiJGXLerKN3x4NK2THZts6awxrV4vnBHLI7ny6J0GgF70IiZUU7j/nIai8ppjCpies4ITngKDqcKOFiELZCM6NqaGSXMyzDRWJZuDTgBlh0fQ8cnmz1+gz+QM4EDWAPJ7S5bVrIhZaU1hbVqJO+k3ElfrWRvDR5neD0l3sM5aqj+5KfkxWeD+hIiEgT8HkRv3egcGMr5shHCvmNwvMRFMqbvxXBh72+NB4+IGeQ7j4GU3ely/DGRYDkVoN5MgEU5gof3AFVzygKRY7oO/vcgdmQYHWcbettEEREX180rKPGcSvLGLcUEcKElEE2JJWw4dPypFxf4bsdAYhnR7yP7voolMQlo+EP3vZvGc3QsGEEs+DQOklxQSd6cMBpfTSdTaS8RCbBr9+01MdXXWVNRRUzPiMGyNZ1dRdafjxsD1ZQGOs4H6liej38uaKvwNvB6yis0xz7Ao8XdTLONGUFY6zl87UvUFGWSnp5OfbyZyoJA9BJFRDpde+lPli5PXm7pYGhcCoM9vqSDDvtLZpQwNcZt86mTdBDDDTP8bUoN5492YMroqynANZxsAVOUwQvpjpN8RSzTH/GyPbWISrPZ8/0lPlnJhtW7ISmfJV7OkRxlgpaTfs/CajjbQdjIWEOtEhHx5jrroHWmSwrr0rbf0hiXx0z7TCr7TKtTBZxoNDM1x0wMwPk6GhtjGOVyyHIat8YzL8OMKQOcZ2G5zPLCPlOrczbWpW2Z7KOy87z4OQsrYgb5VTPItz92S2mV1zeycMEisqlxG4Z2nWlFbD6F1fluM6FWsqFyBoWZzRRmQpdZWFXVHM5JJDHC9xRTFzuyeC52p/UcCa9QmLPSaWMyKbeE0VilAXQRCQ5XWUXCZIo25TH5kzVkepjK21vZpWYWRtax5kH/79XoUU4J5tRzho6dXFBJ3sjtuolQRALqKlsLq4aCsjqY81Pjd3V7klOC2dyHwcPo3fM2RmdviYh05yrrgdj04tv8QMguNRNfn87yXsykyi41szAaaNqinoiIBMTVGUBERKTXrrIUloiIBIoCiIiIGKIAIiIihiiAiIiIIQogIiJiiLEAMvJxypduoOKeB73scCt5P9pAxVLbj9f9uuGt7GxOCWZzCd5WjEooa6awup675/t/Sq9yV3iubnhFyabE7F71MJuSbj5rUouoNLx0i9MxzGbMXc4tIsGuT3ogSbct4bscpHT9ErLWLyHrzU3+HaCXN855k1DW3P1ihQMgt2wtVVVFrHasPD+R1a+u5aXcAJ3gzsW8UbWC7g+XTNGmhZj2/NatUmM5m/eYWOgtSFQVsL0lkTzDddY7K0Smp2d6rhIpIkHLWAA5+yzZ3QSG6OFDuHhiF7WGDm6/qLhfzHxzIGcChSmBrxTYl9pbYUryxAE7f3LBT0mkjt96WN6lpiiTLS2J/NTLar7ly9ZQF7mQkhwjZ45lREQHh/8YCrdziog7v2uiL75nA+k3WX+/+PE6st97322PW4mKAIwuzd5N2VkHT0uaz6/g0VVzGQ5Yl0fvLMxkLxMLOBZKtO7mvmBh9+KKi8ifay3I2757HffmH7NtmcjqV3OZY19GuEtdkjt5qeouHOvhum8/fAzL3HRyeZ51Hs57h9N54QSVqbb97lzMG6tmgFNbcsvWkhlzgsrUwyQ4nTOzai2ZAFxgz+oCVu20Hz2bRXOg7hnvvb3yLXWk/dzTIpQANRRULcKcWkRygHuMIhLc/A4gG99cwkasgcT1O+mD/GbpDxhvfzg1l4qpucBFPtycy5qzvh2/u7KzgLWokqdc+Y4sntuBo/SsM0t+PIXYytWecas17quIGWSO2kZq6k7rmEhm5wX/juJ0ePExUneCPZisKN7D246L+l2Ydq8j1RFw3O3hP3cv5p9zoUsEyV1B/txzVKYW2M5VRP6rizm6YCNv79zIvbGRVGUuZvWdBayKXWELHrYAk7rTFmQi2ZbqOTiRE09M62E2d9fbq6rmcE4e8TmAp+VUyuppXJBGSirUKA0lctUI4BjIJn6xfglZ69fx4QVr7yRr/RKy1vsePIK67GzrfopzbF/b1x2mgRGMtY1bvJ3/vNM3+mP8n8MXCB813uXl4ZPndDsI/3bNMUzzuw7U584YR0Nl58X/7fz3aIiYyD/Zx0zWPU/xbpjzwGJWz3fd1xe+1RjpqZZKA+dawxjhXhumJ6ljMGHhpIKOSEjyuwfSt4K57Gw3bKmkcOfnnCo1rstZx9hXcx21ShoqH+Nh96v8zo1se6CIf7pzj9OTExl7A8RmrqUq03nnCzhXEX47fyP/9Gouc77cRqo/0QNrvXRfNJztYOFIb5VOajjZksfkqGQv291lU2JeSExrHWvSlyvtJRKigiyAWMvOjuhul6oCMoPqG+udvGQbh7CnqO4oLiLfpcrWMVYteMy2+2LeWLWWl+gaRNbtP0fVA3PY4/q054DjJLcslymHt7Fn8l28UXzcaWymZw1nO2Bkz/vFjgyj46y3Yrq2nmO9r6GgnOXp5bYpvCXEpi/3MLYiIsEuyG4k7LnsbHJBpeF7Bk6faWP4lFRM3naw1fUwG5iWavncdtG+czErHAPeHuz8E12LCNusM7PnholMcTxhTYfFZnYzDTfXOu6xLX8nq17cD3MXO00Jtp9vHAleDuBbrZCeUovW2VTnGr1s9qbqJBZMjNH9HyIhyc8eiNtA+U3WgXLPs7GM8V52tnsuM62A+6qbuc9tNpYlv4S61/JZWt1sfcLPWVie7eQ/d99GviPNdII9uy8wx9EDcZuBhW0Gl8cexTH+z2GYM7fzmbfzC6C4iHzHLCo6Z3HlrqAqcxwNlY9Zxz12bmTbA2vJXFXEauwzrXbycOVkqhztc5uFVVZP44KFLD4jjH8AACAASURBVMqBGm/1RlJTmBzRyHZv230ZiBeRK04Q1gPp27Kz0lVyQSV5txz2WmAru9RM2llvfw/r32tElZGCV9mUmNM494xuIhQJRUGWwoI+KzsrXtUU/ZY6PN8smFxQycJIzzcZAmSX5pHYssVgtUSDs7dEJCgEYQDBOlD+qoXEnF6usyQ+qqHgwS1YugTtbBbNsbDFW+nf1CLSIutYY7hErvXLgmmB1sISCUVBmMISEZFQEJw9EBERCXp+BZDo6Oi+aoeIiIQY9UBERMQQBRARETFEAURERAwJsrWwrkbZxBQstC2v0kFjWSaWU06bo4qYnpOIdXGURj4uWk7rALRSRMRdaPVARj5O+dJfsXig2xFQ5TQWpbOraIvnNbJOFXCwKJ1dZXVc6O+miYh0I7QCiIiIBI3+TWFN+hUVM1op3QEPLZrOEIDP/+BUW/1W8n6Uy3fti9k6trku4pi+dAPpgHO1w6Tb1rFs+Ludxxr5OOWLIqhZ/2RnBcXz63iZJSybOgSA4+8s4RdHsB1/Eoc3t5Jsb9eFg5T+/lkf6ronY1rxU6jcTliOPRXlnGrKJqYgjQ6n1FTEYjPjWtZwcFug1vqy1ddo2kK64bvCRUT80/89kKHTWbYogpr1S8jafJCLN32fPFs9isX35PLd1j/YKhmu48OIH1B+2604qh1uPshFTmBev8RAtUMYMjXXGmTWL6H044uMn/E4SY6t40i3t2v9Hzg+dDr3TPL1yGHE5KTRUZbOrqI1NJ6PYdxdWoRFRK5sA5DCusiHm629As7u4uiFIQy/AeBBJt90ArOjN/I+a/afYMi4eU4X+V66cJBS2/FrP23g4tAIOm+NdGoXmzj8OYyKvNXnQ1u22nsYNZw/2sHQyNieXhJA5SxPT1fvQ0T6Vf/PwrrQwHuOXsP7rPm9rY7IyChGMY7xjvSUff+DATv1xRO7OlNSZ58le33ADi0ictUJsmm8JzCvt/cCREQkmAXPLKyzuzh6YRzp9zzYzT6nOMM4Jnsbm4iIsqW7HuQ39sHwoBBGmK2O7uC7Kpka8PoX2ZSYzZg3afl7Eek/QdQDeZ81v4e8H+VSsfQHjmddy+Vu4hfvTKLi9g1U3A7Os7Bq39vAbeNyWbZ0A8u4yIfvHOTi7RED8UbclNO4NZ55GWZMGUDjFj5uXMg4++YZJczLcIooOWZinG4oHHxXJTNnhzk2Ty0w0/WGwgbOtUJMxGRSUqFG1f1EpB/4VQ8kOjqapqamvmyPGJRdamZhZJ3XsrQiIoEWRD0QMSSnBPOCGGhV8BCR/qUeiIiIGBI8g+giIhJSFEBERMQQv1JYIiIiduqBiIiIIQogIiJiiAKIiIgY4ncAyS41YzabMZdm90V7REQkRBgcRE+maFMeI6rSWV4W+EaJiEjwM5jCqqH6kw5MUVq6T0TkaqUxEBERMUQBREREDDEcQGpOWQi7JUX1J0RErlLGeyBly0mvGkGe2UxlgcKIiMjVxvBy7skFleSN3E56+vJAtkdEREJEr8ZAOs42BKodIiISYjSILiIihiiAiIiIIQYDSDIpt4RhOaUCqiIiVyu/B9GzS80sjMZag1vLmIiIXLVUUEpERAzRGIiIiBiiACIiIoYogIiIiCEKICIiYogCiIiIGKIAIiIihiiAiIiIIQogIiJiiAKIiIgYogAiIiKGKICIiIghCiAiImKIAoiIiBiiACIiIoYogIiIiCEKICIiYogCiIiIGKIAIiIihiiAiIiIIQogIiJiiAKIiIgYogAiIiKGKICIiIghCiAiImKIsQAy8nHKl26g4p4HvexwK3k/2kDFUtuP1/26kVOCeVMRyfbHj+yksHonCYYaHATmV/BodTOFZU/1wcGfYkl1M4WvVWDqg6Mb8sjObttjKq6nsLrZ+hPoz8T+WVc3B9m/madYUl3P3fMHuh2eZZeaKcnp/THMZjPm0uzANEqC2nV9cdCk25bwXQ5Suv5Zao0cILWIygUm6p5ZTk2gG2eAqbiepUnDnJ5po251PG/tGLAm+W5+BY+uGsk7KXdywJ/XPbKTwsxYDxsaeN3fY3lgyY+nENtnO6qXB3O3I4vnduB47/0toayZ288U81x+eb+fuyc35z/Jf0scStMbT7DmZddt5VvqqPx5JUWNmRRUGTh4TgkLoxvZkr6c4Hvn0heMBZCzz5K93vvm6OFDuHhil7HgQTJFOYmwZ42xf8Q+yabEnMa5Z/z4j9K6m/X3Z2EB68V1VT3gRxCxX9T6xEo2pKwM7CFfvJPCFwGyufu1fCYeCs4Lovgqlp/8r3/l5k8P0OStT1ZVQGZMCeacIpKrCvz+8pYcZYKm7QoeVxG/A8jiezaQfpP194sfryP7vffd9riVqAjgvMEW5SwikTrWFHX/z9feKzhf6+eFLbWIyp9bA9RyowHqxf+kbn4+E2/Phh3ljm+c/8FyR0+luXICG1607p5Q1sx9ti/zntrr3sNxfi2P7KRw/lnWvwg/XDWX4QANr1CYs7Lra52et6ZLHmCC7dF91c3cB3T2nqzbcT4Xnp7rjus5XM9vNdqpff79rVyP7fffuVvWoJgYYXvo3O5HdlKYsJ/1Z37gtd3Of0+787Wuf39i8ymszu96fIDYCh61/y2dv5j0oZvzs4iseYK8l+8g77VudizbTF1qHotyoKasjxslIc/vMZCNby4ha/0SzJ+7b3mQ3yzdQMXSXL47FIZMzbWNgawjz48sQnZ8DB2fVHf77cd60TzD6ykT/Luo5JRg/nkillfTyewhQPlreFI+S0f9gcKUCayvbWPC/M78/4GcCRSmTOD1Bg8vfGSn470UpkygsLKBCZluefKIuSxdNZJ3UiZQuHo352N/4NhuyY93nNPVSjbY96eh8/gp9l7TSg42wIQEp/GHR2YwgQYO+hQ8IKFsBgcdx32F5tgHWPKIa7vvs30mhat3Q9JyH/P/2dz92gN8u7bYceyvkvJdj90LCWX5JJ59xXbsYupGPsCjxU45+9gHHH/LwsoGhif9c+d39kd2cl+s/fMspq4VaHiF5/LLHX+L1xusAaXQ/tm4BNVhJGba/pYpr9AcMZe0AL2v7nxa/KsuKSvPaqj+pIOYeI1hSM8COAtrE79Yv4Ss9ev48IK1d5K1fglZ63NZc9bXYyQzJhIsp7xf3KMcwcO/PHxyQSXmBSbqnklneS+/WZmKl5MY0cA7zsGrdTfrbRcKyzuHOB8xktE9Himbu+fHcr72Pzvfy4t38nrDMGvvxqGNutW297ujimOtw7jB0/CEnw5U7uZ87AzHxTEhwa0tPb0+x/lvYA1I377Rqd1On4m93a7vy4v5qUxkN//h+HxXsr22zTXYGfYU02MbeN1xUS/nrR0NDJ+S2jng79zuF/fTzCiibIEvISEWGvbb3nc5+w61wcgxfkxecPpbevrMgkDNKQtEjumcwOKj2JFhdJz19C1JrlR9MohuXCwjIrrfnpgENPzBz0HcZFJuCQM6jDctYi5Lq5ttD7oOJJ8/VNWZhvBzvOOrL3roRbUeYp/jeOW8dX+AUjk7qjj2SD7TH4EDL1ovrO/k+HFsDwPt589427mcU2fzmejLcWNHMjwi1unztgnEtWn+GL5NrFNKz6bVt285p8+0QZI16B4gm5lThrn+7fuSLf0a5niijwasG8/RsWAEseDTOEhyQSV5c8JofDWdTKW9ripBFkAaONcKI7rZ/nrKfqZXP8Cjxcf8SF/VUPBgjS2FZaYkxkAvpA9z1dZvoPb3kk3USMDrhTiQytl3aDlLE56ypq8a9rPB15fOr+DRzNguYz23e32B9X19dcDHv1mfjg0Yn0lm+eIMOAeg1t2s76/JBVUFZPbZxBInMSMIaz3nc7yuKcqkBusU3sqCNQFPD0vwCrIbCWs42QKmqO46zyvZsHo3GMmJly0n/Zk6TAvMVBb420HvC9YUiGuO/Z+7psd6Y8dJviKW6V4+K0v+H2iO/QGPzh9FXaW/M7na+NJ+lXlkZ5eBZRe29+XT+MqL+2mOmMsPi7tP7djvOfDr3oUdVRxrjeU+Q/eeWFOOzZUTOsc3PAS502faXFNiISY5ygQtJ/2ehdVwtoOwkQHIrUrI8LMH8iC/WfoDxtsf3pRLxdRcL7OxjCmvb2ThgkVkU+O9a74ji+did1KY2UxhQteZP92qKiCzKpsS808pSq3pw6nCdm4zlWyzc+wzeyz58awvrmep2ywp374du80m4gEKqx9wm/Wzkg2VM6yfVWbn8TunH6/kYMMD3Ddyt1OazAc7sngns5n7VjWTuApo3U1dQ6xrispr2q+ndq9kQwosqXaayYTb7LRuuM9qs/YW7Ocv5637gdfyree08W2WVzlv7fhnp8/Sxq23ZMkvoe61/M737mF2Wr97aBnr7x3X+fjep1l/Lx7uB7GmexurNBlXenbN2LFj/zHQjXCVTNGmPCZ/oq5wfwnmG9+CizXw3bDDOZBdYffJ5JRgTj3HmgcN3AdSUEneyO2kL7sCPgfxSZClsABqKCirgzk/pSh1oNtyFbBNSw1YyuyKNpEb3Cd5zE9lYoQPEyFCgX0FiDL/gwcYn70loSsIeyA2vfgmJD5wzKAKoWVZgoGHmWe+ptaCXXapmfj63k1zzy41szAaaNqinshVIHgDiIiIBLUgTGGJiEgo8CuAREdH91U7REQkxKgHIiIihiiAiIiIIQogIiJiiAKIGHQnL1UVsfrO7vfKLVtLlQ/7GZdM0abel2IVEf8F2WKKPRj5OOWLIqhZ/yQbB7otToY9/QK3jHd9rv2DUg4/dXRgGnQVyS7NI7FlC+laBVak34VWAAliChierct5jHV9dXBHDW7dsCYyEPo3gEz6FRUzWindAQ8tms4QgM//QNabm2w73Erej6wVDXHZ5rqIY/rSDaQDcJEPN1sLViXdto5lw9/tPJZbb2XxPRtIPr+Ol1nCsqlDADj+zhJ+cQTb8SdxeHMryfZ2XThI6e+fNVjX3cmSx5h9z3jOvPkzjm8AiGPU75Yxnn3U/2QDl5c8xuyph6j/8nvEz7IuAOgSjJY8xuzvt1C/AWKWzyQc4Phb7H1iu48NmMjqV3OZ41iC4wSVqc87Luq5ZWvJjLFvu8Ce1QWs2gnkrqBqRgt7bpjBnIgL7Kk8xpTMGYS37qd4wUbetr8kdjFvrJphbZfztjudnnc7p7VNi+HF94hcdRexHve5k5eq7Nugffc67s0/5vS+kilKjaHx1XTV4BYZIP0/BjJ0OssWRVCzfglZmw9y8abvO0reLr4nl++2/sFWyXAdH0b8gPLbbsVR7XDzQS5yAvP6JQaqHVrL7C4b/i5Z65dQ+vFFxs94nCTH1nGk29u1/g8cHzqdeyYF4P1uWEv9B22MuucxhgGDVv7XzuBh32f83cTf8Ef2Zv6MvSX7YNZ/ZdT3nY4xbCbxyyP53La9ffz3XLd7ZQseX24jNfUx20/nRfqO4iIyb9hPsW1b8W6Ys2oFufaXx8wgcsdjVDYOZU5mJNtSt9EQMZF/coxn2J9/jNTUdexhBiuKbevx7tzIvamPkbp6P+0e2zaUOatuo2W17bWt47jL/lomsvrVuzDtXmdr8zYsc3N5Kdfp5akpTI5opF6pK5EBMwCD6Bf5cLNtDOPsLo5eGMLwGwAeZPJNJzA7eiPvs2b/CYaMm+d0ke+lCwcptR2/9tMGLg6NoPPWSKd2sYnDn8OoyFt9PnT4rGXMrnzB8TN+See2y0/9kk+Oj+emlUsYPQuOb3AKHgBt+6i39yje3c2XbcMYMsFlB46XrKXN63YvctOZE3GCypydHjbeyT/PHUrDjs7exNv5G9nTOo4E+4W6dT//aYs27bvNHlJRF9iz2h6QjvF/Dl8gfPIc7vChaQANlbbejv21o2x9zDvnMIX9PO/ocezkP3dfIHaG00i8n0WPRCTw+n8M5EID7zl6De+z5ve2OiIjoxjFOMY70lP2/Q8G7NQXT+zqTEmdfZbs9QE7dI9jIG1PvMXFyrsZ8kEpx9/t+XhDTHGA7Xhtx2h1vOYoZ37yM5/adMdNI6D1GN5bdYGWAF6B3/78HPmTA3Cg2EjCI8aRXzWDfOfnGzt/TY4yAecCcDIRMSrIBtFPYA6yGVaBEceo390Nb77FxXuWMX6JfTzEu4uW3g/I93xBH0pkLODooIwnstua9N2746YR8OXhzvGR3nAfa3FTc8pC3i2BOJGIGBU894Gc3cXRC+NIv+fBbvY5xRnGMdnb2ERElC3d9SC/sQ+GBwH7uMfpDds5/uZxx3iI132HHeecz8XJsdZxMJsxbypyrcWw7jANEU7jEi52cqARYucvdqSc7ii+jVintJV/bCmx/Z7SZX7qtt02jefoiBiBCqiKDJwg6oG8z5rfQ96PcqlY+gPHs67lcjfxi3cmUXH7BipuB+dZWLXvbeC2cbksW7qBZVzkw3cOcvH2Xnyd9pN1DKTzsT2lNWjlr4mfBcdLbOMeG97k+PeXcUvlY3ySaRvXGDaT+MqZtlce73y+13bycCq8VJVLlaN0b+dsp3U5j0HZWqdU0QkqU71/6+9qKHNWraVqlfVRQ+VjPGwLPncUF5E/d6hjz8yqtWR2mWnlT7tdj09VNYdz8kgrSKZclStFBoRf9UCio6Npamrqy/ZcfezTdH/iNrAuPcspwbwAtqQv11RekQEQPCksEX+VLWdLUwwLS7MHuiUiVyUFEAlp5cvWUBe5UGthiQwApbBERMQQ9UBERMSQfgsgKocrInJlUQ9EREQMUQARERFDFEBERMSQEA0gnsuYZpeqtGmfySnpulQKwPwKHq1uprDsqf5ryyM7KazeSUL/ndEP2ZSYS9CdKXI1CKKlTHznrYxp+ZY6Kn9eSVFjJgVVnl/b/2wFpNwWv+osMDWAcldQlTnO9TlPiximFlG5wETdM8vxa9GQ+RU8umok76TcyYHetzaopP/Pp7l3wgXqnvsVv3P5UMrZvKeSvE1FNDxY4N/nJRJiQi+AdFfGtKqAzJgSzDlFJFcF8j9vNjEF8XxZtJxWg0cIioDhSQ+r3kIyRTmJsGeN56C8I4vndvRd84LPHeS99gOoO0DbBM9LOdYUZRJbauanBcnUaJ0uuYKFWArLXsa0m7WPyjZTRyKLAprKKueLvSamFlRiigrkcWHY0y8wu9Jpdd7vL2Fy5QtMXhkHwKCVv2byyjjbfu7FquIY9Tvr487tv/axWqGPchaRSB2/9XAhTChrprDa+vNosXPS5imWVDdTuGouw4nlvmr7fvXcPT+AbbMxFdd7aENPrGnQyoIuSblupf/PebQ89wRrdnW/X/mWOpizSKksuaKFVgDxqYxpDdWfdBATH9j/upe2ZbJrq4WYHDMxMwJ33LYnSjneNp5bnk4D4hi1ZCa4FacKn7WMm74stZa89bAc/Kh7XnBs/+T4MMZnpAWsfdnxMXR8Uu2xN3cgZwKFKRN4vUtRqpVsSJlA4erdnKeB11Os+xWmxPNWgHsrpuJ6liad4fWUCTyX3/dLKpr/m3vKyouqag63xhCvMTm5goVWCsvHMqbWYkNjSAbf0lhRRUzPSWSo+/ONW9i10emitH85uyxFTM8xM/07azi4zff0xKh7XmDUPfZHbRwv+SVn3gVrhcG3GFL5PUatnGKtl+5e2fD4W50BZcMhztzzPQZ/H9re7bq97ePj8H0Tg8C31X0jZrhW/mvcRqqjBG4yYyLBUh+caZio4nruSzrD60E5xlLDyZY8Jkf5/K9QJOSEVADxuYxp4zk6FliLDfn0X/dUAQeL/GvL0NmLiNhW4/OYSPdjINs5/uYUZt8zguMla3248NtqotsCyJmPt3du2rCWvf6MtXQ7BhLLiP4rqeKnWBKTgIY/+BU8kgsqyZsT1vnEnDzM5jygg7pnAjv5ouFsBwtH+vyvUCTkhFQA8bmMqY89FQdfeyAzSpiXEYNlazoH9/t6cB98fwmT74FP3jzHLcsf49K7PRWUauNicwDP71UD51phRH+cym8NvJ6yn+nVD/Bo8TGf01c1RZm2y3kyRZvymPzJGjL7aKA7dmQYHWcDWHReJMiE1hiIj2VMk6NM0HLS9+99pwo4WJTOLvefLsHDRGNZOo2BDB6OcY83aduwlk+O28dDPBv29N2MajtG67ted+kiu9SM2WzkHpkaTraAKcq/gWaHHSf5ilimP+Jlu7dSvD5byYbVuyEpnyXezjFgbOm/Ux7+FeaUYDabMauOiYS40AogtoHJtG5nziSTcksYjfWBHFDNJiYDPi7KxHLK2BFG3dM5i6pzJpXtHhH20Wgfw9i6j/bxdzPbOYiMv9vxultG7Ats9cKIGeRXraXK/vNqZ410gPL6RsI8ziayzbSqbua+WBielO9hJtRKNlQ2MCHTyyysqmoOtwK9qW2+I4vn7Ofoh5sZb85/kvWvPc36RxMYxlASH32a9a89yU/c/0l2N+GjrJ5GgMgxBgOnSHDot3ogAasl0lMZ05wSzKnnWHOF3MQ1aOWvib/hj+x9YnvPO/eJvk31ZJeaWRhZd8X8veyyS82knfX2mVk/08SWLaQvUzFeCV2h1QOB7suY2u+YLruyLkYDq4aCsjqY81OKUgN4WFsa50oMHskFlSyM9HzvTHJBJWazgodcGUKvBwLYv8GNqEpnuVOKILvUTHy963OhbuB7IDZXWM+u72RTYo6n3lsPWeQKEqIBREREBlropbBERCQoKICIiIghCiAiImKIAoiIiBiiACIiIoaEaABRSdtgk1xQ6XFpDnutjv5casRUXE/haxWYvO6hsrMigRBSiynaqaRtgPha0rYnOSXkzbF4rhLZjYSyZm4/U9wvdTxcqeysSCCEXgBRSdvAMhIwXGRTsiCGxlfTPd44Z8mPp9B46/qMys6K9F6IpbBU0rbfS9r2ILkgjZimLR7u/u9cbNF9EUV7Wst5EcbC6r5bDNFeetc9jaaysyK9E1oBRCVt+72kbfe6W/nYVtY25RXcS5dY8uMdpXDP1xbbyt1OoDBnZcBbmFDWzH0jd7M+ZQIbXnTbqLKzIr0SWikslbTt55K2PYllREQH5xp93L2fzSxrJnHkbtbfn4XF4x4qOyvSGyEVQFTS1q6/Str2IHUMPv5F+l/EXBIj4HxtlZfgYaWysyLGhVQAUUlbu/4qaduDqpNYfj55oFvhWetu1r8IP1yVz5JHyrumr2xUdlbEuJAKIL72LKwlbev9LGnbwz5OJW2NViX0rHPco23DUT6Z+gK3PJ3mdfl2a0nbfdT7WdJ2YTQ0vhrope4bONe6kBExgIFp06fPtDF8Siomyj33EnJKMC+IgSaDtTN2ZPFc7E4KM+u5uyGet3a472ArO1uv3oeIEaE1iK6Stv1e0rZ7tgkLqR5qmj+y0za76gEmMIzEVV1nY1nyS6hjLku9zcIKROnXF+9kfS0krnIvt4uPkzJExJvQqweikrZBJpsS80IIeO8G+rr0a/dlZ0WkJ6HVAwGVtA065Sx/tZGYBYFdGqSvS792V3ZWRHwTWmMgNuXL1jBmUx4lOeWuJW0XJmJ5NT2IljEJVXfyUtVdxHrb7D7Vt2w5a6IqySvNpjxAF/uaosw+/BKQzaI5Frak64uGSG+EXgpLRESCQuilsEREJCj0WwBR70NE5MqiHoiIiBiiACIiIoYogIiIiCH9HkBUdlZE5MrQ7wGkfEsdpgWVFKX295lFRCSQ+j+FVVVA5qsWEnM8rJ8kIiIhY2DGQLotO5tNidmM2dNSJSIiEjQGaBC9b8rOiohI/xmwtbC8l50tZ3l64BfPExGRwBq4abyN5+iIGOF9wT4REQlqAxdA/C07KyIiQWXAAoi17OxJD8tp2wbRN2mWlohIMBugANJd2dkGzrUCEZNJ0b0iIiJBa2ACSM4iEqljs8cSqDWcbAFaD1OtwlAiIkGr/2dh2cvOPrO8a/oqpwTzghhorbtiapqLiFyp+q0ioV12qZn4+nSXUrQiIhJ6+r0HUr4svb9PKSIifUDLuYuIiCF+pbBERETs1AMRERFDFEBERMQQBRARETHE71lY2aVmFkYDTVtIXxbYVXOTblvHsqlDrA8+/wNZb24K6PF9Yr8XhUa2pC9H6wKLiHhmcBA9maJNeYyo6pv7OZJuW8ey4e8OQADJpsS8EF7VfSoiIj0xmMKyFoQyRV1hyx2mjsFEI/UKHiIiPer3Gwld0lScwLz+STb6+uJJv6Li9nGOhxc/Xkf2e+8H5tgiIuKX/g0gk37FsqlnHRf2pNvWsexHj9P0+2ep7fHFD/Kb20fy4eYlrDkb6GOLiIi/DM/CqjllIeyWFL9qdiyOGcfxdzp7BbXvvcvxobHcNtLXIwwh7uZb++jYqMiViIgfjPdAypaTTglms5mf7llDZlFPa+feSlQEjL99AxW3Oz9/kQ99OuEmfrE5ivJFuVRMzcU1RdXLY6cWUfnzRMKatpD+oOZdiYj4wnAASS6oJG/kdtLTl/v1uuPvLOEXRwye9OyzZK+3/pp02zqWLf0VOI1zGD52VQGZVVin8G4q0lLyIiI+6NWNhB1n/Un2vM97Jy4y/vZfsbg3J7WpbXEeCAnQsRvP0RExgthetk1E5GrQr4Pote/lAutYtnQDjkXdLxyk9PfPUsut5P0ol+8OtW/4ARVLf9B5Q6HbDCy4yIebc53GPLo7toiIBFq/T+OtfS+X2vc8bXmfNb9/39MGqyNPktVDesr7sUVEJNAMprCSSbklDMupK2ykoOokFkyMSR3ohoiIBD+/A0h2qRmzOY9E6th8xd2xXc7yVy0k/tyM2VxC9kA3R0QkiKmglIiIGKLl3EVExJDrpk3zfRz9xhtv5IsvvujD5oiISKhQD0RERAxRABEREUMUQERExBD/byQccw3P/WgQMYOvcdvwdzo++zPPvPwPPghM2+SKcTv/8uTjDN1/Ly+8OdBtEZFA8TuALL9rcM/2gwAAIABJREFUEDHtf+bZSrfZv6OuZWnaIH6e9WdWVPydPwWqhc7CH+Wx+AjqdxXxdl8c36BvPLyWb5lcn/v70XVc/o9jA9OgIHP3ise5pfVVVip4iFxR/O+BXHsN/BVqGt0CSOPfOPlXKL77Wzzfl0EkSClgeHHPc3w/qol3V/7bQLdERAIsoGthNdb9jWdGXMuqud+kIO0yj2x32+E7Bay6qZU3PoW0+GkMAji/ndWHXrHtMIcHZj5MzGDbQ8e2B/iXeWnYv+TPnvc7ZgNwkcb65bzSDlOiS7j3+j92Hsutt3LHlN8R//VLbGcx9462lr21NPyEf/sTtuNP4rP6VuLt7br0EW/se45Dvf1Q5q/g+lvH8df3H+MvOwAmct3Pc/km+7n0zEb+MX8F148/zKW2eQyOGwa4BaP5K7h+eguXdsC37p9hHbSybOPrl3b2fO7EB/l/Fkfy/oojTHw+jZsAOg7w77/Y5Egzznr4v/PjKfYVLC9weOP/4P+tczrG/ct4PmWs4+HXh17i/37JvgrzHTxhP26XbQC38y8zovnij/fylq+fl4iEjIAPon+w/S/8+9F/MGbuIJ5L8bDD4GncGx9B/a6fsLr+Iy4P/x4PhFs33THlYWIubWf1rp+wetdLNA5O47HoOcAr/Jt9fz5j766f2PaxBg9fDRr9sDXI7PoJb5y+iOmmR5ni2DqW2fZ27dqOZfA0Zn+nVx+F1Y7nuXS0jetuXcE3gGt++KPO4GHfx3QXg4ft4utfPcbXr+2HuB9x3XSnYwyZweD7I/mrbfvfTfNct3drLCnPJ9G2MY8VK7bzeVgCKffbNiU+SAqbWLEijxUr8vj3QzB5wYPMsr/0/mU8n/JtDm/Mc+zTGSBi+dffpBF56CXbtu20THmYJ+53OvWM2xkf1kSjUlciV6Q+mYX1WsWf+fdj/yAm8Rvc32XrRRrrbWMY7bv5/NIQwsIAHmDs8M/Y6+iN7OGVzz9j0LfnOl3ke+nSR7xhO/6hM41cHhxB59CFU7t4hc/Ow7fD5vh86Gvjcrn+ybWOn2/O79z2j/8o5M+WcVz3w8VcFwd/2eEUPAAu7ueSvUdxcA9/uziMa1zGVNr4y2vP8zev27v3ebW9V/E2x76AyFG2iid1m3jaqcfwwYEGvg6LtPUoYvnX2WP5+tAm1x6JXWIiEzjA/3a8/m2qD13gprg7OveJGsHgjnOc8r2pIhJC+nY597/DX92fu9TIIUevYQ+v7Ntj/TU8im8zFpMjPWXf/6OANefyV7s7U1Ltz7F2V8AO3eMYyN9e2sa1T97FtUfXcflgz8e7dsREwHa8iw38zfGaY/z1mcf8aNlnHHut89Fra/LofBjLv/7mYSaHue5vNY5hYdByxkvRsBsjuT5sLD9+PoEfOz/vtFBBwg3fAc750VYRCSV9EkDuz/oWP54I9a/9Df+yF5+xN8hmWAXGRK77+V3w/jb+fmsu35xvHw/x7u/n+n5A/v68h5nMAf59hW1MxDZmYnWCtg4Y1t0B3MZT3B348k/8cKyXjSIS8gKewpqV9k1+HHcNJ3f/mV9+6McL23fz+aWxzJ7yQDf7nOIrxjLW29jE4ChbuusB/sU+GB4E7OMef92xk7+8f8IxHuJ13yEn+HsPAcbFjCcpeuoNnnrySRL8bdz5M7YAEMu/LkjgeseGBvYdv8BNKcs8pCGB147weVgC/+XhbgoAnzrHpbARRPnbJhEJCQHtgcQkfoOfz72Wr/b/mSL3GVg92sMr++CBmQ+zal6a49nLp19ibZMtzcUr/FvDJFbF/o5VseA8C+tQ00amzHyYe+f9jnu5SGPDR1yOjQjMG/OBdQyk87E9pXXNDwsZHAd/ec027rHDzF+m5/KtJ1fw51/ZxjWGzGDwkzNsrzzR+Xwfe636ALcuTuP5562f9+eHDvD1lEjH9g9e+h/w8H/nx8+vwT4fonOm1ds8vQKeeP5hnn++85ifV+fxtD1Htv8djt/zOLP/r9t56/97px/ekYj0p2vuvjva53ogN954IwvvbmH+t/7Ms9s83Uj4TTh69d0D0iv2abrPuA2sXynueY6nvgfvrnxUU3lFrjB+90BKtv2Zsf/8LR7/cdelTL5qvMwLFf9Q8JBObz7KuzFv8P0V/8Jbz+tmQpErif8prJN/54lnLvVBU+RK9dbzzzLqycf52T3/prWwRK4gfqewVFBKRERAy7mLiIhB1330UZdb/bzq6PgGTU2+7+8sOjqapqYmQ68VEZHgox6IiIgYogAiIiKGKICIiIghIRpAkinaZKYkx/XZ7NKuz4mISN8IyQCSXZpHYssWlpe5Pl++pQ7TgkqKUgemXSIiV5PQCyA5JSyMbmTLsvKu26oKyHzVQmJOEckBPWk2MQUl9N/KWiIiwS/EAkgyRakxNL66HA/hw6psM3UksiigqaxyvthrYmpBJSYtLSsiAoRaAElNYXJEI/Vl3e1UQ/UnHcTEZwf01Je2ZbJrq4WYHDMxM3reX0TkSte3FQkDLWYEYa3n8FIjz6HmlIW8W8aQDNT4ctyoIqbnJDLU/fnGLeza6NTX2b+cXZYipueYmf6dNRzc5tPRRUSuSCEVQJKjTPhUIrXxHB0LRhCLjwHkVAEHi/xry9DZi4jYVkOrfy8TEblihFQAsfYsfNjRx56Kg689kBklzMuIwbI1nYP7fT24iMiVKaQCiK89i+QoE7TU+9b7AN96IDNKmJdhorEsHcspXw8sInLlCq1B9KpqDrfGkFbQ3STdZFJuCaOx3us8LQOyicmAj4syFTxERGxCK4BQQ0FVI2FzFuF1jlXOIhKpY3O3M7X8VU5j0XKNd4iIOAmxAAKULWdLUwwLSz2EkNQiKheYqCsr8D19JSIihoReAAHKl62hLnJh17WwFiZieTWTgqqBaZeIyNXkmrFjx/pc0rY3RaFUUEpE5MoSkj0QuQJdP2ygWyAifgqZabzR0dF8/ucIvvHt8VzzzcED3RwJsL9/fZ6/XfgTf/vqBH/vaBno5oiID0ImgABcN8qXuwglFF17/XCuvX44gAKISIgIiRTWtYOV3rhafGPodwa6CSLio5AIIH+/1DbQTZB+Yu+FiEjwC4kAIgZlTObNougei2v95LFE3nzmuxTO7KuGTOAXq37M03f11fFFZCCE1BhIb4Q/NJfxbtmRi8cO0/S/dX95X/uvP72NGW2H+S/bBrolIhJIV00AAQUMb363to7f9dXB77qbe0ef441f7uurM4jIAAnpABIRfj0dX/+Zv/7tb7070B3TmDo7nHN7d3PqbYAIRqyYTBRfcvT5Y/z5jmlMHfcVR9u+Q9zEbwGuwSj8obmMajvM58Q6tnceyxfDKPz/27v/4Kjre9/jz7a4JCQkZhNDWIGQhNA0UVF+jlVsiFUvIJwLmsvQQelYcs6xSvGi4oD2xLQCU1SmCl7PKegcrXO43ijcgoZTOYZUdBjkh6YSLhqSEIEkRJKYuCFhsfX+sbvZ3z+z+bHs6zGTmeT787P7/eb7/n4/n8/38y77IdMT7H93s+uxE30X9V+snsGivlS6lzmy41OePoq1iiq3lyPJqUxPuMyRv3Txo5+kktDdxnOl9X3DueQ8cCOP5V9l3fKJz1nyqq1NaVo2by5NJcHLPq1lyobdrRiXXku212VMvPicfZ7btgHIYt2NRho++iOvB/tViEjUiPo2EGPSKEb84Af928j7n/FFrQXjzOtJBAz3TnIED/syY8YzOek8xzce5PieC5A7CeN1jk2Mys3vm/9FrQXjdbkYgtq5LXh0nuPuxw7bfhwX6cIHbmRRchvP2eY9dwKmL83nF/bVTakYjxxmV9NVTP9JHO89do76hCQK7e0ZCaksurrVut0dbZCf7WjrOFrPEtv0bq9lu4rpS9Np33GYux/7nCPdCdz5gL1HXBJPl13LmBOf28p8jvP5P+TFBU6r35hFXkI7n6nqSuSKFDUBxHStiQkZKS4/yYlxxI0cgTFpVFDbGJWbz3Vrb+77Md3umGd56yinzyeSfm8uabnQ9L5T8AC4eIEvXj1r/f14K19fNBA3xvt8y8kuLo6KCy6ALBjH9IRudm32Nk68icX5V1F/xPE0UfVqPUe6E5hiv1B3t7Fzj+3XE2c9q6K623jOvu2jF/h/3VfxoynBd4uu/4vtaYcuqhovk3B1onXGtDR+RBsv9z1xNLHzxGWyc02OlcfGM6q7h4ag9yYi0SRqqrCazjXRcvV4l2kjDSNITU6gteOboLYRqA3E/OoZktaOJ672BE3HA28vLiUZbIO8XzzX6gg4x2upD2J9gMJrDNDdRZ3PJS7THrEcJF2c6YQfRWJTpjgSEhJ47LlUHnOe7lTW2amJQE8k9iYiw1DUBBBvkhPiafoqUo3iyRhXjYePz9A7Mx/T7YHbMHo7+r/vqq8sPJbpb4mrMJqAvjboRIwJfhb3K4nxyXC+NkLv1bi1tbg70GZm1XgfM0Uk6kVNFZY3wT55BMPe7nHh/bM0fWzuaw/xuewoM11BN5IDc+fz1jP38dZDbi9b7Pma+oRUHnzAW7VSE9VNkD3d8S5H4QPpZDtVW4XEVl1WHc667vyW26a5h4sJ8WRFYHciMvxE9RNIqKxtII6/7VVahnunMTkXmvbY2j3e/5Km6/KZuPZ6Tm/8DDPAqDQmr02zrWl2TO+3Jn71GLz43A955zn7NEdvp1c2H4bVM5yqirrZ9Zjvu34PCalu67o20Nt7ZwEsem4Gizx6WoVSbqj/y2F+ZQ9QnzZwcu6t/HRZFq+/oZYQkStN1OQDyc7OpuXqWWGv3y+3X8911/W69sqS4Mydz1u3wO6n3g26K+/FYzsGtEgiEhlRXYUlUWDvu+xuNrLQvepORKKeAogMuNdf+pBjSfnBj4U1YuSAlkdEIiMq2kCuSv8hcHnoCvD+ZxwPpcFc3DSwYWPwbSAjjFl823pyAMsjIpEw7J9Arkr/ISPGXj/UxZBBNCIthxFpk6LiSUS5aiSWjRg1dWnwS399iJCWj9S6/fTfJl7iP08P/4uRWH0/LgnDhBkYJswY6qIE9N3lXr79+kv+9lWt8tZIzBn2TyAiw9n3rorjqmsmMyItZ6iLIjLoFEBEIuAHKROHuggig04BRCQCvndV3FAXQWTQKYCEbBrPPrOEdTe6T5vP/UNVpCvc7GVLPIeAAdIf+DVrnt/AkoWhblHHSyQSoqIb7/CRxbq1+Yw5+SGPf+o8/Si7Ty5h1doiGjZWcmCoiufuulyyF6ThOth9JIdhCZ/7MCrgLSEVMHc+q/LMoWc0XPgIa6ab+fd/2U6rx8xherxEoowCSAhmL5vJVM7xgpdxnQ688SZZD91HybIsDkR03KdpjF+Qwdd73iW8oSOHR8Dwqukcd3vNg2I3jWdv8Z3RsPXV37IpzF0P3PESiR0j+psWtj/rR9e+p7EwD4695fuO9fWPzvHTe/O5n4YIpnA9SmvDEvIXLOHMgTe58HWktuuWthfcUvsmY1w1Cd4/T9yC8RgB12BkXT/u+EG6Mm9m4hgAC017jtIeZC6UQGYvm0RW8wnu9chouJglz0/HOgp+D5/s+C37jthmTV/BPy3NJhmAdH7+/AbbjFb2Pvp7PnPaysAcL5HY8X3of1rY/qwfNfuem0FW91cc+NTPMp82cLLbyPU+huwwJo3i6tHxIZfz0vE3+aTazPjZ9zF+guf8kQZrVsZgMzNaddL+whnaR6Ux7t5kYBwml7zwAAZMC8bQu+cgxzce5PT5RCY+MM71M8205oO3zjdgmjnOfUdhymL2eAMN9d6qrnby5qPr2PToERrdZx3Zzr89uo5Nf2mF7nr+/dF1bHp0HZvcggcQ8HiJiH8jkhOtvUeMSaMC5tcwXWvCMDrF67xA6/dn3f6ub0w1MqHXe4LZYPYNtux6XS0B6ssbONt1K3mpWeCWyHWkYQSJo0by9+++4+tvHFn6Rl63hPwsz7JdqP4jZ750mvDlu3zSVcTk2fcxOelDvjjuun37ttu7LrptKZGJa292/HnROdf7WZr2xJO9YALGew0Yz5/xGLKl/WPHE4W50QzXxWMAx6jE58/0ZXn0Ot8f07W889y1fX+6DAWPkZQECx3NwWwoXL6Pl4gENuJ8+zdBp4XtT1rZ/qak7c/67W3tfNni+iZ6qOlws5KDynBOQ6eFUclGvF2QzBcv8fe/u46ef+n4m3wSYpVPQlY+o4839LWJjPjB971u27ZX/20gx2s5mzeNybkWTm88G3jntlzv9gDR3ui0TqhjhvlrA7kxmTFARwibC4e/4yUi/o3ob1rY/qwfTftu6LRgq1j3KyvZwMXOdo/plyzfcsnyrcf0oJ9AJsznpilGLlT/kS++dF22u8dCd0+YmUpuv57J13ZxujaJiatyA+c8udg7ODlRPu3k/L3XDPhufB0vEQlsRH/TwvZn/WjatzW/dzKzwU81VhbjkuB8ffB3s0E9gUyYz01TEjlz4I8RbEQHR7vHZ5jfT6ZpVT7j7m3tq5LytuzF2i9DCiD3P3QfC8dCw0d/5HGPxnB/2unoNpAyFvDX7uRLk5nOhLFMmY6jgd2D7+MVfrlFYoe68QZrbwsNt+SzcC4c8HVBuTGLvIR2/iuiF5xpjJ8Cp/a8GWY3Xrc2kL4qrXGY1o53avfopP24GdPMfLLvPUH9W9aljTNvxjjT+rs9BfDgaODAmZmsurGI2Xvder4tfIQ1P0nv+zNz6QZuWurWG+vIdnbd8Gt+vnQDNy0Fb72w/B2v1+vbWTjWyBi1j4j4pAAStKPsPjnJ+wXN5v5broWTH0a4S+hRzuwJvJRXx2upP17rY+ZZmjaexaUFwqUNw1pf59ory1kn7S8cDFiE11/y/g5H1aufBszrfuCNUyx8xkvQ3v17Nu0OuOuA74n4PV7NPVwEzrcpeIj4oqFMQnDgjY85xrWULMvymDd72RIWJp1jm15Ki6CjPP5RO1m3RH7YEd/HK4t1a+/jrXuv5byqr0T8UgAJSQMbNp7gfN5Mj7GwFuaZ2a1hMSJv77u8cDIxwjnV/R2vBjZs/CP3PhV68Ph+/NURKp9IdPhe3n9/wlvfT68yvj5Ey9WzwtpRf9bt7/pKKCWD4fLZY1xu/XyoiyEyaNQGIhIhP0ixDq7yt2/O8/eeiHaXExmWFEBEIuT7Cal8PyGVqwIvGpTvLvfyt47TfHuhTulyZVhSG4jIMPW9q+IYkZ7HD67JHeqiiHilACIyzI242ssImiLDgAKIyDCndLkyXCmAhEwpbYcX63sbz3oZkv361RtY8/yvuWP6YJXlVu74zQb+6YFbfS9yYxGvry1i9mAVSWQAqRE9JEppGym/WD2DRSbXaV5T2gZw/0O3MrXLW9Ip/65fvYEff13Bv736YWgr9tenlfzXLfex6qFpHHgpxDS9IsOMAkgIlNI2ssIJGC7mzmfh2Haf+dI/27zOM4nUMPD6Sx8ybu2tPDv3qN50l6imlLZKaTtsU9r6l8W6G33kS3dJa+s6iGL6A7/m5wW2rJDXzmPN8/Osv587wqbNOyNcRnvqXfeBHBvY8Gk+b/kZV00kGiil7SCltLWnnb06MfIpbRPiDWFse7intA3ANpLuZ97u4O1pbXfU4z52cOurv2XTo+vYew46ayps6W7XhRQ8gvu+rcHj6poK7+l097bQkHANs2/0tq5IdFBK20FKaQuOtLNfmyOb0vbbv/2d1GTPbdv2OmxT2ibk/5B3nnP87ZrSNoCx8Yzq7hmSgdb9f98AeSx5Ppura/y1sfQz34nIMKCUtoOU0vaS5Vtr2tnvIp/SFqzpcr0bvilt+9MGMjs1EfB28R4cvr9vSC7IJpkePvmrvwZ65WOX6KeUtkHqb0pbgPauix7TIpHS1le63KAM15S2AVgzRA7NvgN93501FexiDj9f+ggtR7xUXwHhZK8UGW6U0jZISmk72CltA2ju4eIt8WTh73j4dv7rHpIn5pHOh7R6md/fcre++lv2rt7A3N+s4Py/bPeyDyMpCRY6mkPftshwoW68wVJK24intHVvAwmpSuvTBk7OvZWfLsvidbdu0y49rYC5z29grltPqNZX9/PJb+bx8+c3WCe49cKKRErbzzZXkPGbefz8+V+7ptuFvk4Zu9X+IVFM+UBCMHvZElaN/4oXfLwseP9D9/HTzg+5/4rISujopus9pe0wMHc+b90Cu596N8JphLG+MT5gWQmzWLf2VlI+DX7bF4/tiHQhRPpNQ5mEQClth5m977K72RjhbIUDn9LW/va8XiKUaKcqrJA0sGGjkWefmcm6GxvY0Ff9YEuR+pReCuu3adm8uTSVBB+z3au5Iv9WdwMbNg7gTcCNRfw06RwvbNQwJhL9VIUlMsxdbv2cy2ePDXUxRDyoCisI3/39W7772+WhLobEoMutn3O5eTiO6CUSI1VY4T59bFhu7X70+Pp/5XLr55EskohI1NMTSBAUPEREPCmAiIhIWBRAREQkLDHRBmI1jWefyeCzgXjpTPophcwCE4kAWGivr6V56MZJHDRxGbnkjDZTV9tM71AVIiWTAlOi7Y/Y+e79cz4fwdJWR23LkB2hYS2GnkCOsvtkIgtjMh91HGNzCyjIdB8OP4XMggJyM+KGpFQOHTTW1FBT0zRAmROtn9/j48e8FDJNiZibaqipqaGmJnLBIyVzOJxX4UnJNJFobrJ9JzWRCx4pmRTkjiU6vxXvYiiAWNPO7u7y/ib5la2X5rPtWBLTGOuUAykuI41ESztndHcVm+LjMGCmq2OoCzKcxBFnALO+lKDEXErbgUk7GwV6mrlgLsCUnkJzYweQwphUA+Ymp+qT+LHkZhvpG1ze3ERNo+0fKSWTgjSLU3VLCpkFaVgGqcojLiOXnFR7ydyrWuIYm5uD0VFwmmoa6cB6J9xXQ2MqoMBk20IQ1RIpmQWkXXJfzrovw4UarF9NgOqOEKqI7GU1N9m3PcDiDPjMchOg3L6Oh8v0xBwKUm2LOJ9L0HeuEVL1UBxjc8fD2QsYsu3fueNYOx+briT7cXcre8DjEY/B55fidp65fyZf56Hb/1VOgdF1fsDPnUJmQRJd9RbS7NuxtLtWfbp8LtdzyH4en2F837FxPcdcz2H/23b9zkaANStfe9fFsC/k/Vl/0PdtG8X1+rlAjI1F1NHaTlp2GmPjO+hItj591DmfRNlGLE011DpdGHMzeoa+/jd+LGM4Q02NtRxxGbnkjBtLh+0kj8sYj9HSRE2t579iR2MNHR4X/eD0XLJgGBkPPlso4hiba8LQVkdNSy/W7yyHzEu2/cSPJddkoL2+xvoPl5JJQXYmvV4uGimZBZgM7dTVhNIe4vSP73Ex88314g+mggJMztsIVG5/x6OllpoWX8E3EgwYs9Nor6+hpsf2vWWm0OH02RNNBdZj0thrnW+/afL3udxvnvpuNpxvRnKczjPrOeX4/7AFD2/nYU8ztTXNXm7CQpGIKdtMU43jfB6f0WHbdwqZSV3U1DRaF03JpMCUSUqH4zwzpOaQY26ipqbDerzSxhLXYS1HSqbzOewmwLkQEyltXcVwJrieZs605ZKTnokh0fXpw16d5QgoHTQ2JVGQlkJcyxA28gL0NNPodJfY22nGkmrA5dKemEQKHUHczQWv95IFbO+gOi6I8RgMFiy9QHwKiThXAXZwvi2NnKQU6OggLjkR2s447nA7ztOeloNtdp+UzAKMhvaQLywpmU53jYkmMlM6ggqQ9ou89UKDx11wwHIHczwCsV9Uw2BuctwBd3SZMaXFEee8b3NTX+Byno/fz2UvjzUo4/EUmEJSopmmGvvEXpovmB3/HyljMBrMNHm5iYkMC+319uPUS8c3Fox9NzcdNDY6LdrRhdmURlw8jqSdlnbqbB/I2/EyjPb+fx7oXIiJlLbufKWdjQW9LRcwF9gaCd3PdUvv0AYKn9yrBgCn5vbellqaRhb03UlHrNdMrwVLWhxxpJCEGctIewOShd4eIMWAwZDoVCXhWrT4kQYMztU4HiUHDEaMBrC0dQyb7z5wuf0fj0FncL0YurRfdDT2necpwRwPX+LjMJDoeFqzs1izj8aNNIDFPLhJlg2OwOlSVWstGM55US3fOJ1fPc3U1jjmdTTWEZeb03ceO1dvBToXYjKlrb+0s1e+HiwWsFzycqobXO/k4kY6Zz8fOimZORhxqt6JH0tutmtFtbWqCuzVSLlEIIj09GIxJBGfYsBw6TwXRo4hJd6CwWJxXCjc64vdBAxmlnbqzsL4bKeqryB1NDaR5FSFFcl2E3/lDuZ4DCrn4xFo0X7dXPhps7hkgdFhbjZcthu+uIxcTInOZbO2Twavl+baGprBdiwLyMRxLvr7zr4fTWllI7O+Le1sm5enj7nzeeuZ+3grovklokNvpxmLwciYvlpCWyP7BaeLo+1Oz173n+ixFVt34YJcl95eEdH3dBTH2HFG342/tgDpqpdeCyQmhdePN24kmDt76blkICndgMFelo4uzAYj4310V+3oMmNIHR/4u+hpprbJTKIp1O/N3v25Juj2j6C2Gky5AxyPnksWa7WIr/Xjx5Lb7y7k1m7ILnfXfgR9PLzp6cBsScTkqy94gHMBsD7RGhJJ6e//RvxYxqcaXJ+0nIKoS9VmqHp6XW4ZA31nMfQioY2/tLN7W2i4xUhWUnLsvSvS00xtPeRmu/VUsp+jHY00JTmqicxNTZhN7nc5trrZVAOGOAj6ttCtBwnZBRidentYG/9NFNgKZm5rx9LXCOylOsXc5NEgaL9bt28juDvRHiwWE8bR7dS1QC9mDNlGLG3n7VulsQYyC1wf8fuqADoaqSGTguwCHJVcPu5iOxqpG5lLTnYBiUP94lqAcvs/Hla9LWdoH+2oFgmlkT+QxBB70/UJ5Xh46KW5tg5yc/o+t+v+vZ0Lbtu2t0H27T/YfYO184Cj3M7VTL0tFzCnmvq+a0sYerUQAAASBklEQVRbO+bEYEOIWw8sPP/v/X1nMZEPxJn/tLPWVKNTu05w70tH+0bjfWTV/+z3fmNGSiYFJoPeaJYBEF5vuug3uF3mQxFTTyD2tLMvvOQZPGYvW8KqPAM0W4OHhMp+J6PhMERiRQwFEP9pZw+88abS0fZLB40e3bpE5EoWQwHkKI8/NdRlEJHwWXsLxZ7he3MWU2NhBeu7y71823pyqIshIjKsfW/ChAlBN6JnZ2dTX18f1o76s66IiAw/egIREZGwKICIiEhYFEBERCQsURpACinbUcGWEtepK7Z6ThMRkYERlQFkxdY1zGjbycptrtO37zxMxqJyyoqGplwiIrEk+gJIyRYWZ9ex8+HtnvMqSyne1cKMkjIKI7rTFeSUbiE5otsUEYluURZACikryqFu10q8hA+rbW9zmBncE9GqrO2c+ziD60rLyTAFXlpEJBZEVwApmkN+ch3V2/wtVMX+k93kTFkR0V337i3moz0t5JRUkDM1opsWEYlK0TWUSY6RhM52TgVYrKqphTV54ykEqoLZrqmMG0pmeOaDqdvJR284PescW8lHLWXcUFLBDWM28de9QW1dROSKFFUBpNCUAQSRSbCune5FRiYRZABpKuWvZaGVZfTMe0jeW0X4+RRFRKJbVAUQ65NFEAsG+aTSJ9gnkKlbuGVBDi175vHXY8FuXETkyhRVASTYJ4tCUwa0VQf39AHBPYFM3cItCzKo2zaPlqZgNywicuWKrkb0yv2c6MzhrlJ/nXQLmZOXQF21z35aYVhBzgI4Xlas4CEiYhNdAYQqSivrSJh1Dz77WJXcwwwO87bfnlqh2k5d2Uq1d4iIOImyAAJsW8nO+hwWb/USQorKKF+UweFtpcFXX4mISFiiL4AA2x/exOHUxZ5jYS2eQcuuYkorh6ZcIiKxRAmlREQkLFH5BCIiIkMvagJIdnb2UBdBREScRE0AERGR4UUBREREwqIAIiIiYVEAuZI9uIrKXcu4PdBi2zZTWVnGxjsGqiDeUxCLSHSLrrGw+iHp2RfJm+g6zXxkKyd+98XQFCiG2FMQz4vo6AAiMtRiJoCAAoYvL5es5uWB2rg9BfG8SI5NJiLDQUwFEJ+Wr2bm3RNpfedXnH4NYDLprzzMRI5S/YvXuLR8NTOvq6H6wmymTE8CXINR0rMvMu7CVuq4v2++Y1vByGXjrgeZ1Zd0vZHyohf6LuoPbttMcY593jcc2ljK2n1Yq6imtnEobSqzkr/hUHktBcVTSew8xvpFb/C+bY3J68t48mbrYPXmgy+z8Mla64w7lrF77VQSvezTWqZl8L8+JHXtXCZ5XeYO/lBpn+e2bcCRgnie7xTEIhK11AYC8Npmqo90kX73apKAkU/c7wge9mUmzmdK2gE+Lv4VH285CtPvJ/02xyYSpz/cN7/6SBfpty1nZFA7twWPC3spKlpt+3FcpG9fX0Zx2jHW2+atPwiz1q7iQfvqOVNJfW815XWjmVWcyt6ivZxKzuWn9vaM5KkUp39o3e7GY3DzMkdbx743WGibbvZattHMWnsrbRtXU1T0Moc6M5m7Ptep3HPJOPiyrcx7abn5Qf7woNPqQaUgFpFoFVMBJHH6w8wsf7HvZ+Jyx7xLv3uKk6cnMu6J5YydDqdfcwoeAF1HqX78z9bfPzjIha4kRmV5n3/pYC3mpNTgAsiD85iV3Eh5yT4vM+9gyc2jOfWe42ni/Sff4FBnJjfZL9Sdx3jTFm3MBys8q6I6j7Hevu19h6jpHE1BYa77Uj6dKrc97VDLf534hsR0W0PSHbMo4Bgv9D1x7OPNg98waapTS3yoib1EJKrEVBVWoDaQrsff5WL5fEYd2crpDwJvb1TGZMC6PfMXBx0B54PXOBHE+gC3jzNCZy2+S/UNbRG7Atfy5QUoiMSmJqWSmJzJk5VTedJ5ep3j16BTEItIVIqpAOLfZNJfmQ/vvMvFux9m4vLAbRgXW/rfIP/+2XaezPe3xGhSJwF9DygTSU32s7hfuUxIg5ZjtYEXDYZbW4u7oFMQi0hUiqkqLH/s7R7Nr/2Z0++c7msP8bls0mnag24kB0q2UFFRQYV7HpOXT3AqeSqr1nurVtrHJ3Uw6U7Huxy3r7+VSU7VViGxVZd9EokuV37LbVPXTneysa+RXUSuLDH1BGJtA3H8ba/SGvnEM0yZDqe32No9XnuH07c9TF75ak4Wb6YLIGkaU8qn2dY87Zjeb/v4xyL4Q+WDVPblMXH0dnq5ZDVs2+xUVdRIeZHvu34PyVPd1nVtoLf3zgIortxMsUdPq1DKDafKV/OP9pUr93OiZA13lRayvUwpvkSuNFGTD2RI84ksX83M29pce2VJcEq2ULEIds5bqa68IlcYVWHJwPKXglhEopoCiAw4XymIRSS6xVQbSNhe28zHoTSYi5sqSpeqDUTkSqMnEBERCUtMBBClwxURibyYCCAiIhJ5CiAiIhIWBRAREQmLAkjIVrClopyyIvdpW9CbDgOjsLTccwgYIGN9NU/vb2D5L0Pdoo6XSCQogISkkLIdi8k49BKllc7Tt/P2oQwW7yijcKiK5s1ty8l3Gr7e+uN7jK9B8+AqKiudcpr4mgZQsoU1s1rY+XCI77H/ch9P/9//IMPrzGF6vESijN4DCUFh6UPM4DCbvIzrVFVWzKStFTxUWkhVRMd9WkFO6RQulK2kM6z1Izlu12BbwZZFvjMatjw5hafD3PLAHS+R2KEnkKCt4J5ZcHhbKb4uN9t3HoZZ90S4amQ75z7O4LrScjJMkdzuZNJfeZGZrzhlTly+2inR1mTSX3mG9NvuYqLXpxfr+hOXW1P6Wuc/45Klsb8KS+8ip34nKz0yGv6O5fsbeHp/A0/vr2b+nU6z7vwPHtnfwNPFkyD5Zv65b7l93OS2lYE5XiKxQwEkWCVTyOk8wf5KP8tU7udEZw5TIjxkR+/eYj7a00JOSQU5UyO11S9o/cW7tCZNI+eJycBdTHTJCw+QxMSVs7m45Vd8XPwrTp6eSN6zd7lsJf1uaz546/wkJi64y31HYSpkTl4CddXenj2e4LU5WTw95//Q4D7rvZ/x+zlZPF1+CjoP8q9zsnh6ThZPz7mDT9yXHaDjJRIrVIUVpEJTBrRV+3z6sKriTNsa8k2FEGBJu7i55UybmeAxvWXPPOqOOU04tpKPWsq4oaSCG8Zs4q97g612mUhe+YuOP7ucc73/mdNbMshfeTfpTxhJP/2ux5Atre88Rastu2LX8dNwWwYjwTEq8el3+7I8ep0ftkkYk7tprwu8ZPhCP14i4qAAEqRJ13he5L059VU3i6+ZRLAXpN69xXy0N7SyjJ55D8l7q4JsEwnQBvLBa9Td/AxTprdzsvjPgTdny/VuDxCtx53WieSYYUXjGYyEuKEeLxFxUAAJ0qmvuuGawMtNuiaB7q+CT2Ie9BPI1C3csiCHlj3z+Osxj8XDt3w1UybXcvJILnmvLA+c86Srrf9PF6faMJPqOb2zzZEbvvIMLY/5zfUbEaEeLxFxUBtIkKqaWiB1fIBun4WMT4WWpuDvZnv3FvNR2TyPH8/gkUHdNrfp/WZr9/jgNbp+9zqnsbeH+F7W/MXBkALIiq0VVFRUuA7lvu88LWRyU1+f3Vw23pmJ+cQhp0yLp2jvTMCYE9oncqz+FV8nFzDtTn8L+T5eXsstIi70BBKsbdXULVrMPSVQ5dEryKZoDvnJdfzZ1/ywrCBnARwvKw6zG69bG0hfldZdTCyf79Tu8QWtH5xm4t0Pk//EVk78zrp0+t0vkn639Xd7CuD+28c/bhzD7rWbqSy2TarbS9GTtU7LVLH/5EOsKSqj0L3n2y/3WXtZ2WStbWDG2i4Ob5zCu+/ZJr73M/73T6r557UNzFgLcIo/uTek+zle26vrWJydQ4baR0R8iomUtpFKh1tYWs6avBNsWuq9K++KrRXc9dUmiq+I9womk/7Kw4z6wLlX1mBbwZaKxbBrnpeuvBHYur/jVVRG+WMzaBmgfYtcCVSFFYKqspc4zAweKvWsyCosLWdx6mFeuiKCx3CxnZW76shZFPlhR3wfr0LKdlRQoeAhEpACSEiqKF26k5ZZD3mMhXXPrBZ2+ngykX7YtpJNhzIinFPd3/GqonTpPObNU/AQCURVWCIiEhY9gYiISFgUQEREJCwKICIiEhYFEBERCYsCiIiIhEUBJGQxmtK2ZAsV3jL42fNvbPvd4JXll/u85vdwtmKrhiERGWgKICGJspS2dyxjd+VmKl1+vKSNDaSojPJFGX6TaXl153/wSIAL/UDZvvMwGYvcA72IRJLGwgpBdKa0baS86AVeDnv/hZSVzIBDm9yCps17P+P373mZPtQqSynO2UJFSRmFlXrBU2Qg6AkkaFdaStsgldzDDLwP0XLTNnu62AYeWe/8qW0pZ9fezNVM4h98pZ+NkIz11V7KAGx7m8PM4B5VZYkMCAWQYF1xKW2Ds2JKDt0n93sNmp+UWNPF/skjnYYt5ezGg3zNKf7Ul1bWabTcCMlYX80//7iVP83J4vdPuqe/rWL/yW5yplzRrVMiQ0ZVWEGK3pS2mRRXbsY+ajqdx1i/6A2nvBv+2PJlVA/PCiDT+mr+4cetnsO0O6lqamFNnjWPy/D8FCLRSwEkSNGb0rY/bSCTMCaHteIgmMSMHwOn/tNn8ACgrp3uRUaUtFYk8hRAgnTFprT16xTtnWAcrN2F5BR/mnOMG/b/Dx5ZX+ul+somx0hCZztKWisSeWoDCdKVmdI2kCrOtGHLyheG987QwSRu+KWP+UVllFdUeH+/JChP8NrGg/DjJ1nuYx/WqsczevoQGQAKIMHaVk1dcoAePbYUqdUDlNK2pSmc9a1tIOG+B7K9uo4Erz3LbD2t9jfwD5Pg6h8/6aUn1BO8Vn6KrGIfvbAq93OiE0i2VjGF5b2f8Xv7PjxeZixkTl4CddU+nk5EpF+UDyQEsZXS1q6Qsh1ryD85MJ9rxdYKFqce9vmd9kvJFiqK2gdm2yKiJ5BQxGZK2ypKtx0GjyyM/VSyhYqKAQwe4b49LyJBUyN6SKooXTqJLRUPUVZU5fRmti1F6rzouVg9uG0zxTm+5rr13BqIt7q3rWTeAKaMXbHYmtPc69vzIhIRqsISEZGwqApLRETCEhMBRE8fIiKRFxMBREREIk8BREREwqIAIiIiYYmhABIDaWdFRAZRDAWQYZp2VkQkSsVQALGmnd3Z5v1NchERCU1MBRAYqLSzIiKxJ+YCyEClnRURiTWxF0D6m+NCRESAmAwg1uyCCdeEnYFCRESI0QASatpZERHxFIMBJPS0syIi4in2AsiApJ0VEYk9MRdAViyeAYfeRlmyRUT6J6YyEtrTzm56WNVXIiL9FUMBJPrSzoqIDGcxFEC2s3LeUJdBROTKEXNtICIiEhmDFkD6m1ZWaWlFRIYXPYGIiEhYFEBERCQsCiAiIhKWQQ8gK7ZWsEVDqYuIRL1BDyDbdx4mY1E5ZUWDvWcREYmkwa/CqiyleFcLM0qUm1xEJJoNTRvItrc5zAzu8VqVtYItFRVUbFXSWRGR4WyIGtGr2H+ym5wpChIiItFqyIYyqWpqYU3eeArBbWyq7aycp7FyRUSGu6HrxlvXTneyESWWFRGJTkMXQHKMJHS2o8SyIiLRacgCSKEpA9rOeBla3daIvkO9tEREhrMhCiCFzMlLoK7aW1vHKdo7geR85uhdERGRYWtoAkjJPczgMG97zUtexZk2oPME+ysHuVwiIhK0we+FVVRG+aIMDj+30rP6qmQLFYtyoPMwm5Yqc6CIyHD2vQkTJnwX7MLZ2dn9zsuxYmsFU6rnsdLr04eIiESLQX8C2f6w8sqKiFwJNJy7iIiEJaQqLBERETs9gYiISFgUQEREJCwKICIiEpaQA8iKrRVUKF+HiEjMC7MRvZCyHWswVup9DhGRWBVmFZY1IVSGScMdiojEKrWBiIhIWBRAREQkLGEHkKqmFhLy5ihnh4hIjAr/CWTbSuZVGllTUUF5qcKIiEisCXswxcLSctZc82fmzVsZyfKIiEiU6FcbSPdXymguIhKr1IguIiJhUQAREZGwhBlACpmTl0BLk5LOiojEqpAb0VdsrWBxNta85RrGREQkZimhlIiIhEVtICIiEhYFEBERCcv/B1gDJoaj12D4AAAAAElFTkSuQmCC;" vertex="1" parent="1">
                    <mxGeometry x="78.00333333333347" y="1620.996666666667" width="400" height="593" as="geometry"/>
                </mxCell>
                <mxCell id="68" value="" style="shape=image;verticalLabelPosition=bottom;labelBackgroundColor=default;verticalAlign=top;aspect=fixed;imageAspect=0;image=data:image/png,iVBORw0KGgoAAAANSUhEUgAAAegAAADZCAYAAADrAaOwAAAgAElEQVR4nO3dfVhU17nw/68vqAgCQRSiUUQwJxrrC6lFjTkCedQ4MU3EQ1qV/kxOhxxJteYxKdbQI5JTYuUkXrHYwAn0pF5FTMJPTNN0TKRBbH0JpUWxRtMIAjGxIIq8DYqgef6YPTN7hgFmhrcB7891ecnM2nvtxbBn7ln3WnuvIZMnT/4GIYQQQriUof3dACGEEEK0JwFaCCGEcEESoIUQQggXJAFaCCGEcEESoIUQQggXJAFaCCGEcEEuH6C9Y3Q8nJhDwIR+akBsKrr9SYRbP780mxeOlLM9Y6eDFWpJ1aWi7WaztHt06HQ6dHu6W5MQQghX1O0A7R2jY9byduHLPhOSmJWYind3G+GoJTF8kL+LfPW/gzE8ar1dZBI5KwMoykikwJH6l2bzwpE85toszORAYQBRtoK+vWJTiZpaRq5Gg2ZDprO1CCGEcGHD+7sBXanP0nC8V2quJCdyN2kdloeTFDsPClNIzLdRfHgNbxx27sgFSdGE7NHxo8RwCpIcCv2Glk0IgIsfI6FZCCEGr64DdGgqDz8RbHrY+JcUzhwqYNTyHB76jofhyeB4Hv5OvOHnslyOZxlDh5bgxCgCjDubyiyfn5moU37SU5YRTdVlDL3r2HmMMezI2aSN1NvZth4Ru4p5FJFiI4DOzSjnyRDDz3Unknkjwfj77mTdkacJUh49eaScJwFooGjHbP6gCuiZuUUse2kVWgok0AohhGiniwCtJfiJAMoyNIagqXLzUDTHDxlS3IHXbAdG75jZXE3SUGasKzGK4NBMyoozKUvKpGxCErNifam0FXwvJ3ImCSVQ+7ZvWmgqD3fQtp6gnR2M/vMDNlPbp2KDOIUhUC+2KNnC3ogthhT31nEcjVjCqY4OkH+Ec7HxzI4FMnq27UIIIQY+O8agPRg/27nR0vosdeDN5GoZePg7PfKqEk7AI8E0/uVX3QjOgUSrx6AzlljUP2ksVF3uod64TQVcugYBExx/PULGeaCvKe2FNgkhhHAVXfSgMynLmMSsWGMKu4NUc0esUtAAjdecaaa1EDx8QF/dnQDa2Rh0CL59MHOttEZP1LgQsHMKWnhiDvFhHpQd1BAtvW4hhBjUuu5BX07kTJKG40ka/vaXAGbaO+t6QhKzngim6veGfY8naThb1u32KkrR1/VUXbbrr7X7W4jzHO0JFyRFo9FoKJmtIyexJzIRQgghXJVDl1ndrK5q91zLNT1j7o9glM099OiNu4SmMjPYqvjyJfQE4xfqSCsACqj7Qk/AE711iZbz6WcADl/iOiHMer6zjZxPo5fW6PEYF+Jc24QQQgwInae426WoDbOs1Z3Lm4d+Rdn98TxknIltnKl9OZHKMh0zY3UEA9QVUVYWzHiLA2RS9vvZPPyEjoAnzPVXXcZyljjGmd7mFPvNQ9H8jRzzcenZWdyZJWVErbQ1y9pypjYhCWw/kmA1m3sLe3NC2R5dzvZosDWLm8gIZniX8bGkqoUQQtgwZPLkyd/0dyNcUzhJ++OZ8XkK0U5cq9wV7R4dy2qcqzs8MYf4cR/LTUqEEGIQc/lbffafAhIziiDsRyRF9mzN4Yk5RI0t4ldOBv6Cy1UwdpLzdyITQgjh8iRAdyY/keiDVcyL7cZtOdvRsiqsitzVDt4+VC1jI7nX5hEv9+IWQohBS1LcQgghhAuSHrQQQgjhgoZPm2b7AqkHHphOVdWFPm6OEEL0jLUx/wXAvqz/7OeWCOGcoXmvDufd9UN4ss/XfBRCCCFER4YzdAi+U4az4YVbeP28jV/fMBfevHmz/1omhBA9QD7HxEBlHoN2H8H318mQtBBCCOEKLO4kNiJwKD/kDr/ur9a4mshDjJ5nvKVmA61/eIjWs/3aogHp2xHDeWmxGx7WBXduU/bnW7xwpD9aJXrPs/x451Ia313N28Xq51/lkV9GM17/KZ9s/QGO3E7/8U0fEFz2XX75YQ83VbgWj8lM9LzFleoqWvu7LS7A8lafI4cwtp8a0uPu2YZHhC8tuS/Q5lQFr+I2L4TWomm05vds04Y9cwG3xl9w88Dd8FVoCP++2I2m0zdJ/7tlyX3z3fje4hH8/Potfna6kypmxTDyqVDLSw6ai7n5WhY9co3g0k24z7rWc/Xd1Rbz7LaVjD3/Or8s7nprsx8yZ8dPGfOXafz5YPvSP/z5ryR9bz/PXrYO+ncBj8lM9BmBvqaUulvmp928QxjveYu6r79E319tGxGA/7h72t8zuu26BNkeYPm6tnxDj6wGORjMnMQwSns8OA9ko0Z54e//L7i7G2YU3rhRT3X1P7h5s6GTvYYAcOvGNxRYr2ZWdotba0fwg6dG8HO6CNJUcuuV3dzuzi/gYpx7PV3b3GfW8wB/5Z3fHLVR+jJ//vHLzlVc/AqJE95g54ptzC1+hVPdauUAo/+SOvfp+Hj5UHfVmHfwwdvTjZa60v4LzgC3qqj+2nIRJQ+/6fhwU4JzD7AI0Lcqez69PXT2fjyDzcnNW8Xf5WaFfWXupNPi+SKj/duXw2JGLHuRUabdL9Kc+wJtPMuoqJWMUJ4dHfWB8pOem0dWc+u6nQ0f79fJReKv4rYlGjfjw+ocmn+j/uD5IW4//ilu7sbHpbTsXM6dVX/DPcTL8JT/Txm95aft95/5W0Y9Pt987HZlfrTuPMVQ4/FvfMqNX/6g13t+np5+TJjwLYYONZ8y7u4+TJ78EF9/fQa93rmvdu/tu4X/+pEsXeHGxmutpF5yppZpDH8pDrfRykMbvesh39/OqPu9TI/bPt1Ma5W6Zx7IqG3GZdXUXwaW4LZtufmNYlG34bhDzmzmzpRdjAgAaKD1/e20nem8xc69no/yk93TuZB1jfkxc3EH0J/ity/v56/GTZ7awO6IyaY9vjoSz3+/ryr7zjV+exD+zbj/1x+zKeUTVf3LuM+4c6d1N3Iu67/4nyJ1+57lkenw+bvtA6jPc3/j0ZnK6/9VDgdSzO+XKfEXeMh40IgLrIow/Nh89hccekv1ifThQT4PfZFHVsCpdqnuZ/nxzpVMvHyQLbvftvHaDWz6hut4jvPDZ0QddbfAzduPkW3XuaKKzh5+0/EZaXzUqupx++A30Y82VQ/cw286nq3lVNf39AQ6H9xHtqKvsX8Aw5AJcDM/0aZKEzAKH/8gPIxvE1XP3M07hPGjmix66u2e85jMRB9zjGlrcuR39sFv4r2YXtKWf/L1VfPv1a7dVtt0/Pewn/nTobGFjL13HNu7C4YAXK0ETitT3rAsm/IGXqH7uVNvDqLDgl9kZNnrNBw/aqjrX7Zxq+IV7gBDZ69nVNNBGj62fjO+zc3ct7npZIp7iDqIAiO3KNeCqwLlsGfmcmfnNJoBU7COfFnpbSvBuSGH5l9a9RYOPEQznaW4X8Xt8fncLprGzXxz3aNWlam2DWHklvG0/mEazWcN5cMj6dWe/tChQ7nnnskWwcRcNhxf30Bu3LjOnTvOnT+pv2nFf8MIlq79hlv72vgfB4P0kO9r4PBmbpwBY9Ac8f1CWt65oJRvZ9T917n1ynarHngWLWeyOklxT2P4S8sZ+kUaN965YKp71HPV3Hgrz7TV8Pm7uPNFGjfeusCw53YxYv4S2s7k0ZHuvZ6TiYiBI5vieZ8Q/uPV5/i354r461ulwKP85P7zbNq0x7DpUxvYHbGBp97fgzFG4zGXH8R8adh/3mp+EbOQ/5j3Cf9TBE/FL2PsZ2+x6S0ba5TPW80vIu7hXFa8ISg/tYHdMRt4qkhV94rZTNSf5x0bKei6tx7iAEqg9rEsq0iZRkUXKW6Do5z+cj3fD34WGHxBuFO3qmhqMfaiUXrPloHJZ9h1rnytCl7jJtPax+lvN28/RrZc5aq9gchjspKmVzIBHpOZ6KmubzxcP8/Xt8AYrH2966iuv0nrjSbaPD3xGIES+EbhMcqNtpt1yuvig5/PCPQ15x0OjAAefl7c+Po8V411TbwXP486ruqBEQH4emKq28NvuuH1V4Jz9/8ehuMpHbU2/vT2bd670fkujnmWEcEe3Cq2FSAXM+JfpnK77KC5rOIFmqs9cJu82LxZ9UH0JYZU2Z0vz3Pbw9eyV+s/u4v1Mh33zYGHaN45jeaiUgw932mGx6oe8u3fLFd90L/MnWoYds8PDQ8j/w0391JafuN4Km/IqmW43fiUNlOwfZnWolKGTgxXEsUGrUXGyWpWx+7Us/x45wfstP63bRtzu9hz2LCRjBzp2WH5yJGeDBs2ssPyLt28w8/eukVJ23AiHhnSwUaBjNi2C3fjv+eWmEq+eWe3qsd6gdtfNTDUa4ryeAnD7/ei7VMn0uNLNbiNrqTtHeMNey7QdriYOwEzGKberuqQ6cvA7YpK8PKno98Cuvt6NnIuyxgUS/lbRSPuPoFK2Sf8t6k3DLx/nq+4B/95HexfVES5fgxeE82l7lPm8W0bR/323BD4bL+5x/z+R5zTT2baU+Zt5vr5Q/2lXk0/n7paDd6TbJyzb/PLLd8dlL1nI/3Vf9Iy0g8/P0Pvud70Sa+ku5vMAbu1/iv0bR64t5uZ2Zt88PYEfYO9vedR+Hh60FLXcdBqrf9SFVxvor/ZynA35eZat6poanFjpLvyeIQPI4frabLoIavKHaS/qm5XHTdaYNhwQ11u7p4Mb2tCr7RNf0MPw0comdvu/z08/Aw99+GVtXcIvHWbNyu63Mcx90xiGHpa6zve5Ha9rXEq+9wpWU2z5wemFPbtstdNwbzXWczuVtrTaPh/yD3j4cY5nM5FNFzqIl1dyh1Vb/n2b6bZGXje5pdbBsCHV4e/TCdj0LYmkRmHxWb5M5QGblfZ2M8ezde6/Fu2Vah6y4d3c+Nwx9v2Cp/xfBv4K/BUfAoRE9WFjZxTP9SX8jdTWrqU/3k53lT0fspb+L/6HD/YPZcfYJkev89nDO4Tn2P3bstDf6X6eYJ3H0SDy7XcfMSXCXB3jUMDUEd9kx/jPUFfYz0Bq5W2fh70NaTdm6h3orfaIVuT0FrMP+pv6PHx9MGtvgrcPaHpK4ugerVmFP7jgpReud6xCXVW6XHA9Bq3tt2C4ebeu4e7B7T8U1V3z/w9hv9/f7/N0RD4Z/frsnT9EreZ3ukmw7wXA8agupihnkCT/YdoO/5dDNNpnmVU1It4QO8H6Zm/ZZTV7O5hz1wwjUd/c/0KTOxw7655TWIImIL0kHvGg5Jk6R5ljM76af1feeeVzifd3L7dQktLE8OH2+7VtbQ0cft2i80yu4ways+fG8FsWvn17xwdTV+C21OhYEpDKylt4yjFmWruPBXS8e5dGT2Woai+NwSM7fYN7Hv89ay7wl+Bbz/3n0RM/JIjm4w97Ef5ye6FDrRMFbDnreYXMSn8BHOQvvHZW/zUVvpbcbleD719R8IJvozS13K5lw/jqlqV8dnWdkHQjeFugOn5UQzv6fRip3zapd17ok6/cfdAUzlfK71iN+8QxquHffUNtPj44TFiFIyClutW48uqSWxu3iGMnzgZ7AnSIwLw9/Ggpe68IaWNMm5vLG+9RRseeIybrlw+qqfua3XmoHt/D/3Vf+I+8V6G3ttr9yZ5m7ZqD0Z9Z5uND7SjtFXpGRa80vzNaMpKRnlcpMWpAHuRO9av+PVL3GYqw6fY3KGbGuCK8mPkIUb6q4ryT9HqPp+RqzpOO99pbGiXtgb45h/nuOM+n+Gm9adfZXiIF61ne2ISmJICtP7XRXAGuHPnDrW1ldy5036w4s6dNqXM+fkLG59xY/ao2xx+9zbvOzln5U6tkoaeFcMI1WQwyONOlRduS2M6TjtXXePO6BCGzbJ6/vA52ghk+PenKU9MY/isQO58oXMoXf74JsNwwo9XKG3tqddz3mr+7cExfPWFKq2tv2bq1T4Vr5rw5aiiKxZXdLz/xZe4P7ia/5jX4R6dpJ/t8WvqrsP4aa92ulXHaXRlCMeOIZvBx5B+HekZYOooGCeRmdPgSsBAGR+18d3Qw286EydOx8+JREj749njJq23YaS7MilBCYrWbrfdNJX7Wk/Koo76JvC45z5G3r7a6Vhza5ujXXtVL9hjssVr5uGlfHH4+rzyr306vPO/R1fquPr1eYa/88gwKo/0Tm6k7fh3aX74AzxNM6nNM7HvlKymif2qMsMsa/smdFnP4AaqD9JgEdzf5mbxbLxCP2BEqLl+u2dxd+TsD2j99gVGPn4Bt8eBG5/SWh2iGpN8mdadwBbVLG1lFrfxQ/2bA2/S+uOf4m49Ae3sD7jJbxn1+AXclA/CO6W/UCaM9S+9/hpffvm3Hr8s6Om1I1jqd5sT/3+bkzO482j74mFGzd/F8PkAlbR+0cBQVYy+/dZmbj23SzVLW5nFbUxFn8ni1oztjHpqF25PGeowpNPzaH0F3LbF4b5N2bbqkKmn3h3Ov55jmBGTwu4YwyN1Gvqvb50gYvcyU4r6xmen+GqivdkDqxncKD1m4wyw9/ewiQ3sVh0b1L114MMSvn5kpY1Z1oYJYOYLNqJZ9cvodrO5K1JymPRLpQwbs7hZzJzJHnxdbGuo5iKNesBjOnNC4dRddq20/up58JvO+In3GJ+h7mtjb7aOq3VeTPSZzkQfoOWf1LXci/UsCP0NPT4jPZRxVge+KSuB05nes7GnOHHivYY211zH0/grGFP6xnajR9/UavqiYWSYLHYPt5usxr7bpagNM6ntipHGSXnGHnLbdfQtHqYZ3YZZ9UEWE9rUKfTO/x72G/LII0E2O2ezZs2iouLvtoqEcMAQ3tw+ihGnb5Jl60Yl06Dk/a6ugRYGhpR1Q7vLm1zH3Gf28/3J57scNnHKijfYGVrbYd2Pb/qAf/U2D9n8UPvfAPw68yc93ZLBSRnvva1K6w4IIwLwHzeCpj6csW7rMjXD9d+Wl2J1V5+OUoi70Tf8b14rLy0ZxYtzrIputfH50VYJzoPIqd+kM2fbizz1zGJO2bxZiZNCt5H0iD+fv/tC++C84g12PjLVrvkUwhbztcYtAy04Mwqfewzp5r5r9ijchoFld9gH95HQ1tSz15UP9/KyPTI3deo4Knp6Zre4K/31eBvfP+7cDVfFQHOUt1+Zyo93rufZ0KM9dlvOxx/5Ntf+/F3b9X34AlvkHt3dcJO66vMO3Ru9/6luYNLyT9Mksr5xk7rr11Wzww0cuwmKfYasWjXDZop74cKFnDhxokcPJoQQfWVtzH8BsC/rP/u5JUI4R9aXFEIIIVzQ8KIi2xceT5rkSUdlQgjh6oqK/m9/N0GIbpEetBBCCOGCJEALIYQQLkgCtBBCCOGCej9Aj3uRzPV7yV6xuoMN5hO/di/Z65V/HW7XidhUdPuTCLf1vC4VbYc77mRKVjlhyr8HN3e8pasIT8whJ7Hdb+qYyCRydDp0uhySIrveXAghRN/r9xuVLFy0jjmcYU/66zh1UVdkEjkrAyh6bSMFDu7qlfw0/pXvUZiwxZkjd2xRNg+uH8elmCU4fxNM2wqSPmaVLp7U2AI2ZjhTQzhJsfOgMAVNkqOvmBBCiL7S+z3omtfRpq9jzYf7bRZP9RlNc+Vx54KzKdj8ikSH71etxd0Xqs/1cHDudZlsfK2IgJWdZQY6E4Kvt55zf5bgLIQQrqxXe9AxK/aiUe6+33w2De2xT622mM8Eb3D6Fjaxq5hHESmd9QTra7G9QN403Md0tJMW/7QEphjLG09yOm6NehlSRm4uYU6oeUWG6kNBVOzbyZSspzEubjU9q1z5qYGK9NlUHwNDWt28jWXdhuO6HwuidkY50wOt91XkJ/JxlI5lieFkSi9YCCEGpV4N0FkfriMLQ6C2HDVdzavrH8O0EuTMOLJnxgHNnD4QR0qNffVrZwej//xAx6ntslr01mOsi7J5cP0C80ouy8vxXw5QynklJT1y8/dgXxCFx8AYNEM2a/lsVyZgDM5XOB8z2yqFvYWKmC1UdJji1uKf9jQexckU7so01T0neadFmt1/eblhm4RMvJLLmb58J9XHLHv6mSVlREVGEE6Bw6l9IYQQrq+fxqD383L6fgwTxOK4v9JW77or4UwaC1UlDoanY2v4TNWT5VAQFfssN2nZtYRq06NM6i5sZMpY45rAO7k31IvqQ9bB2Q5rv8eUMaWcVwI9ZFK9LxK/9aF4gbm+yvdMXwYazpXCokmMBIsePGW16Ff6EgKOBejISQRQRYkLLGEphBCiY/0+Scx5Ifh691LV1r1sgEpj2SQ8aOBqpY397NFYYxlobbAYF9+3hMJ9NjbKv0TVSzOYFAnYFWy1pOqiCK4vIkXj+IQ6IYQQfWsAXwddSm19F5vkJxK9OtHBYLSTKesXQHEyhTFBFMYEcbpY1Vc+dql7y5qNGWda9BuAwHHtFk63i9ITvmR3TziTjRoNmgz4UaeXngkhhHAFAzhAF3DpGgRM6Pia4PDEHKev9dVXK2noRdmEqCaDwRZqK72YsjbbMtCqHbuEnhB811o9v6+YakKYZLreWov/ohCait91PF0e7ItHhxPgOpF/iSoCDD1vIYQQLqsXU9xWE8HuM0wEsz2b2zmZJWVErVyFlgIyu97cTlv4Z/FjzFFNHqsobsBzrHmLhoQgzieXM8c0S9s4i9tcR8WhUMJMdRhnYm+hIgamZCUQlpVg2LTyPWXCmGO6nCAnhBBiQBsyefJkm+tBR0VFkZub29ftcVA4SfvjmfF5CtF30+VGkUnkvOTLx5qNTnwx0ZKqW0bta9FOXDsuhBCirwzgFDdAAYkZRRD2o7volpVaUl+aR9VBZ4IzGMbuPfAN7uFmCSGE6FEDPEBjmAh2sIp5sTbuxT0IhScuI6AwxcnbfILxS03ASrkXtxBCuLIBnuIWQgghBqeB34MWQgghBqFeC9BTp07traqFEEKIQU960EIIIYQLkgAthBBCuCAJ0EIIIYQLGsCLZdyNtAQnRhEAgJ6yjGiqLquKJyQxK3YehmWsyzibtJGublcuhBDCNQ3eHvS4F8lc/wox/d2OHpVJWZKG40m5VNkqvpzImSQNxzOKaOzrpgkhhOhRgzdACyGEEAOY66a4p79Cdmg9ew7Dv6+axWiArz5izYf7lQ3mE782jjljlIemMstFOjTr96IBoJnTB+JIqYGFi9LY4PMnc13jXiRzlTcF6dvIAmJW7CW8Lo3/ZR0bZo4GoOLoOl4+j1L/dM4dqCfc2K7GM+zZ9zonuvylwgnY9CPI+RiPWGOqWp2K1hKcuAy9KnXtHaMj8FoKZw711L3GlXWhL+ai2dBzS4wIIYToWa7dgx4ziw2rvClIX8eaA2dovu9fiR9nKIpZEcec+o9Yk76ONelpnPZ+jMxF84H9vGzcnkp06euUbQzB2V6jZ8YZgnj6OvacbWZK6IssNJUGojG2K/0jKsbMYsV0e2v2IDh2GfoMDceTUiirCyZw+d1wk1IhhBCOcO0ATTOnDxh6tdQc54vG0fj4Aaxmxn2V6Ey96U9JKa5kdODDqiDaTY1n2KPUf+IfpTSP8cZ86xVVu9jPua9g/Nj5dldd9XtjD7mAui/0jBkb0lOttkMmGzUa6T0LIYSLc90UN0BjKcdMvd5PSdmnrCM9bgLjCWSKKX1t3P5Mjx26ufK4OWVd8zra9B6rWgghhOiSawfoTlWiSzf2YoUQQojBxcVT3B2oOc4XjYFoVqzuZJvLXCGQGR2NDXtPUNLhq3nVONnLJXjgYZg9xqjlOczs8XWbtaTqdOj23x3LcwohxEA1QHvQn5KyD+LXxpG9/jHTs81n09AeU9Lg7Oflo9PJXryX7MWgnsV94theFgXGsWH9XjbQzOmjZ2he7N0fv4iVTMp+P5uHn9AR8ARQlsvZsigCjcWhqTz8hCpix+oIVt2wZNTyHB76joepeGaijvY3LCmlth6CvWcQEQkF+X3xewkhhHBUr60HPXXqVC5evOj0/qL3aPfoiBpbRMrqRHrq4i0hhBA9a4D2oIVTYlPRrQyGegnOQgjh6iRA300yNqLJ6O9GCCGEsMfAnCQmhBBCDHISoIUQQggX1GsBWiaICSGEEM6THrQQQgjhgiRACyGEEC5IArQQQgjhgno1QGv36NDpdOj2aHvzMEIIIcSg06sBOnODBo0mhaKxUaTG9uaRhBBCiMGlD1LcBRz5XE/ABFmaQQghhLCXjEELIYQQLkgCtBBCCOGC+iRAF1yuwuOBCFl/WAghhLBT3/SgMzaiyfclXqcjJ1HCtBBCCNGVPlnNKjwxh/hxH6PRbOyLwwkhhBADXp+NQetrSvvqUEIIIcSAJ5PEhBBCCBckAVoIIYRwQX0QoMOJeMCDqssFvX8oIYQQYpDo1Uli2j06oqYC9UWkZPTmkYQQQojBpVcDdOYGDZm9eQAhhBBikJIxaCGEEMIFSYAWQgghXJAEaCGEEMIFSYAWQgghXJAEaCGEEMIF9X6AHvcimev3kr1idQcbzCd+7V6y1yv/OtyuE7Gp6PYntVstKyC5hO1Hyln3vONVdmwJb+UnsWNJT9bpasJJ2q8jNdbyWe2e9s/ZLTKJHJ0OnU6HTpeK1vqIiTlKmQ7dHutSOyzN5oUj5WzP2OlkA/vaNHYc3MUHydPs2jo8Mafd6xKemDP4Fp9ZEsMH+bvIz99Ffv4m4nrtQLbOcS2pNs5N1zeJXZtjyIrwBv9vkbU5hl3f6mDTby3moPZbPKJ66pGIJzi4eTHPAM+simlX3q33vVFsaofvfdGxfu9BL1y0jjmcYU/6Otakr2PNh/sdqyAyiZyVARRlJOLQrVCez2P7+9kEOHa03hW3ifx8yw/tR5OTyM/ouW8DcRldBwXtnnjmXctlo9W165m5RQSszCEp0tGjhpMUO4+qgxo0Gg25F4NZpg4skUn8KKyKXI0GjSaXsqnLnDhGJ5Zm88KRPOb2YJV9KjaV+LAqcjdYXrRYkPQxVWHx3f/wdEbcJvIPxvCoxZMdf+mw57wDIC+L70ZuJnJHMU091aekWnQAAByuSURBVFYbbJ/jmRwoDCDKxpf9QcH/W2Qt8eJvv/87f3ZgN+ff90ZaUlcGU3ZQg0azUS69dUDvB+ia19F2Enin+oymufI4J5yq3PDBT+GvSMxvX1qVMJvtEUHsfdOpyvtHfSPMCLP64OtDsalETS1rFwwAyE8k+mAV82Id/QALwddbT22Z+RmPcSHmB8G+eNTXYl5OxQPfYAfbfXgNb0QEsT12i4M7ujrjh5utD7ZMNr5WRMBKV+mVXOCP5xrxbHf+LmFucCOfFVzop3ZZ6eQcL0iKJvfaPH40oDITDdQ2wJWr9VBdxxXqqb1ivY03P3tiNpz6Ez+vtiz589UGaKilDCirrYfrdZYB3On3vSJyEgGUUSI3q3JYr96oJGbFXjT3GX5uPpuG9tinVlvMZ4I3UOfkAWJXMY8iUpKs+847WXfkaYIAaKBox2z+cFgpWprNC1sX4ANACOuPlCsFpfwuYgmn7D12SAwfbA3FE6C+mOSVWXxiLIvbRH50oGnT0pzNPJdmfDSNHQfjCPM2Pq4kJ3I3pmIu8NnVUL4Xl8Un5ifNLOpupHBHIlvzVPWiaouybWnOZt69L4mEBWMMuwXHkW/8QlN2iMjYPOVBOEmRhm+6HX7LzThAUWQ8q2KhwO43XCYlF6OIitIS/sgyoqbqKXpNdYSMEspWRrEqNpyIyCiCHbzz3NyMcp5U4n3diWTeSDDWrT4P4Mkj5TwJtDsnOjSNHQdj4M1jjN26HMMhrP5eHf49DB5NVr3u7f7Wakt4K385IVbbhCcuI/hiLpqOXo/8RD6O0rEsMZzMdu+DTixRnb8mqmN39HtZ7BdIQn4oCep9Cy6wacE0/s8S+MT4OsTNIKT+Au+aHnf2/uiM4Rwfe9i8/aPJSSSMP6Y6h42vo0HTyTS+m6D+YtD1OZ6ZW8Syl1ahpWCA9Pbq+XlmlvLzJTbvutR+k2/N4SFK2HWkvn3Z34+y8u/Kz0d+b7t37dT7XnRXr/agsz40pK11X1mXrObV9XvJXh/HnDEwemacMgadRvw4++vXzg5G//kRG6ntLeyNCGJ7xHuUWxcZe1o5pVB/kvSIILZHBLHdkeDMGMKix3IocjORkYco9Q7le6bBsiW8FXqOyMjNhn85lYREm8fSHk2OIezqIXO5jQ/sP75XTECojbT2khg+iPalcIex7lrCthrrvsDWlYa2bEqeZmiHEpyfS4NPEhKJjNxMTpnhQ8t0/FhVNImMYIZ3V990CzjyuZ7g2Y712TJzi9BPjSL+gXOkaKKtMh6ZHCjUE7wynhmfp6BZ7dhwxalYw9/wd+1WNFXOgx0nqaOU35n+1vYEZ6MxhG1dxDXlNc8pCyTaOOTQ6d8DiNtEwoJacpTXOvmkL9Ht0sJgDCoBJ9OszgfDfezLSjoPE5klZXg8EOFA72YaO54PBeN5kFOJIQgrx+7s9zKmoHMqDV9Mrc/jvEI+qx/Dg+HmdHZcaCBN5wqVL7Cdvz+6Zxo7DhpfR8N7s2pBHG+pK7fnHM8/wrn6YGb3x9BBL3nm/knoy750KLVtybn3veiefhqD3s/L6etYk57G6UZD73pN+jrWpMeRUmNvHeFMGks/LcKh+jAjj1NlEHCf8QMpj+fUQS/tHKX4Mlkdb4NndP6BlFfIZ36L2k1EezR8GpzMMvfQ0nQU1gcy11RZHs/tKIYFGnYkLyKk7JCdPRNju6xTzbYVXK6CsZPsDwiRSeS8NI+qi2Xg7Wvo3agm9oUn5hAfVkXZRXPqW7tH5zIToEpzzL3itOJK8PPnUbr+e8SFBlKaYw64nyQco9Tb0Ls0CzMFZ8ueHtgaGrCprBa98XW1x5IwHvRWpZzTzlHKGMYqFXR9nnXGOs1tnd624/3hrCVhPEgxuxPMx3r3ZCMh6i+7dp3jBVy6BgET7D//LCY5qv4Z5wdo97Qv0+mUcV2LCZS67k2WtMmb++5RUuDd4PD73sjOzxXRXq+muHtXCL7eXW/VH+IydhFtMYbayDXlp08SErk/YxfR+buIxlYKDuACWw/X8kH4NP6oevb+8WPwVKenFRYnfl4Wu8OTlJ5bHo4InxAA1Ha9YVkt+pWGgGDP1yNt1DwoTGFjUoFhAZU9WkprAuBaCQVoSQ2Dotc2kpivJVUXRWpsKbVjoarERVdA8x7L/QCd/j2mMdkPQqJ3kR+tLjWfCwCeC0IJoZFCW+OzkZOw6y+Sf4mql2YwKRKwMRejnbxqqraGGnq5eRcMKWgqyVG+Sdh1nnXiE3WaO8QqvU3n749uCRmLp7c67a5QfcGx9xwvrdETNc7eM9wwdt3Zlp2vS5BItD1/N6d54evVA9U4+L43fjH3uJiLZvXAGCxwNQM4QJdSWw++/d0MK48mJxEdrB5HXMJb+YsstkmL3awqi+ODZBtBOu0cVfka/s9Jy6dtB3SVuE0kzLhAzslpRB+M4Qv12HgXCi5XEf+AHRs69I1YyXQowTZzQwqT9scTPxXKDmZCZBIBVFGSD4ZJT5PIeSmeYMrIddWxrvprfAHcT9d/j67GV5tOprGbGBK2biIuz2q4Qwm8XYqcpHoN7VHBtXoIWWAOwqU5my2O3eV51pm8Qj573vAFIG58IE3ndKZz0J73R7dYzwexYu85HjLOA32N/X0+QxbIo93zZQc1bMxQrexnQU/Ra9EkogQy6+KLuWhsTdZ0mGESWbc/Kx3tCecrXzyUbFmKg0NXwgUus3Ke42koC6U11Hk/yENLOyg3pp2cueRC+QAHiMtY3knq0fBBaVse75705UHV53NacSWeC2I6uQZbGXc+nEVaQhaFGMejzb64YmuWrcLOVGn4hAC4dsnevgWXrkFwpPF1NIxlmeRfogrVZVf5RzjXvUxce4cvcZ0QZnV4PbzhmlhTyrFDhtfXOJ7a+d/DkOq1Z3z1k4REw9h2u/HpUmrr7ZjR3tEHZ0fncJzGMJnQNH5s+SWi6/MMKL1GU7t0vZExzR3Dcluzt+1+f9hmGk6K26SagIchXe7d/py3YNc57vjwWUFSNBqNpt0/42VcmRval2mMczHyE4m2sW/PBGeAer66DuP9updydOx9r+LoEIww6cUAbZwIZpjJbZwIlrlofo8dIbOkDI+wVe0vMXk+j+1Hytl+5GmC8GLe1nK2HynhcXUwPryGd06glJWzvYeukzWMM4aSoNxsYfmVYtUHp+E60XzTjRjiCLt6qMOeyicFF8Bb/QG0W5mwo67DGACU2aumcecLbD1cieeCOIvrTz9RArexfRbXWCuTY5Z1OvZr38QltcwNKRQxj3hlbC3+gXPkFuoJXqkjNdZwqRBh8crYWzwzPs+lqD6YKLtuarCTdUcMf8MnQ8BnYQLbj5TzQrJ6zy3szSklKNr4t7Y6F7oQEm18ra3Gijv9exgCb/JJX6LzVeU2J4lBWmya8ndR3wRHmZgT2fmXxI4nS3YgTWd5Dij/TJOpuvi9AMNQyklU21iWf1JwgSbvMXjWX+CPqvR25+8P5br//F3kbw3Fk0DltVNNhHyzGBbEGbZZeo2ck43qRvGcMjHM5u8F9p3jdk2WHFh+88UlPObO4Rmna3D8fS+6b8jkyZO/sVUQFRVFbm5uX7fHQeEk7TfM/I125BIT0bHYVHQrIbejGwrEpqKLrL1L0lXtL+vpe4ZxeQ5q2t04BlDG+Xz52JEbQMRtIn/pNRuXBtLJZWCDSBfnuHaPjmU1g+0zxZufaZ/ggbLfE2PrUquudOd978w5KoABneIGKCAxowjCftSzd566m2VsJPdiMFG2ZpA6e9c20Q2ZbDxYRrDNm5FoSX1pHlU2b2LSsUfvaz8aGRcaaJF6HtQ6OcfDE3OIGlvErwZVcAao5+e/L4G5/8rP/B3ctbvv+/xLVBFgmMQoHDLAAzTdv8uNaCdzQwpFY6Pa34s7ah5VB62vYRa9LmMjKYUB7QJKeOIyAgpTbPesO9FumCN/F9F+nU+uGmxsn+NaVoVVkTtYs0PVfycmr4GHnrC813ZXuv++z2TjwSrmvST34nbUAE9xCyGEEIPTwO9BCyGEEINQrwXoqVPbXfQnhBBCCDtJD1oIIYRwQRKghRBCCBckAVoIIYRwQRKgBxTzXbNs3g1raTYvHOnZO6MJs/DEnA5WGNLin1ZOWJbyL3lnn7etP8zNcPyubGB4HV1lpTIhXNkAXiyjC+NeJHOVNwXp28jqeuu+9Xwe26ONd6ZtoGiHvesTb2FvxBYMgfqx9sWH1/DGYQyBeqv1wtpaHn8/gXlWt+Mtzwli75uO/gJ3odhU4sOqyNW0vyXIyM0bmcJJTsesoaVHD6rFPy0B92NBVOzr0Yp7meFc8zts+9wqSPqYVbp4UmMLHL6GW4i7yeAN0C4qILmE9QuhaEeQEpS1PJ6RTcDhNVT1wfElIDtDS+rKYMoO2l4ycORYL5ou5PdwcHZ9p2KDOOXUnsZVy1LRZsjtH4XoiOsG6OmvkB1az57D8O+rZjEa4KuPWPPhfmWD+cSvjWOOcS0JU9lqXl3/GFOUpzXr96IBoJnTB+JIqYGFi9LY4PMnc11Wve2YFXsJr0vjf1nHhpmjAag4uo6Xz6PUP51zB+oJN7ar8Qx79r3OiS5/qZ0sW+hFeU6QqsecyR9iMy22WXfkaYKMD0vfY3vsFodeOmfMzSjnyZBSfhexxPChuzSbF7YugBPJvJGQSUByCd8nlaPjE3hS6fyrg/3cjHIWX0nmHTayfqFXu/LOPJqcxCayODQ+zrROsOUyjYZ7YocZe/8WSwqa75d9KtS4znAjhTsS2WpcpCFuE/nRgabjWS+l+GhykmpVpMp296MOT1xG8MVcNDZ7e1rcfaGjBY1Hbi5hTqhxMd4GKtJnU31MtcHaPMKWm9f5aSpO5rNdmXgllzPd2OTl5fgvtywHLLexqtsruZxJ15IpZaPp+NWHeqgnrpwbPgCozhmM55HyILqc7cpa2HXKeWSSn8jHUTqWJYaTaeO2moblGcs6vie8EHcB1x6DHjOLDau8KUhfx5oDZ2i+71+JVzK3MSvimFP/EWvS17EmPY3T3o8pK2Xt52Xj9lSiS1+nbGMIzvYaPTPOEMTT17HnbDNTQl9koak0EI2xXekfUTFmFium21Hp86EEUcqZToLW3IxQzkQEsT0iiO0R71Ee8jTrOlwmseecik2mqD6EJzN2Aloef94cnI18Fiaw+EqyoW05pQRFW45z+yxMYP34j9geEUT6iQaClmYTYOfxPRfEsfxKmmH5w5xKi2UaH03WwJvGpRHTbC6jGRK9y7R/TtkYwp42Lgm1hLeifSncYV5a0WL1sLhNJCyoJUcpSz7pa7XsY0er+OxkSlY5YVkJTBkDnqEJyhh0Cf7G5Y0XZXMvqRTGBFEYE8TpYpiyNpuRxirW5hG2fDwV6UGmbYzBtyEhiMKYZCoaDYHVunzk5hKm+57ktLru9Xl4qVroGZrAnLEfKeUN+C9SHbs7Dq/hjYggtu84SZ1V0anYILZHJFNUb/iCtl05ly2CsyKzpAyPByLkFr1CdMC1AzTNnD6gjCHXHOeLxtH4+AGsZsZ9lehMvelPSSmuZHTgw6og2k2NZ9ij1H/iH6U0j/HGfOsVVbvYz7mvYPzYnllG81TsElXacAtnSuGeiT1391rzkovWE3wy+cNT71Ee8hiPJ3+PeZzkHesP1dL3zB+0bxZTzngmqCcI1Z8kXentVx39jDrvcdxrb8PKVMtupp2jFF8mKzH2k4Td5t6wca3h8VM63D+tuBL8/FVBdgwPhtteIzguNJDSHHOP2bAconqd4xB8vfXUllnvuYWKGHMQbSpOVoKoqod8bA0Vu8yvYctfPqNpzDglSGrxXxRCU3GqZY/aLju5N9SL6mPmMe+WXalUNIbgu1a1WeNJTidssXFsF9HJOsGG9ZOl9yzubq6b4gZoLOWYqdf7KSn7PjX8OG4C4wlkiil9bdz+TI8durnyuDllXfM62vQeq7pzFhPIDOqu9Fz1naedt7A3J5Tt0eMp2rHEjjFxL/xCACVdX/dZvnkf44Q1p41hbAiQByyJ4YOtoXiqi60CZmmxatHhtN1EmnLUeTy3w58PtsaRnw+WKexpTPZT1nuOVtfWaM5YR04iAKh16ncwTPKaMkb9nHH142m4jwF9tbMhqIEblZ1vYTEufmwNnzn8RaCX5V+i6qUZhlWOZAEWIdpx7QDdqUp0rjhDuzOlNdSxgFnPwylbQXJpNi9Eh7Qf2+2r9i3N5oVo+F3OFZ7cmsflw0u6mATUwNXSTjfohkaulQIs4a2toXAyjUilh/xochIJ4x2oKi+L7+ZlmffN3wSqcWbL8W4rShBxhldyguXs7kXZPLjeOLv+Ajcawd2pmgG8cA8ETEHXEPAHlMhJBFBFiQRnIWxy8RR3B2qO80VjIJoVqzvZ5jJXCGRGR2PD3hOUdPhqXjVO9upth9dwtBSrsVtlFrfpsSroPZ9nnnDT64zjzu9y6s0l/K7UOB5t29yMpwmq/4y/OdJLjk1Fp9N1cC2xWVzGckLqL/BHVae46isl/b0khk0LnI9En3yl7gsb0uXq8e72Sqmt98A32MkD1l5SerFa/NcuUGUBMqm70ID/cstxY0uZ3KgF/xnWf4ct1FZiMaY8cvNj+Dee5J+OTAKz8+/huEwu10DQ3C6uBw/2xaO+Flvf8bR7dOh0ObLOu7irDdAe9Kek7IP4tXFkrzdfD9x8Ng3tMSUNzn5ePjqd7MV7yV4M6lncJ47tZVFgHBvW72UDzZw+eobmxd62DtTjTsUGQUY5Tx4p50nAeB10FRgCeHQ5T24tZ95WoP4kRaUhmEZPrdLfQVvLmbfVfB214RIu88e94RiWs2yDVDNrwZjyVq6R5iTpyhjzqZyTLN76NNszMM8iD3ma7UeeNvxcf5L0p3rw0rDg5eTnK1OVLWZp5/HuyUUkmNLQlRSebCTM3h601Qxu4wxv85hzIiQnkZC/C9PLYnH8Ao58/iPiI5MId3DB+oZDJ2la/zRhWYbXrLr4JE2h5uvTW3bN5vTmEuZklZueU8/SBmhIeI/qLHMdxvKGhCDOJ5er9i3lvKPXYWeUULYymOCxkwgHu383e86zU7HvMeuI+XxpN4sb0M4ORv/5AZvHLa3Rw1QPZjwSDvmDcnVmIbrUa+tBT506lYsXLzq9v3AtAcklhhnavXDJlyFlfYzI2LyuN+4XWlJ1UXBQM8hurBFO0v545l3LRbOhj6djRSaR85IvH3c0ESw2Fd3KAIpeiyZRUuDiLjUwU9xC9KlMNh4sI3hlKj2dDO4v4Yk56HT9FJzRkvrSPKoO2grOWlJ1OgnOQjBgU9xC9LGMjaRMyCF+j5bMPg9oPa8gKdqhdH1PCk9cRkBhCtE2sxGZbLRxO1Uh7kaS4hZCCCFckKS4hRBCCBfUawFaes9CCCGE86QHLYQQQrggCdBCCCGEC5IALYQQQrigXg3Qhtv19catBIUQQojBrVcDtGHJuBSKxkaRGtubRxJCCCEGlz5IcRdw5HM9ARNkWXYhhBDCXjIGLYQQQrggCdBCCCGEC+qTAF1wuQqPByKQJLcQQghhn77pQWdsRJPvS7xOR06ihGkhhBCiK32ymlV4Yg7x4z5Go9nYF4cTQgghBrw+G4PW15T21aGEEEKIAU8miQkhhBAuSAK0EEII4YL6IECHE/GAB1WXC3r/UEIIIcQg0auTxLR7dERNBeqLSMnozSMJIYQQg0uvBujMDRoye/MAQgghxCAlY9BCCCGEC5IALYQQQrggCdBCCCGEC5IALYQQQrggCdBCCCGEC5IALYQQQrggCdBCCCGEC5IALYQQQrggCdBCCCGEC5IALYQQQrggCdBCCCGEC5IALYQQQrggCdBCCCGEC5IALYQQQrggCdBCCCGEC5IALYQQQrggCdBCCCGEC5IALYQQQrggCdBCCCGEC5IALYQQQrggCdBCCCGEC5IALYQQQrggCdBCCCGEC5IALYQQQrig4f3dgIFs5OYS5oR6KY9KOR+zhIb+bJAQQohBw7V70NNfIXvtiyzs73bYsiibkFCoSA+iMCaIwh4Lzlr808qZsrZHKhNCCDFAuXaAdmWB4/Bs/Iy6Y/3dECGEEINRL6a45xO/Ng6f4nWcC96L5j6AZk4fiCOlRtlk+itkLw5UHqjKxr1I5qpZjFZKNqzfywYAKtGlbyNLVffL5w3bLFyUxgafP7Hmw/3K/t4UpJ9nxvrHmALQeIY9+17nhLLtv7OXAp84pV1QcdRclz1G+o8HamwXrs0jbHmI6WH1oSAq9nVc3lSczGe7MvFKLme68eVYXo7/cstysE6rW9W9No+wRTWc3gch6xfgCVD5HoUJW1QH15KqiyL4Yi6aDZn2/8JCCCH6VK+PQU9ZvJfxZ9NY8+GnxKzYiyZsNRiD6OJxnD6wzhCUp79C9qpXiEnfRlbN62jTledC602B1TGBaNYb6l9Ts5pX1z/GiulwQgnCo2fGEa60a+GiNDaEvsjC810fxyKIsoA5WeWAOojuZMqMYgpjlhg2WZtH2PI8avcpKfC1eYQtH09FehDVVr3vhoQgCtHin5aA+zGroK7sOyf0CudjZqvqKuFG5WxzXWMWMGd9KedjgmhYlM2D6x/Df9GWdscSQgjh2no/xf3VR2iPfQpAVlkleE9gIbDwX0Lg7F5zb/q8jtONgcyY3nOHrjhq7K3v59xXMH7sfJvtOvGPUprHeDPVjjobEgxjzqeLG6DxJKdjDI+NPVzYQoW6x7qvmGrG474IQIv/ohCailOdCJjGfd81j3XvW8L5Si/8vqNVt5CKdOXLwLF8rjZ64R6orieTjRqN9J6FEMLF9XoPuqJsv/nB+W2sUXqwMT6jGX1fHNkz4yy377EjV3JOlbLO+nAdWT1Wd+cse9kADcrvNQ33MaCvdj44drmvxbh4JtVxEoiFEGIg6tfLrJrPppl6sYPFyM0lTA9UX3K1kylZjymlF7jRCO7dqN/DXwsYg64Wd1/gWjcqFEII4ZL6bRZ3Vlklo2euI35cJxtdrad5TAiLOtjGlLKe/gobZo62vVF/aKyhRfnRK/lp/E0FmdRdaMB/eR5etvcEMrlRC/4zdrZ7vu5CA56h3zPvu/Z7TBlTyqVdjvSStaTqdOj2JxHuwF5CCCH6Vv/1oM9vYw2vkL1qL9mmJ42ztBU1r/O/Z9PYYNrGWP4pKYcfJnOVkiJvPIPubDMan77/Nay17PqI6qynVZPHTlId+KCqfDanN5eYyg3bJKvGsKEh4T2qs54mLOtpi/L2+zZQkT7bweuvS6mth2DvGUREQkG+k7+oEEKIXjVk8uTJ39gqiIqKIjc3t6/bI/qAdo+OqLFFpKxOpKC/GyOEEMImudXn3SQ2Fd3KYKiX4CyEEK5OAvTdJGMjmoz+boQQQgh7yK0+hRBCCBckAVoIIYRwQR1OEhNCCCFE/5EetBBCCOGCJEALIYQQLkgCtBBCCOGCugjQym0hdTpSY/umQUIIIYSwd5JYZBI5L/nysWYjsjaSEEII0fvsS3HnH+FcfQCTInu5NUIIIYQAZAxaCCGEcEkSoIUQQggXZGeALuDSNQ9mPCIrCAshhBB9we4edOYGDR+Pi0enyyFJxqKFEEKIXmXnalbhJO2Pxzdfg2ZD7zZICCGEEA6NQeupLeu9hgghhBDCTCaJCSGEEC5IArQQQgjhguwL0JERzPCu4lJ+L7dGCCGEEECXk8S0pOqiCAb0hSlym08hhBCij9h3L24hhBBC9CkZgxZCCCFckARoIYQQwgVJgBZCCCFckARoIYQQwgVJgBZCCCFckARoIYQQwgX9P2qVfVQ9Xi4+AAAAAElFTkSuQmCC;" vertex="1" parent="1">
                    <mxGeometry x="628" y="1737" width="488" height="217" as="geometry"/>
                </mxCell>
                <mxCell id="70" style="edgeStyle=none;html=1;" edge="1" source="71" target="73" parent="1">
                    <mxGeometry relative="1" as="geometry"/>
                </mxCell>
                <mxCell id="71" value="1" style="rounded=0;whiteSpace=wrap;html=1;" vertex="1" parent="1">
                    <mxGeometry x="1375" y="1746" width="69" height="39" as="geometry"/>
                </mxCell>
                <mxCell id="72" style="edgeStyle=none;html=1;entryX=0;entryY=0.5;entryDx=0;entryDy=0;" edge="1" source="73" target="74" parent="1">
                    <mxGeometry relative="1" as="geometry"/>
                </mxCell>
                <mxCell id="73" value="+" style="rounded=0;whiteSpace=wrap;html=1;" vertex="1" parent="1">
                    <mxGeometry x="1492" y="1746" width="69" height="39" as="geometry"/>
                </mxCell>
                <mxCell id="74" value="2" style="rounded=0;whiteSpace=wrap;html=1;" vertex="1" parent="1">
                    <mxGeometry x="1606" y="1746" width="69" height="39" as="geometry"/>
                </mxCell>
                <mxCell id="75" value="&lt;div style=&quot;color: rgb(212, 212, 212); background-color: rgb(30, 30, 30); font-family: Consolas, &amp;quot;Courier New&amp;quot;, monospace; font-size: 14px; line-height: 19px;&quot;&gt;&lt;span style=&quot;color: #9cdcfe;&quot;&gt;stackPutBacks&lt;/span&gt;&lt;/div&gt;" style="text;html=1;align=center;verticalAlign=middle;resizable=0;points=[];autosize=1;strokeColor=none;fillColor=none;" vertex="1" parent="1">
                    <mxGeometry x="1246" y="1857" width="118" height="31" as="geometry"/>
                </mxCell>
                <mxCell id="76" value="" style="endArrow=classic;html=1;dashed=1;" edge="1" parent="1">
                    <mxGeometry width="50" height="50" relative="1" as="geometry">
                        <mxPoint x="1526.2599999999995" y="1707.9999999999995" as="sourcePoint"/>
                        <mxPoint x="1526.2599999999995" y="1746" as="targetPoint"/>
                    </mxGeometry>
                </mxCell>
                <mxCell id="77" value="&lt;div style=&quot;color: rgb(212, 212, 212); background-color: rgb(30, 30, 30); font-family: Consolas, &amp;quot;Courier New&amp;quot;, monospace; font-size: 14px; line-height: 19px;&quot;&gt;&lt;span style=&quot;color: #9cdcfe;&quot;&gt;queueCache&lt;/span&gt;&lt;/div&gt;" style="text;html=1;align=center;verticalAlign=middle;resizable=0;points=[];autosize=1;strokeColor=none;fillColor=none;" vertex="1" parent="1">
                    <mxGeometry x="1257.5" y="1956" width="95" height="31" as="geometry"/>
                </mxCell>
                <mxCell id="78" value="putBack" style="text;html=1;align=center;verticalAlign=middle;resizable=0;points=[];autosize=1;strokeColor=#6F0000;fillColor=#a20025;fontColor=#ffffff;" vertex="1" parent="1">
                    <mxGeometry x="1194" y="1755" width="61" height="26" as="geometry"/>
                </mxCell>
                <mxCell id="79" value="" style="html=1;dashed=0;whitespace=wrap;shape=partialRectangle;right=0;" vertex="1" parent="1">
                    <mxGeometry x="1377" y="1846" width="208" height="53" as="geometry"/>
                </mxCell>
                <mxCell id="80" value="" style="html=1;dashed=0;whitespace=wrap;shape=partialRectangle;right=0;left=0;" vertex="1" parent="1">
                    <mxGeometry x="1375" y="1938" width="216" height="60" as="geometry"/>
                </mxCell>
                <mxCell id="81" value="" style="endArrow=classic;html=1;" edge="1" parent="1">
                    <mxGeometry width="50" height="50" relative="1" as="geometry">
                        <mxPoint x="1640.2599999999998" y="1707.9999999999995" as="sourcePoint"/>
                        <mxPoint x="1640.2599999999998" y="1746" as="targetPoint"/>
                    </mxGeometry>
                </mxCell>
                <mxCell id="86" style="edgeStyle=orthogonalEdgeStyle;html=1;entryX=1;entryY=0.5;entryDx=0;entryDy=0;dashed=1;" edge="1" parent="1" source="82" target="85">
                    <mxGeometry relative="1" as="geometry">
                        <Array as="points">
                            <mxPoint x="1607" y="1873"/>
                            <mxPoint x="1607" y="1968"/>
                        </Array>
                    </mxGeometry>
                </mxCell>
                <mxCell id="82" value="1" style="rounded=0;whiteSpace=wrap;html=1;dashed=1;" vertex="1" parent="1">
                    <mxGeometry x="1478" y="1853" width="69" height="39" as="geometry"/>
                </mxCell>
                <mxCell id="84" value="+" style="rounded=0;whiteSpace=wrap;html=1;" vertex="1" parent="1">
                    <mxGeometry x="1390" y="1853" width="69" height="39" as="geometry"/>
                </mxCell>
                <mxCell id="85" value="1" style="rounded=0;whiteSpace=wrap;html=1;" vertex="1" parent="1">
                    <mxGeometry x="1377" y="1948.5" width="69" height="39" as="geometry"/>
                </mxCell>
                <mxCell id="107" style="edgeStyle=orthogonalEdgeStyle;html=1;entryX=0.5;entryY=1;entryDx=0;entryDy=0;dashed=1;" edge="1" parent="1" source="87" target="67">
                    <mxGeometry relative="1" as="geometry">
                        <Array as="points">
                            <mxPoint x="278" y="2401"/>
                        </Array>
                    </mxGeometry>
                </mxCell>
                <mxCell id="87" value="" style="shape=image;verticalLabelPosition=bottom;labelBackgroundColor=default;verticalAlign=top;aspect=fixed;imageAspect=0;image=data:image/png,iVBORw0KGgoAAAANSUhEUgAAAfgAAAHqCAYAAADoNlzvAAAgAElEQVR4nOzdfVjUZb748Xelgg0wCD6Mmk8MUqhFoGhqbYBrLpS7qUudjK52CzxSKl3uL8w4v6XZs2TSWa8UWz1C7fZbVs8uR+1kDWuuwJ5SExS19aGSEc3U8QHkaUzS6vfHPA8zMDMMT9PndV1eF/N9uL/3MDif7/257+993zJ69OjvEUIIIYRfubWnKyCEEEII35MAL4QQQvghCfBCCCGEH5IAL4QQQvghCfBCCCGEH5IAL4QQQvghCfBCCCGEH5IAL4QQQvghCfBCCCGEH3Id4IerSMyJQOWwWbXwbqKGuzopgKglbc8RQgghRPdyGeBViRFw4Bx68+uFM4iPhZY6g91rowCiltxN1PBWmuptX3dl1YUQQgjhyi3O56JXEp8Tztm8U5YAD6agPs74c8uBg5TvbLXZG0DUksncqTS+0mv3UnWoq6othBBCiPY4bcEHzRmNqrbOLrg7arnU2s7eZhrbO1kIIYQQXcpJgFcSPQU+L2+026paOINRJ/ZSfkDP52/v5Wy0Y4o+CrbupapWT1XeF7BAUvRCCCFET+nXZktsOKrGy5y4YL9Zv3kvekC1UGH32qiVL9b/EwggKgyaLK+FEEII0RMc+uCN/ejKPdJ/LoQQQvRl9in64YMYqdRzVoK7EEII0afZBXjHR+OEEEII0TfZBHglo8Y1c+7T9kbHCyGEEKIvsAR446NxX/LFhfYOF0IIIURf4GKiGyGEEEL0ZbLYjBBCCOGHJMALIYQQfkgCvBBCCOGHbgWIiIjo6XoIIYQQwoekBS+EEEL4IQnwQgghhB+SAC+En1AttF3hUQjxQ+dxgFct7OFlYGMjmLtERZDt65wIVO2c4v9ffEric2w/FyXxOe2/56A5d5M4J6DLaxY0527mLlTav7b9/Lrget3xvtrn+HkEELVkRrv16h31FkL4k7bLxbpgXg/+RJ2BEJvXbq06N1xF4jMRDl/qeqryTnk27/1wFYkpCj5/+xQtHpymLz9F9DN3E6X/px/O1BdA1JKJBB04SJUH761l55e05Ewm/pLnKweqFs4gfpxDeQcOUr7TYZrj2AgSpxioymv07AIdMf891R5jx2b7sr1/X8aVFO9U2m/Va70pp3s/DyGEcMbtAK/fvBcWziBxHDBFZfxC9+iLyIuAbieAqAURcOCg50H6gp5y7e3MXaDi/Hq9RzcH7VMSnxPO2U69r84JmhPFnZxqG1w71EjV26dIfCYC1SHP6+80oNtREp+iQq/d69PfTdCcu0kcf5nPa+FOp0d07n15HtAd69czn4cQQjhyO8A7arnUzYvSxI5064szaM7dJE4JbhuADp3j85mTiY7V+7CF1MiJA6NJzLmbz9/2IjvgmNmwbZHGRjA3uo7yutEkTgkGnAVVJdFT4PO3O7hpMV+n8RTltjc4F/ScqJ1B9Jxz6D0OSO0zrm1wjB0d/K7N2QD7wGpsTY886fB+h6uID/+SHesbUS1s59HOLnxf7XPz80BJfM5EVI43vT1Ub/P/Gatm7/6ehRC9iscp+vK6CEZ8eoqmxBnE033pRFW0ipaTB9v94jR+URmoyvunkxZQK+dPNnNntBIO+S5l3LLzn+y4FMHcZ2ag9Kj1pyT+mQhatHtNmRDjl37iHJugNm4iiRxjR16jKUhHEfWpzRdvbDiqxsucaO+L2BTcrdexpz+hJ37mIIJ2+jKzEcCI8cHo97T/e1YtnEF82CnK89y89gU95Zvdq0HXvK8OuPN5mD7noAMH2eEkiHd7vWMjSJwCn7+9VwK6EH7GoxS9HlAtVNi9dp+K+ByboXCOrcl2BRASBi0nXLdqQubcTfwUQ7vdAC2XDDB+IEE0+vbL89ApduivkfjMDBKHdpS6NgqaMxpV4ymboNtIlVbPXNsv98ZTlJtb9Beucq4xAqUKMH0RBw1VQH2d6/cyVEViijG4u7zx0F+jRXk7QeDR7yRoymTmTrEpxu4agSiVzTS28wcyYuEM7gzz5G/AQ16+L1XKDOammF951pLt8PNgEPE5EQS1173hZb29pr9GC4ruuJIQopt5nKLXb3bWOnbrzE70wQeiVLa3X8WdU4DaL9sv35svz9gI5qa4f2MSNGUkqp1uvs/6rz3+Eg8aGgAYg0NQeHC7x6qmRAB6TrSXVbjwNS0MIWQ46D0ZFNZekBo+kCDAZftdGcGdSmg5cNXu/bdJFVtuIrxIGXv5vjrTB9/R5xE0JYIgmvn803ZuAL2st9cu6CnP+5r4nBnMNW3q7DgEIUTv4HUffPe6TmMjuI7xeqry6hjlmOJ2pLqdoMZrngXVQ6fYcehU+8eYbgL0LtLgLoXZZxOChiqAa+2eYjv2oaWuGcJdH6vX7uVs9Azil1xzfVMyfCBBGDjry2ByoYMbl8ZTlG+F+GfsR4237PwnO3aCyz54T3TF++pAR59Hy4GDVBFF4jMRNLm62e3melu7tfZS1T2XFEJ0kz4y0U0rTfXm1qsrxlHITJns8vlvYwrV81Zzu2IjmJui4PO3PWv1tHx6mRZlBNGWuiqJnhKMfo/zQBw0J4o7lXrO2lyj5ZLBdJPgmn7zQT4ngsSFLm6PvLnp6dB1GhuDjd0JrlzQU67Vo0rponkVuuR9tc+dz6Nl5z+pqlUR72ougB6oN919PSFEt+jGFrxDH7yHKXv9CT3xKR2kv82Pw6XMYG604zPS7g388oyS+BRcDOrrwAU95W9D4jPWPt82jx4qI0jMMY8Wd/L7OlSHPmViB08GtPLF+mMocyYyN6dtGe4MXnTGsQ/ePmVvGtA4U0XQoXb62A+donzo3SQ+M4ORHT52B9bR52YTmZuD/dMHnXxf9n3wHqar3fo8TDddSyaTmDOkTdeDt/X2VsvOL/h8/GSbvzNTHSVNL0Sfd8vo0aO/j4iI4NSpDtLQPa6TadvYCObObCdV3du4WV/zc+Feva/hKhKfuZ0TXfIcvzEY0xOBokvfV/t68vPwaPIpIYTf6yMpeoBWvth6CqZEeZ7SNc+At7WPBHcPtOz8gs+JIN7jaU7Nj+l1VRA0PhWgSml/GmHf6+r31b7e+3kIIX5oenyQnbNpT63aTgTizYx0qkTjo2L++ZyvOQXv8Ix8B4LmjDY+rtWVrT1zCn6hsk0Kvat0xftqOxGMLccR/r348xBC/KD0oRS9EEIIIdzVh1L0QgghhHCXBHghhBDCD0mAF0IIIfyQBHghhBDCD0mAF0IIIfyQxwFetdD7qUWVaVpm5hr/3ZOc4F0hvVTI6+uYWrKOqa/PcbLvtwz9kWfnuCu2sJZXyo/w8ENeFyGEEMIPuR3gVQtnEB8LLXUGu9fuSUCVpWVMXT57NCns0eRzKSobdZwXNe6Nnl7OXWNP81nqMipf3GnZHPL6OsY+Da1X6u1emzW9uIzK1PWcDnvYbruvxBbW8kJeuu8LFkII0et5tB48C2eQOA6Yomo7b3p74hagrtvGntIK04YK9B8tYOaEdHTVRR5XurcJUIXB6Y9octje9OIyeH0dMWOBKetoObCe4+84nv0FjV80MVgVBXzh8bUPZYxD5kYRQgjhyOuZ7GyXLW1fAqoHVOhKltpvrj6Cfm4MSqA1uYQo3uRMeDaT1Mbd+h0p6KptysjKRh1qetlQxcG1uVwHGKHhnowwzmiOMDh3vnFaVNv9QGByCZOnKkyvDOgKU9GfB+IKmDmhHl14POpQA7odxxk6N55gh/N95Zre8wDu0kObeWHldIy/khr+J3G2JdCr8o6weEaI8UVkDq+U5xh/rvkrr2Ss8F0dhBBC9FoepehHndhL+QE9n79tWmfcnRT9iESGcpyG88ZAa+6DV8fVYGiwHhY8Nduawt+hQzW3wLL+e2DyAihJsaT3dcQTZdeHr2ZS7hwMhSns0WxDHxrPSHP6f4SGkbxpOjeFg5WgTtUQaDk1HsVHKRzVKVDPDeOMZhv60AmEjnD3N+NayOvrCDu6jCMHTnO6YBn1k9b5LhX/4ULeSBzHK6v20eCwS58TwyuJ4/ifGmjYm8crieOM/yS4CyHED4bbAV6/2bhKVVC4wu51h1RhBNed5foIDVFT9RzV5KNrMGBwXFFDt41PzSn86iPoUTHQFGSvly41trgBqKDhCwPB4ZH29dthapVTxBUdKIaZbgDO56KzdA3A9SPHaQ4Nw7IUSEMV50yZgubKrXgzY3rA4BBartS22d704jJOvwMBg8PsXjtq1dcTFDUdT5cnEUIIIVzxOEWv3+z52ufNdTUExsyByjdpJJLBoXqunIeB7Z6lQKECzmNKw8djt9yHzv7FlWrrq8biFD61vHJI77c92WsBK35LzJQQLr2/zEnfulXTi//Wpn/ezjtrqGQ5U0tM/fSrfZjKF0II8YPU5avJBQ4zLhYaEK6AOmDEKBQN9ZwjksHUt0kvW5lb+emoM+KhMt8ySC8wuYTJ4e5dX5mWjZoqDmrs++x9oXX1v1GJMRU/YYX3gTlgxW+JGfwRlalrfFIvIYQQossnurl+0b69HxgzwdgSj4tBVXfW6UA2Zdp8VA3Gfnszw0VTmn2EhijLgDk3Wa6TgCrVIRPgA61Xmgga7HLNW7c4S/F31oVLTYROTOrm9diFEEL0Bt2yHnxweCSNx3UEz81msq4KHfFMnmtAV2gzsl49n5m5840/241iL+Jc5Rwmz9WimgugQ1dpINjNFnxjWRXNGday9ZVVNE/1TQu+J9mNlAd+Vl7LzxxG0+tzCqh6N4fF5aabBxlFL4QQPxhdvx685TG2pS4HsBlT7jvZU9w3n4m3pNhtJrnx9Hw1/0/63oUQQvhM189Ffz6XMzo1k9KsM6oFJheg8sFjaL1Fq74ewlRejoKPQhkV4ttn5IUQQvzgdUuKvrE4H11Wtn0KvrQ7rtxN3lnDZ5PWEVMyGU5/4HZLPuT1ddw1Fmg6yJF2RuELIYQQnur6FL0QQgghup0sFyuEEEL4IQnwQgghhB+SAC+EEEL4IQnwQgghhB+SAC+EEEL4IY8DvGrh3UQN9+5iyjStZbnYe+yWe+37Ql5fx9SSdUx9fY6Tfb9l6I88O6cjqrwjvPLuZpmGVgghhFMerQcfHwstdQa71+5JQJWlta73rsnnUlQ26riOz+wTnl7OXWNP81nqMrtn4ENeN67/3nql3u61WdOLy6hMXc/psId9t068EEIIgYfrwZ+NnkHiFBV3PjOD6LqD7q0HDxC3AHWdzXrvVKD/SIdqQnq7p/UVAaowOH2szZKwTS8uo37SOmKmjGXs0nXccWW9k/Xgv6DxiyZuV0V1U22FEEL8EHg9k13LpVY3j0xA9YAKXclS+83VR9DPjUEJtCaXEMWbnAnPZpLauFu/IwVdtU0Ztmu62y5GY5nr/giDc+cbU9Z2i9WY5rq3rEBnQFeYiv48EFfAzAn16MLjUYca0O04ztC58QQ7nO8rXTkdbWxhLT+LhNqScbzz+y67jBBCiD7CoxT9qBN7KT+g5/O3ja15t1L0IxIZinHp18DkEksfvDquBoPNYvDBU7OtKfwdOlRzC1Ca9gUmL4CSFEt6X0c8UXZ9+Gom5c7BUJjCHs029KHxjDSn/0doGMmbpnNTOFgJ6lQNgZZT41F8lMJRnQL13DDOaLahD51AqA/myg95fR1hR5dx5MBpThcYW/NdkYqPLazlZ0P2sTFRgrsQQggjj1L0VYcgKFxh97pDqjCC685yfYSGqKl6jmry0TUYMOgdjtPZpPCrj6BHxUBTkL1eutTY4gaggoYvDASHR9rXb4epVU4RV3SgGGa6ATifi87SNQDXjxynOTTMujBMQxXnTJmC5sqtLle8a0/A4BCn67k3vbiM0+9AwOAwu9eOWvX1BEVN92qxmsnm4P7oQhx/pUIIIX64PE7R6zf/0+NA0lxXQ2DMHKh8k0YiGRyq58p5GNjuWQoUKuA8pjR8PMG2u3X2L65UW181FqfwqeWVQ3q/7cleC1jxW2KmhHDp/WUcb2exmKYX/61N/7ydd9ZQyXKmlqyj5cB695eNVU4nXgkNe8skuAshhLDT5c/BBw4zPsgVYGr5M2IUioZ6WolEQT2ue/LNrfx01BnxUJlvk2Y3uH19ZVo2aqo4aDp3T2EVzZ14P7ZaV/8blanG1PuEFd4PkgtY8VumTjpGZeoyz9aEb9zHxlX7YEYOTz/n9eWFEEL4oS4P8Ncv2rctA2MmGFvicTGo6s46HcimTJuPqsHYb29muGhKs4/QEGUZMOcmy3USUKU6ZAJ8oPVKE0GDx3WqDGcpfrd8uJA3SmoYl3qEhx/qVBWEEEL4kW5ZDz44PJLG4zqC52YzWVeFjngmzzWgK7QZWa+eb79evGUUexHnKucwea4W1VwAHbpKA8Hh7l27sayK5gxr2frKKpqnhvnuzfUGv5/NxpFHWLyylvEP5vFGTlFP10gIIUQP6/r14C2PsS11OYAtMLmEyeE72VPcNwNTwIrfEjP4I7tJbjw9X83/8yw9L4QQQrSj6+eiP5/LGZ2aSWnWSW0CkwtQ+eAxtN6iVV8PYSqvRsFDFMqokC59Rl4IIcQPT7ek6BuL89FlZdun4Eu748rd5J01fDZpHTElk+H0B2635ENeX8ddY4GmgxxpZxS+EEII4amuT9ELIYQQotvJcrFCCCGEH5IAL4QQQvghCfBCCCGEH5IAL4QQQvghCfBCCCGEH/I4wKsW3k3U8I6OCiBqiZvLyQohhBDC5zxaDz4+FlrqDHavnYodyZ2c4oQ7y8kKIYQQwufcnuhGv3kvLJxB4jhgioqWAwcpdxHAVdEq9Hv20uKjSgohhBDCM173wbdccrHQ63AV0eP0nJXWuxBCCNFjPErRjzqxl/IDej5/ey9no52n6FWJEXDgHPq2u4QQQgjRTTxK0esB1UKF3Wt7SkaNa+ZcuYvWvRBCCCG6hceLzeg3/9Nl6zxozmhUtV9SdaGTtRJCCCFEp/jwOfgARowPRn/C1arvQgghhOguvgvw8micEEII0Wv4LMCrolW0nLwqj8YJIYQQvYBvArzp0bgTO2VwnRBCCNEbeDzIzqkLesrzfFKSEEIIIXxAFpsRQggh/JAEeCGEEMIPSYAXQggh/NAto0eP/r6nKyGEEEII35IWvBBCCOGHJMALIYQQfkgCvBBCCOGHelWAV6ZpmZlbgmpET9fEuYTcErTr09tsV+Ud4ZXyWp5+rvvqoso7wivvbkbl8oh0CrQFtK2tJxLQbNGi1WopyU3oVElCCCG6l0cBXpmm5Z5kL7/oR2i4J7cApXdney8zi7KyNfb/tqcxy9NyMgrInqZn25Iij06LLazlhbzOhVnvFLF1v4r5WzR4G5oTcp8nniryU1JI1VT4tHZCCCG6lm9msvORxuIU9nRJwdXkzStmt9cFpFMwT41uewrOwrs+J4ZXvK9dl6nQpBK5XsvzuQlUeBGgI4coMHxWjoR2IYToe+wDfFwBM+eqLS+bK/P5tLSCwOQSJk9VGDeqs5k5Ndv4s24be4rNIS8dde58a8rYss9++6RcreknA7rCVPTnMbbuM+IJNp7IUc1S2iw666Ju3SEhdw7qU9tIKXTcs5qnyx9jHABNVK2K4YMPjXtUeUdYPCPE+CIyh1fKc4w/1/yVVzJW+LyOsYW1/CwSakvG8c7vrduLtlUx5/8sIJ0KpzcnQggh/JNNgE9HPVeFrjDFGHRtXC9NZU+pMUU/ps55YFWmxXBFk4LOXFbufNRxReiqi9BpitCN0HBPRhhnnAXv87l8qsEU6MPa1jKugJku6tb1Eki8S4GuzFl4XME7iSswBvqf2O0xt+pjC2t58FIeb+R0XXiNLazlZ0P2sTFxIXrHnWXlHM/IJiYDaHODIoQQwl859MErGBrjXY9tY7Ft4C7iig4Uw3wxMCsB1QNqmivf9D64K+PIse2DL5ztwcmRhCkN1Ou8vHYXm2wO7o86Ce4AVHC2DlQjPP0sEhgVDvrzkqAXQoi+yKYFX4SucBT3ZJhT8C5S5a44pNABmut8UcVIFKFguNiJQNOZPvikUaiAeu+v3nWU04lXQsPeMhfB3ajmsoH5QyLBzd709PVa5kcYqPqPFJaW+aSmQgghupl9C/58Lp9qUtijSeFgpYpJ7o56H6Hhnrlq9DuM5+7RpHDUZy3eGgwNvirLC2Vn2w2ePapxHxtX7YMZOe0+ohc5RIHhco3bxRYtSSEl5U3I0FKQ4YN6CiGE6HYuH5O7frFtWGutMxAclUig0zMMGMynxBUwSe2w+/xZDKgZHOdpFSto+MKAam4PPGIHQA31jQrCHN+Pmy5caiJ0YpLr59UzCtBqtU6fr3fLhwt5o6SGcalHePghZwd4m2r3NrUvhBCiN7Cm6Nuk2I2j3G1T9NdL30QXlc1k80h480j587mc0WmZlKFFDdBQhU6nZqjdpYrQ7Yhh5lwtqrnW8vXnsR+lj3mkvbWL4HppKgcpsV4XD0fRK+PIKYsjx/zao5R9BeWfPU92koaEwlz7JPdzu3glNdLyctzKWuJX2o+m1+cUUPVuDovLa40bHEfRFx5BN0+NOnwUCbibRHfw+9lsHHmExStrGf+gw4C+pEQmKHXslAF2QgjxgyKrybklnQLtfNiewlKfB8oENFuyia/bRoqHk+i4I329ljmX872aqKYz5wohhOhZvWqq2t6riKXbdajndXbqV3sJuSVotV0X3BNyS5gfXsWbXgbomssGFEMiOz5QCCFEr/MDbsHPZlNZMi7Dl66UpIxddpsSckvIHrKzS4Kx76VToI3hSMrSTkxwY8ouKMGwX1ryQgjRl/yAA7wQQgjhvyRFL4QQQvihWwEiIiJ6uh5CCCGE8CFpwQshhBB+SAK8EEII4YckwAshhBB+yLcBfsivKFr8DpsfecLFAfeR/eQ7bF5s+ufyuHZkFKDdoqHNBKoZBWi1rp9Tjy2s5ZVyV9O5eikzi7LtaczyYZG9TzoF2hI0SY7b2pkTIElDibPPyBNJGkq0WrRtri2EEMId3dqCn3H/09zLp6zf+DQLNz7Nwve3eFZAkoaSeSqqHKeM7aTYwlpeyPPlFDadl1m4hrIyDassK9uOZ9X2NWzK9NEFZqfxXlkW7ReXgGbLfFT73yTXblW5IrbuVzHfVRAvy2VnXTzZ3s6vTwKajHjYn09KSqrDtYUQQrjDtwH+8u9IbydwR4TezrUze9jrVeHmL33HYOOeQxnjeCXROkd8X9DSCBMTxvfY9RNynyce5zPhVWhS2VYXz/O5ztvpRUvyqQqf7+VqdJGEKQ0c/0gm1hFCCG/16/gQ96Q98g4pdxh/vnZ0A+kff+JwxH2MUALeLv2asYB4qshvbza1xnraLIr60GZeWDmdUABq+J/E2Rwy7VLlHWHxjBDji8gcXik3LUfjuCBMB6LyNORMDwagZd8Gfppz0rRnPKu2ZzLNvAxem0VuHGbTc9x//CT66SlkspYNTq47y+a6cIaSJNNxs9N4b2Uc2NQls3ANqeozlCQdJ9bmmqlla0gFoJn9q3JZaZm8L50F06DqP1xnS4q2VTHn/ywgnQons+VVkFu2AK2zRXqEEEJ0OZ8F+OL3n6YYY6C3b9M9wauLf8JY88tJmWyelAlc4/DWTPIvu1d+eowaw2dbXQcKXT0GZ321Hy7kjQ8xBfohdrv0OTG8gjFF/+Alh1XY3KWMI3VoKUlJu4x98qnWgDwrLwV+v5ykXWAO9ll5+9ltCbrJqPZtIMlyQ+BoP3/Zl8bjmdAmwmdmkTO9npKkXNO1NORsT+OLecXs3lXMTyPDKUtNY9XsXFZGZpmCu+kGIGmX6SYgnNIk5zcPZMSgbjzO1vayJWXlHM/IJiYDcLYIT+ERdPPmkJgEFZJmF0KIbtUNffBbeHnj0yzcuIHDzcbW/cKNT7Nwo/vB3fs1zbtBYzV55jnrNxynhjBGm/rNd+estWkRn+Tvx5sJGjrW7vSgCdPaHaS3u+IkqofaDuTLjBtDTYk1OO/O+Zga5Xh+bO6z37CWvH0w7bE0Vj1kf6w7EkaooO5sBy3vjtaMr6G+UUGY2sVuV5JGoULPWbkpEEIIr/msBd+1IglTdnxUr2NKlQfZbtNZf9yQsYHR2zMta9XXlCxnkWMU3lVM6WMafjx7v83G8YweDJGpayhLtT24mTqbV7tzivnx9kymXSklyZPoDkQOUbh1XM1lA/OHROJ8JfsKztZlM2GEuyvdG5flVTdWkZ+yVNL6QgjRCX0kwNdQ3whh7R1Slktqr2rxzWaTqR/cnIKflachZ6jtMSdZOW+56fA03lu5hk20DfIbquspe2wa++03O78hsJFZmMnE46Xsn5DMe3mnbcYGdKzmsgGGdHxc5BAFhsttRj6YmDIvR9wN1UUsTSkyPSJXQGSnVsITQogftj4y0U1HqWDz2urePTN94VIToROTULk6IKMArVaL1ovHvvRfmYLq7DSyLAPinNh1Eb2rfRu07B88nomWDcZ0f2RqO4+5ZRr73UtzdrHy99UwPc3mkTvz9cYQ66KAivN6CB/VwbPsHXWdGEfD1+tc7Hal7Cx6VIyS59+FEMJrPmrBOwyku8M4kM75aHrvFB3RMX+eqxHbrtmNlAd+Vl7LzxxG0+tzCqh6N4fF5bXGDR6OonduF3/Zdz85ljT6Gfbva2aapQXfdj36ln0b+KnTFvlJ/n4cpk23btmdkwt5GnIso+CxjsLPzKIsdQw1JcuN/e67iil9bA2pKzWswjxSfheLSiZQZqmfwyj6wiPo5s1nQQZUOBtAB5CUyASljp2u9rszUE8IIUSXuGX06NHfR0REcOrUqZ6uSwcS0GzJZsJn+aS296ic8JmE3BKy7zpO/hPOH3NLX69lzmVXn4fx8worS2GpqxsAl9Ip0M6h/j9kkhshhPBWH0nRA1SQW1gF056XqUu7SYXmTapwPplNQm4J88OdT4IDkL4+m/i6bV4Ed/B69L0QQgiLPhTgMQ6k264nPqOT88y/Rn0AACAASURBVJwLN1WQ+8Q29G1uqtJZME3PNhcte5I0zAmvIn+Jt0PkjDdzqnkyF70QQnirD6XohRBCCOGuvtWCF0IIIYRbfBLgIyIifFGMEEIIIXxEWvBCCCGEH5IAL4QQQvghCfBCCCGEH+ojc9H/EKWjzp1vmj7XgK4wFf15m90jNNyTEY9x8lsdRzVLaeyBWgohhOid/KMFP+RXFC3+DWk9XQ+fKkKnSWGPZpvzOerP5/KpJoU9hVU0d3fVhBBC9Hr+EeCFEEIIYad3pOijf8PmuEbWfwjPLLiH2wG++hsL399iOuA+sp/M5F7zYmyWffaL3KQsfocUAK5xeGsm+Zdhxv0bWBL6v9ayhvyKogVKKjb+mmIg7ZF3SGjYwNs8zZJJtwNw+h9P8/IJTOVHc3xrIwnmejV/yvo//469Hb6pBFRZz0PJThQZ5lS7bSo9HXXuHAw2qXdlmpYxdfl8WuqrufZN66uf2kaK17PKCSGE6It6Tws++B6WLFBSsfFpFm79lGt3/Ihs03rkaY9kcm/j31i48WkWbtzAYeVPKLr/PmALL5uP5wzajU+bjjEGd3fdPinTeBOw8WnWH73G2LhfMcOydwwp5npt/Bung+/hkWh3S1agzpiDoTCFPZp8dA1qxiTLJLtCCCG6Xu8J8Fzj8FZjq5rLe/ii+XZCBwM8wYQ7zqC1tOY/Ib/6DLePmWkThDup+VPWm8rf+3kN14KVWKfusakXWzj+FQwNv8/tovU7zC30Chq+MBAcHtnRKT5UxNKUFGm9CyHED1DvSNEDNNfwsaXV/Qn5fzatIz9kBEMZw1hL+t18/Kc+u/S1M3usKffLvyN9o8+KFkIIIXpE7wnw7TqDdqO5FS2EEEKIjvSiFL0Ll/fwRfMYUh55op1jznOJMUxw1TeuHGFK5z/Bq+bBcr2CAoVx9B2BySVM8vn65+kUaLVot8jyukII8UPTB1rwn5D/Z8h+MpPNi39i2Xrt6AbSPzal8dnCy/+IZvOD77D5QbAdRb/343e4f0wmSxa/wxKucfgfn3LtQWVPvBEHReh2xDBzrhbVXEC3jaO6+Ywx744rYOZcm4ifoUVtM+FNYHIJk6cqLLsn5WppO+FNDfWNoFZOIDEJKsq6430JIYToDXyyHrysJ997pa/XMj+8ivwncvHVw3dCCCF6vz7QghdeyShAO08NjRLchRDih0gCvL8qXEpKYU9XQgghRE/p/YPshBBCCOExCfBCCCGEH/JJgJcBdkIIIUTvIi14IYQQwg9JgBdCCCH8kAR4IYQQwg/5LMCnr9ei1WrRrk/3VZFCCCGE8JLPAnzRkhRSUvKpCp9PQYavShVCCCGEN3ycoq+g/DMDqhGytIkQQgjRk6QPXgghhPBDEuCFEEIIP+TzAF9xXo/irkRZf1wIIYToQb5vwRcuJaUsjGytlpJcCfNCCCFET/D5anIJuSVkD9lJSspSXxcthBBCCDd1SR+84XJNVxQrhBBCCDfJIDshhBDCD0mAF0IIIfyQjwN8Aol3KdCfr/BtsUIIIYTwiM8G2aWv1zI/AmisIr/QV6UKIYQQwhu3jB49+vuIiAhOnTrV03URQgghhI9IH7wQQgjhhyTACyGEEH5IArwQQgjhhyTACyGEEH5IArwQQgjhhyTACyGEEH5IArwQQgjhhyTACyGEEH5IArwQQgjhhyTACyGEEH5IArwQQgjhhyTACyGEEH5IArwQQgjhhyTACyGEEH5IArwQQgjhhyTACyGEEH5IArwQQgjhhyTACyGEEH5IArwQQgjhhyTACyGEEH5IArwQQgjhhyTACyGEEH5IArwQQgjhhyTACyGEEH5IAnxnPLmLacW7COnpenhJlXeEV8prefq5nq6Ju2azqWwNmzLdOTYBzRYtBRn2W9PXt90mhBD+yD8C/AgN9+QWoPTy9JC8WiYuT/dplfq853bxyrubUfV0PbyUvj6b+LptLC203160rQrVvBI0ST1TLyGE6C79eroCoufoc2J4pacr0RUyCpgfoWNbSlHbfWW5pKoL0GZoSCjLpaL7ayeEEN3CpwE+MLmEyVMVltf6HSnoqt3bF8WbnAnPZpK67X5IQJWVjTrU/FrHUc1SGklHnTvf0sqclKs1/WRAV5iK/nz79Q1YfoR740wJ9jE5TCvOMf585q/sz1lh/Pn+zUxcPJ0g80m2+1yU11Kdx7E1RUA6wzbkMDbY2bmrGVscR/3Gy4wyl9+8j8OZC2ltv9o+sJqnyx9jHABNVK2K4YMPTbse2swLK6dj/FVHsri81rSjhv9JnM2hDsuezaayCRxaVUfyyjjj+2qsJm9eMbvNh2RmUZY6xvSimf2rclm5y7xzPKu2ZzLNnI7RlZKUsQunZqfx3so4guzKT0CTpEa3PQUn4d2ocCtVSdksyICKQsed6RRo56M+tY2UJS5LEEKIXs9nAd4YwPWmwOsgrsB+X1wBM+eWYNBbg3Dw1GzGVOazp7jCWNYDGs5V53IdCEx+HnXdNvasdfzCLUKnKUI3QsM9GWGccXbtdrSuiWE/xhT9qDpzULa1mrGLp2MoHcexP5teFz/GxOUn2xxrDO6XOJEWQ5NpW0heDmPr/8r+zBWYg739uZFEL4YTaeNoMpU9/Ek4/WcP3oRXVvBO4gqMgf4n9rs+XMgbH2JM0T90mY2PLkTvcfljSF0JJUnL2WAK2Fl5+9mdc9IYlFPD2L9quTGoZ2ZRtjKLzF1r2QBkFmYy7UopSfN2YQ727+Wd5qc5J+0vYQru+pLlLNpgsz0pkQlKHTvbBG5bFZR/9jzZMeng+jZACCH6NB/1waczcqoC/Q5nATYB1QNqmiu3WvdVL+WoTsHQmATrYbptfFpqTJheP3Kc5tAwAmyLUcd43cfurYDlP2FY8z4uWALuCk6X1hA0PsmubgMtwX22JbjDasLG1HDC0mIv4uLHjuc2cXqj+ZwV1J8BxTD3xgKkr9ei1Tr+6y19y83sX2UM2HCSvx9vJmjoWABmJYyHfcXWFvsGLfsbxxCbCTCbWPUZSiwt9pOs/PAMQROmMcu2+DtcBHcAdRiKxnpqOqhhxXk9hI8ioc2eIpampEjrXQjR5/mmBT9iFAoMXGqnqWe46H1v5/XSVI6Gay0p+ObKfMvNQJerP9tByjySsXHAmb/ZBHfg/lEoiGRYca394c2XfVKtoiXtpKB7o8HDmAVEDQ0mSJ1JWZn97hqA2cNQMYbUsjWk2u5srLM7NnJ6HHCGQ47BHUgYoQLqO66Prh7DvDAiQfrhhRB+yTcB/vxZDExo9xDFsASsX6UJDAwH6to5wUFjcQp7AEhHnZvNPdA9QT5sFAFgCfIBw4YCtkG6hhNp1YQ5Td3XOLTqfSd9vZb5EY5bDVT9Ryq5Zc7O6GFXLrIbiAJa9m1om3IHmA1whpIkc+vfuZqS5RyKW0Pq9jS+sO3bx9gyz77Ljfq42dIXQoi+ykcp+iKu6BSoUzUEttlXQcMXBoKnLrCm2OMWoA7VccarAF2DocFh0/mzGFAzOM6L4oDWuqY2aXeA1spjtARPZ/iT5i2rGR4XwsWPHQfCreD0xn0Ql8NY87Efl3GlOZLovNXeVaoDRUtSSElx/OfD4F5zmQblRCY/5GJ/koYSrRbtFo2TNLeN2WlkTQ+mptqYdt9QfYag6Wmsmu3k2F37OdY4htRCZzvtbcjYwH7iyHE8VlePQWlsmbcnYYQK6s46ab2nU+DO+xJCiF7OZ4PsGotTOJqmZbJlJLt1JPz10lQOUmKzzzjK3b0BcY4j6AHdNvbY3RwUodsRw8y5WlRzreV3NIrerHVNAac35HCvOZ1uHu3+8UKOsZmJi2uZlmzc1VKdZxpw5+DjhRwbs4tpybUMm2A8/2ImsCGHacWPWQ6zjrDvQc/t4pVUawgct7KW+JUOo+k/XMh/PXiExStriV8J7o+iBwhm2so1lK00vqqx7SvfsJYksiiz2W9ttZ9k5bwNrNqeSVlZsqU05y3+k6ycV8qmsmTKyiZYW/1l5RzPyGZObgJFGlc3kAkk3qVAV+bsc6ihvhHUygkkJkFFb8yGCCGEG24ZPXr09xEREZw6daqn6yL8wmw2ld1Pnd2jb90sowDtPNiWstT5OIWMArRJ9eQ/4fw5+PT1WuaHV7ncL4QQfYF/zGQnhK3CpWw7pWb+eidPJCRpKJmnoqrQSfDOKECrleAuhPAPMpOd8EtFS/IZtSWbgowiu+lq0+fHo9+e4nysQuFSUtp9fl4IIfoOSdELIYQQfkhS9EIIIYQfkgAvhBBC+CEJ8EIIIYQfkgAvhBBC+CEJ8EIIIYQfkgDfKasZW1zLtOJaphUfYdj9PV2f7pDOsA21TFzu3qp3wrVZeRrKytYY/7kxPa/XMgraTr2bpKFEpuMVwq/5R4AfoeGe3IJuX04WVnA6bRz70/7KxW6/difdv5mJxbsI6el69HrjWbV9DZsyHTZnZlFWloXjZman8Z6z7U7szsklKWk5efuafVNVZ1xN7FOWy866eLKdTQYkhPAL/hHgxQ+GUqnkvvvu46GHHuKhhx7ivvvuQ6ns/ls7NhynBvM69lazEsYTpDve7mp43ScBTUY87H/T6cQ+RUvyqQqfT0FG99dMCNH1fDqTXWByCZOnKiyvzYvNuLMvijc5E57NJHXb/W0XnNFxVLOURtJR585HZdo6yWExmw4Xm3lyF9OSsV/Stc221Ywtfoxh5v3mhWg6lM6wDTkM/Hgcp02L0wQsP8K94X+zOd++7O5ZiMb+mtGW9eqbOL0xhosfG1+F5NUSPQan+5yXV+Pyd2b3vp7cxbQJ1Ryu+wn3xoW03d+OIUOGEBMTQ79+1j/b0NBQ4uPjOXToEHV1ztcfnpWnIWd6sP1GXSlJGbswttAzmaZ03A6ZhWtINf09krqGMtMi9cbFb3ZxSJdMatxswDzp/nh+PCGYmg+tk/DbX7uZ/e7O0Z+ZRdlDdeRZlsNtO8e/fdlOltnNWEA8VeS7XHSngtyyBWiTNCQ4mbrXuCSxzvWc/kKIXs1nLXhjANdzVJPCHtM/S4COK7Dft0OHam4JqhHW84OnZjOmLp89mhQOVhpQPWBdejYw+XnUddss5e7RLDWtRFeETpPCnsIqmtHZXNvNleT+XM1FIgl70ropYNhQOFNtCfgheXHUp41jvzkVP+Yx65KwnZLOsA2PoajOs5RtsF1utsuYuhU27qOFGk5Y3ps1gAcsP0J02D4Om/Ydroaxi52l842B3PgezMHdjfc15jHjjU7aOPaX1hAU93iHXQW33norY8aMsQvuZv369WPcuHHcequTP+fZaWRNh/2rlpOUtJwSHdBYTZ4liGcy7UopSUnLSUrawP7BybyXNx6ADRmmbY3GFfGMxyy3rGy3ofoMqCdY0/GzpzFReYZDG6zXfpxiy3l5+2Dac2nM6uC9uiUzi5zp9ZRYyg4jdbt92ekxagyflbc/p37hEXSmlfOEEP7FRwE+nZFTFeh3LHWyBGwCqgfUNFdute6rXspRnYKhMTZDfHTb+NS0BOz1I8dpDg2zX59dHdMFfewruFDdxLAJ5jXb0wkdD6dLrS30phyb1j0rqD8DimE+6Le8P4nB7KPG0nJ1rEv70tdr0Wod/5Wg6fQXdds171vXFHC62f5GCJIswd2u9e3O+2rex2FzFuPP1VxkKAM7GKAYEBBAUFCQy/1BQUEEBAS02T4rYTxBjSf5u6nVu6H6DCjDiQJgNrHqM5RkmJvUJ1n54RmCJkxzLwg7pOnbpOd3FbPIZpnb3RUnabFcu3My48ZQU2Jtse/O+Zga5Xh+bBmrl8CocNCf72jJnBrqGxWEqdvuKVqSQoq03oXos3yToh8xCgUGLuldH2K46P3aXNdLUzkarrWk4Jsr8y03A53VWnmMlsVxhABN9ycxmGPU2Kain9zFtORIu3NanGeCPTNmCEHBkdY16M3OuHd60ZKULvzibeLrDuoRFDedIJo4XelQi06+L1/b/VU9OdONgW/3LmNgRFdqDIyzh6FiDKlla0i1PanR3Q/YNk1/uk16vk36H/DNL2I8owdDpE23gVEz1ppHEubWHXEFZ+uymTAiAWT9PCH8im8C/PmzGJjQ7iGKYbZfIAkMDAc8CJSNxSnsASAddW4294BvgvzHZVx5MoewJ6F12EQ4WWBpuXL/ZiYmR3Kx1NqPHpJXy6jOX9WoeR+HM60tZU8Y+0cdtxqo+o9U5yuleSSEgWMAy43OeAY6dGG3VOdRw1LuXbyLrz+2zXLQqfflSmtrKy0tLQQGBjrd39LSQmurkyvW1NHCGKatXEPZSjD2VdsGYSd91x7YUH2G1NQJZM4exkTlGUptCsoszGQa1eQlmfrRZ6fx3spwL6/UVk3Jcha5rHgN9Y0Q1mEpppb+EQnuQvgbH6Xoi7iiU6BOtfabW1XQ8IWB4KkLrCn2uAWoQ3Wc8SpA12BocNh0/iwG1AyO86I4img42YRi2GpCx1/ibJvBXjat2Sd32Qw8c48lnf/kLsugMsCYmg6eTqSXz5Mb06eO/zwI7h+fxYBj2h3M3RDD7t9s6SIJWP4ThjXv48Kf7Y9sXRPDiTORRG+wHtvZ9wUYH+3Sau2e3f7uu++ora3l5s2bbQ6/efMmtbW1fPfdd232ZT4WB/s2WPrBk2yD+a79HGscQ2q7z6Cf5MsrEBnn4hhTmj75ORej569cNA2SG8+q5+Jw3cnghCWdP55V25Ox5pFO8vfjzUSmtvc4XgVn60A1oqMn3SMJUxqo17XdY+wG8kW3jxCiJ/hsFH1jcQpH07RMtoxkt46Ev16aykFKbPYZR7m37a93xnEEPaDbxh67m4MidDtimDlXi2qutXy3BtoBrWv+hqH4Mcae+Sv7bXd8vJCzybVEL65l7GKgeR+nz0Qy2LzfMX2/uJaxi80jzou4+OckBi/OYVpxDjTv40T1UKItDbgVnE6DscWm/Sa22YKutYLTpXFMS65lWDLYjpRvyhnHibxamzR7DSfSnLfIm3LyOL0hh3uLj5jO77r3VVdXR1VVFdHR0YSEGG+WmpqaOHHiBI2Nzv+aNvy1muSVmZTZ3fiYW+0nWTlvA6u2Z1JWlmzZaxwlb+0735BRSmxZsuUY+/2mNL3aMT1vvrb1vJp91bRMN/8BOKbvTceZR/FvWEtJ3BpL90FNSSk1qdaBCrtzciFPQ45t90Jjtc2oeyg6omP+vAWkU+G6OycjBnXjcbY6uTGsuWyACAUTHkiAMmnhC9HXyHrwwq9lFq4h+ZJ9wM4sXEMq1sfh/FcCmi3ZTPgsn1Snj8oZ94eVpbC00MnujAK081Q+6vYRQnQ3mehG+DHjYDR7s4lVQ8ul0z1RoW5WQW5hFUx73mmaPX19NvF125wE93QKtFoJ7kL0cdKCF/5tdhrvrbTv+3ZMwfu9jAK0SfXkP2EzmU2ShpIMePOJthPcCCH8gwR4IYQQwg9Jil4IIYTwQ7fMmhX1fXBwCLfddq2n6yKEEEIIH5EWvBBCCOGH+n3zzQ0Arl+/3sNVEUIIIYSvSAteCCGE8EN2M9k9uqA/T93djwGOR31zkwPaG2gOd1Ba0Assj7mbgIadrDr2VycHTOOxyYtQm+ezdXlcOx55g9Vx9fzXb37DIc/ObMerPLAulaGGT9i98ikcZ8LtvWV7aV4pC6ZecV2fqX8iOe0+bgeghoPLkvHsqfEH+eWvf8VdCtPL89tZsfYP1msn0k6Zv2TZ6nmMNL0699FPWfe+RxdnyqL/y1MTg/mqPJvX3/XsXFuPZudzX8MmXtpU430hHjLX3ehLyrPWY/8WjL/b4GrPfy/OvUr/Fan0B6CJGx9M5sZRX5RrFPuLLTzKRnL/+A8vSzC+37Ff/q4TZXS/h7PeQ63r3Gf0cNZ7/GgE9v9/RBcLZfDI4aapt29guFxDwzc9XKVOsAb4ibfxL3ffwqm/X+eDC/YHTZ49gIRH+rO07gYFZ72/2MSINNT8k/f2vMExbwqI+zWaB4bx2V9esAT30EUHmTXJdjXxJnTFkzlc6X09u8+z3LvqJYIrx/PRdk/OM900ONlzqdzTspyofIrSSkyBvs1MMW7zJjjDH1i34g9YApnXV+9tIvnXVxcxwXzTYzjEn17ewgHbQ+Kf4OcT4XhxNv9Z5byUh7N+xV2N21nhk+AO8DI3Vr/MDV6l/4o5virU4tAfP+SB1b9i2SP/8NENSe9xR9rL/OzOYPR7V7K11H7fBx8dQPP4Fn55/gn+UO1F4Y+8wY9GnOJ/V7zABz6pbW8RSOiwcSi+vcC5K7bNC2Ngva2llouNPdld3MCVcw2m+nj/3efSABXDhgyg5dyXGHxfehv9HH9qbf6eCoeFJyrOfQO/GMBDT/eHd9oJ8i1vsGaP64upBt5O69V93gV3HuSXj0yBE79r+x/GtnU8r5QFaQcBT4L8y3y07GWvatUzZVvLDF10kFnjjvee7EAvcGDTv9sHzh5nDO7jTm8ia1ON5fVT2Zc4kL/betjIcAYaajjoIrhbv/T7UmvuD6z7yyg0j7/Bw+/7S7BSM3tlOnecPYyee50fUv0bcke8wepHfk1stefZxtjBw+D8h37y+7J1nYarVwkYMpjQAQ2W1nF/5WACbl7lUo8Gd//j3mIz17/nd3+8waAlA3jo8e84u/5b3nX4HGZNfIuppgVhWi9sYs2p/Q6FTCM8EPjay5o+Mo+7OMB/dZSm2/7f6Ka+xPB7n+Vw5VvWdPR2mG5OO39VwtZ8mwBpzgDYbLewS1c7HGNq4Z5YdohR5ha1zc1Ge2WPzT7J5DtMLxJPsiDR+OO1o69RugnuXfUSw2tfo3TTW6aDnnWyrT3G49WWFmPbLgLb+hmv6065Tsp29ntzk7kOnl3flVm8uHYOxl9rM8eL/92uJTxl0f/l52zhk9BFJJr6AOzT+A6tbOBr21/Yo0tYmzja9MK2fNN52LTKTcd+VZ7N6/zEuM+S6q/hP7cf4rW0aB5ltyUFP2XoIFyvofwgv4yL4NxHP7X/0k8q5fZ4aF2dzLcut9mm4YGLJVz7o3uf1y0LDjIweKf1+El/IvDhwdywlP0s/Ze9RP+B7ZRd/RsqH3iPqb94kA+8TLPXXek96fk70h4n5PBK/lCayIJ/b+fA97fzWdyveOAROORn2YtO+UZPS2s0oSGhNFwxtpaVQf1pbdBzw3zMABXDhgyyBqhWa4u/vzKSof2vWDMA3dwq7q+MZGiQ+X+TYxrfNsUP3LzKpYt6bjhsDx0ZTajT851TDI4m6IZjdsOYDenXcoIrhrbXvtlS68Egu+vf8W9/+YazgQN46l9v5VGHdWF3H3uWVXuepbJNM/IxfjnzLVbONPa9BwxfxMqZb7FyZgGPebB25sPqCK5/+Q/v+t0V9zErbTAnlo1na/EnXLtjDvdONe5q2DSZrcvGs/tok5MTX+WBtPtoKR/P1mXj2bqshEt3pJK86FmbYyKZvG4OzcWm/Yr7uHtex2Wfzh/P1mWvoTMY0+rG8sebgtxbnK5t4vZxCVgW0ZuawHBFExcOuxcEQxf9HLaby30NHfcx3bbeivuYHLrTuL/4E5j0nOV30pGx2S+hvlpiLXuQ4+/EPcbgfomDlvfdWbt5PSubrKydfOXiiIETF3FfwyaysrL507Fm7pj6BFNM+x7NXsSEhp1kZWWTlZVN+TmbE+Of4LXEQRwvNu7LKr/KhLQlPApADf/58k6+UsTy80WRwCxeNAf3d02Bu+GSfVah6hJ1jGb8o8a+/rVr841974pYnlprfP3aIpuVCuMeZKziFDrHQFF2iBtEcqvNXPO3DBoKFw9ZAv5tv4jlu9XjubZ6PNdWl3BjWCr9fbQE7G2/eIn+TSWmsl/jRkgqgQva/i18oDtF4OgHifX4Cv/gknvLTnabr4pfbZOSd+4fHP7SwEj1L7u6Sn2OoekqNwMGEzrA2npvtETnUAYPGcS3DSc4d+4E585doDVgOMOUbRcj73YDVCj5ylSvE1xqAcUgleXmWTHY2M1g3n/uovmmpYEr505w7vJVbmKgwbz/nHt9/N/cuEG//u29/0BCh9le+wLfBo3zcLnYs9+h+XMruU8G8NCDX/PuTndO+it/2PNXzAPs7rjqrHXfkQcZqoQ6Xcd38aGLnkOtqOGgXcBoQldsGtRVWcGFefcRPNJFAXZlzTEOjrP0ab/MR+WxLJiaQChvWVrDl8rN3QEvc/arVKKHPAt0LmA1bNrJpXVzGDsVDldC6L0TuP2rnW53OzRsSsY6JvItTtc+hzpUbT3A8Am7za1u0+/EkvVo16uMuqOGg5Zuh7c4XPlz1A6/k46ELjrI5EmXvBjA10nndloGzR04VMPPJ4ZzB3Ag/gnuG/kl5Vm7nZ42JTYSjm2xZgTe/RvHpy5i/KNgbILv5vXiobyW9hP+ddEg7ji3kyxT0/yO0GC+bjjjUOIZmgwQArybn827mAbYja1p2zcPMCKMQEM9bVdAfpmbNXMYOPpVbvAy8Cz9RsKNMmsr+ts/Jtsd/93FVPoPepYbnfwbhVe5dVgNrautfws3jv6c/pMSuIW3+N720PP1XH8gjBHgm8Gxcb9G8/gU2nzlmQakxf5iC/8SrWhzmnfjQrx36MpF/mX0KGLx7H2PUCq43ujH04d/o6e+JZKhIaPpF2Dferek6y0Bv4ErDSGMDAqlf6O+hyps8o2eKzYB+cbXLdwMGsAAsNS/X6Cxnjecne+lGze/wXwXYW3NB9Kv3w1u3gAGhBLAVeotLfwGGlsGe7se/PfwnS+q7a4Igtv+X7VS3MesdebFQ5yM+jYc57QlML7F4ZUefLFdPdtB0KrhrM2gttP5430UsEw3C/c+y+FKGDsOdNs9SIM7di0ALpu1vEXD1ZcY7la5owgiksnrTjLZdrvhivt1IxL1JOCrnd0b3DvhjtBgBo5cxNq19tvtfqVVW/jv2P/LUxOv2t0ofNXQzMDQ+PSQNgAAIABJREFUMYDtaPwxhCiaabLNErQjdvAwoN7pvu8/P853D8dyG/DtpARu4zittiPhk0q5PT7S7pzvmt27brsmjeI2Ium/wmHhnq+d/C1Un6Xu8WiGxgHeDDprU95vyG2nnEN/fKJzNxKPvMHqByKsrw0HvHtyx8MbG/ONybmPfkqun6f1bzReoXXkcAJaL3DOMbf+7XWfBkjfMQ0StIuc1sobrtTSf9g4ho4cBEBrgzl93kk3vuFmUCD9CWUgBr61tOa/4cY3gGIA/fopLNc18yzAj7qV3CcDGHallVXdupT2KZoNuB5R3ZWPoA0aRShYyg4dMhTwJJh57/TJGiZPTSB0KgznOPvcHjRo7Frg6GtsNWUyQhcdZFaoq+OfJXQQtJx098bHm0fnHM83jltIXqTzUXq+6319rINH5h5dwlNjayg/Fkniq0/wlaklfuDSVZ4aO5QpYG2Zxw8lnKucdDWgzoGxJehi59EKvk16iVuT4LtBE+Dc762t50l/IjA+khtV47lhWvb1tl+ctPbHd1qNff+/K3GjCOciOi+C+wdrf+qkvC5uwb//gm+eVHCZeXHOfGPycNZ7aH7Rtx4N9Nx1bt6E2244GVh3WyD9sbaK+/cbAPT882qKweNQcJVL50wtdFP/v9V1Gi6eMMaLASqGDYlmMD4I8t9c59t+IQxQDOC2G5do6T8UxYBvuO3mN9bfiqW/38r9PvjAW/nt4wMYdf0b/vTH77p5lLKxHy588IPdetWGw8e5ZtOnDq9y96QQLlX66mbiLRquwtDxrzrfvf2/jX3n8ybQ4sU1Wy6bAufUPzHd7lFCB/N+jlphn4lwqbKCC4ZIJme7qLPbXuaj4k9g0ks8MK/jo+088garV7/H6iwf9m3a9ImDMV2eaNON8+4XXzJw4hP8a7yrAkz97pVbeHfTFo5j7o8H3j1h0z8PEMm/zouFY3/D7cf0z9dzXWFsCbb1FjfPNXHboFfpN/ISN7Y63jA1wSXTj0mlBAxz96ImIaO4BYBX6f/wfdYvjaMVfPt1JAG/cONvwcNAZ/VLljn7rKt/Q+6Kn7LC8Z/pefFDf3yi7b4V3ZueB1PmpfGsxy3/840GApURHR/oh2583cLNfoNQWu7PTIPwWmyCl+kGwNxf36alOkDFsJHRjBym8uHNrIkluxBI6CAn1zb75nrbG99vrvMtCga2l5FuR/9+0Pr1db65MYCBIQPoZ66LoYnWfoMIcxin4F4LPvAWfvWL/sRwk+1/aTuC3jiQbg4q88vQRawcvsjFaHrvfKA7xY8emMfD/MOHj444jAYnlQXrUq2jwiufopQ/kZzmMMrdrefMOyjb5HR+CaPWmfbhOJrd1Hc+6RInPHq2/WX+eXQOsyyj82vQHW1CbduCb6dbw3FuAWM63nzMWxxeCax6yVLntvV2U+VTlI4sZUHiSRaM934kvoXdKHcgLZ+1aW1H0zu3m9fLo1mbmM/aRODcTv50bAY/N+9+dz1ZLGFtWj5r08wbzRPRmEbvW/rda/jPyi9Zm7iI1xZt4qVNu3k9C15ca03xd5gNcFT9D04/8iuXI9G/37qTb1ek0v9iCXbLRh19ihtTThLw8En6Pwx8/Qk3LkZym3m/Y/r+4ZP0f9g64c33W3/PjWUvMXDFSaCJG1Wf8F28+fngt7ixDlj2ErevsP4tfFfzGtcdbjKMg2S3+3Byqh6UnMnzM2z+zmas4vkZOHke/kHuHa3gXHVfeqyxF/hGz8XLMGxINCNN31k3W2q5aGoF32j8CkOgOQ1+A0PDVW4LdZie7ZsGWm8Ool8/+/7xDilGMzLUGn0DhkSjsBnpbmi6StCQ4YwcaezQbG25ys0g87UdRtA71NvINJ4g1Pze3J1M5zo3bw5HEXiVS41wgxZuCxrEzRbznXsDV87B4JHjGGkzeP2WBx4Y9314eDg3ohr5r9TbOPv3G84nuhn8HR+29wx8l+ubM1p1ljG1vrPzwa9b+WK2NV/P2OYHHnmD1Q/Q9yY/ifs1msfDqOxr9e6sTsy6GfuLLfyL8kOZwa4TFIOjCb2tbdr6h8Saoj/2LcXV3xHx40B+9ZT9v4SQ79j7fk8Gd4B/8If3D0D0Yn4Z15P16EZT/8T0SaCr6EvBXXSZ91/gf89H8CNfdk10uV+y7PEp1H30Awvu5lk33/duSu1DVy6CcpQXjxUKFKMZOVKCO8AtDz8c8f3IkSM5d87N4bw9rUvmou9lbEbA+2Tq2W7Xzlz0Her8XPT+rW9lNjo/F33fJHPRi97glgULJnwfHh5OXZ2rGbSEEEII0dfIcrFCCCGEH+pXVdVCRMRQTp1q8bqQ+fPns23bNh9WSwghhBCdIS14IYQQwg9JgBdCCCH8kAR4IYQQwg/1qgAfW1jLK+VHePihnq5JXzeeVdvXsCnTnWMT0GzRUpDhu6uH5NUyrdj4b+LydN8VDJCkoWSLhgTfliqEEH6nVwX49sQW1vJCno+DhS/MTuO9sizaxNLZabxXtob38sZbNmUWrqHM2bGelu1D6euzia/bxtJC35XZlDOO/WnjOOG4QqovlOWysy6e7PW98G9BCCF6kf/f3v0HRX3fe99/duaeMYkKFvzB5R0FXMxRzBTFKsXYBNeDBpI2tziYO8qUmavQkVRiD83B8XBN1+2Uy5GkXk2wxQn0muEM6ok70aQnLirNQnJMKFJRMtHkUhAYc6dghApoWv/q/cd3f8ICC6yyrK/HzM7A98dnP8su+/5+fnw/75AK8Bfz49m3IYlTZ6e6JkGQEM2s/kGYH+fckM6quYNM/F6F+yC/nKwl7ZzYVTXVNRmXql1lNEdnBbXXQUQk3EwwH3yQbTrKz/amYuQVaOO9DenuVepiSlvZuc6Z+CShhH31JcbPbcfZl79nzKI3llrZTQ218wvINjlPtRXxkwrXEUvZf7KAlEjnr+21mPOduXALduPIjvU63nksLZRu6eFFRwauNB3ZjoMY6TYGadpvYS/ArWtcnptIAXVUFCTC2XN0Z69ncTpQB5DOW15leJ7bd/uwst2peoec399C6ZYaPJnIvfd3YTO/gftlk4bVbKL9ZCa+4f0AcTXboDaeziMjbctjQUUJca78vYONXCrYzr3R3ginGUWtrIw+TVOJ871bf5QVO+dxIyedAfyU3XXcc6xbAxbHVuxmK2mVFhqG7E2z2ChOgebXs7E4AqiUiEgYCo0W/Nnt/GZDPPv2Nw5LidpdksS+DfG81wa3Pyll34Z44xFAcHeZlVpAxs0KzOYiShsHSdiUw0bnvoLKAlJu1WI2F2E2V9A0N8PTrV7xhnF8ttFNvrE0xxnca/iAOn5iLsK8v4U7dGEzFznL8A7APfzxShSrCqAgGS5W+NaroDKRi+7zamkzZTjHzQMp2wjeMY0Vzn1FmH2COyRkr6d3v/N19ceS4TVcgHkDiZHttA7rmt9DXxcsSDzg2bR+ETNpo88Z8GcUvQhHjG74ppxSOkklIUhj7RGlJcT1HfeUHbXN/zh+ZSvtkYlsMAflaUVEwk5oBPj7rb2WH5YYqVE/aLjGnchongAgnVWmLmyuFjvX2Hu2i1mJKe4LgA9KLNjaY8kozeHFVGj6nW8QHcnGx6PczxeTvJtVXGFIfKci37tFXcfFdoh5fCmB2Fi6noT+Ft4ouTbiMW021wXBNf54ZZBZ7uECwBTFzP4+/CUsHaht5E5sMq6EsTPWroCWt50tbLh3MJ2ec66jq7h9bYBZ0YHVe3QHiIpt43N3i72KnnNtzFpq9knB6Hx19PXPJMo0vJQGazaZmWq9i8jDLTS66KdK+gJiiPXqAnfq912XvyK/llXO1vJP6hifuiYuv1xA9Nk3gKX09q/37HMOAXhzp/cdwxPzZ8OtnoAuNvxJWxgD9Pnfec7BrR0lRO2AgSN5zFkKt454deSvP8qKnanM8j4nGBPq1i9iJgksqOnw3T74tZ+DG7jRW0ziwjQY1kkvIiIPd4AHho9ND7WU/SczwFZLd3YBbxV4j9+P7s7NTuAae7cUeW2dTXQCQA5/8BnfN2bZZwRY66s3B2F+gAf70fBVN8XLRtpbxe1rhcQlHqBz/SLmcpk2d4v9AHE7U6GllKaDRtA3xtUnXhdfbXzuHo8fTRqLoqG7VcFdRMSfadNF/5ebA8xZYSZmhP15h+zY7eO8n7uuicv9sWRXpo94iGvc/e2KOn5i63KPx3vK6KGbWFZN6F62QXpdfeQFu92TAAMp+4OGa9xxj9lPQHsfdyOjPBP0hrh3/jJ3ohYRsXYFd88Nn0B3t8fZol9/lITkiGHnjypqkbPL3bhYcPcEnHNwazCB5aUHRjzVI4GoyLv0tQ/fk2axjf+zICISZkIiwMeUtrKvvoN9e1OZQwIv1Hewr76OVV7HdJeU00wqO+s7jGMrAwkCY7nG3i3GxDqH46D74Zpkt7HUSon3uHuFnab+WLJ97k13BX7X+Vb2pzu70EdTV0Nt+2xS9jrP29RL07Bg5b9s1/k/3N9CTLan3o6TnsmDY3LUc6XfxGbLCEvGnNvOjb5UliffdE+uM+zhLy0DLMhwLmazcx63Wrzb2weIcy5yszwWZiWX+Cx4c+9gOZ2ksrKmg5SaZ/lbbaPXrYNV9BQYE+tcC+WMuFhOfhKm/ivU+xlnb/iqGwBTku6VF5GH17cWL178jyVLlnD9+vUJF6JsctNUfjn2LXAis5DpdSd8GtZjxUQ5Mv0v0GO2Ynt1Dd0nR9gvIvIQCIkWvEyRykJOXDeRNc1WhRt59T1j2V27gruIiCbZPeyqdpWx6Fgx5flV0yMgmq1sjm6m7CV/fQ4NWF7SpDsREVCAl+kWFB0WsnV/u4jImNRFLyIiEoYU4EVERMKQAryIiEgYUoAXEREJQwrwIiIiYUgBXqaljaVWr9UHhywfHHKWsv+kZ4XE+yq/HPsxKyOsTxjadtSRUnHUT+ZAkSmyo46UmjrGuRh34MxWbPfx/1W3yQGROXZie8v4tHYa3S52P+UWsfb5ON9tAxdo/XH1sDXpp0R6DrtToWl/kTMd7v22lP0nC0iJHL7nTmOFOxXxlDNbsW2Jofn1wuH59XbUkZKRAF3HaXKn4zXMKGplpXc+gcFGLhVs5x4HiKvZxgI/T9VTG08nRpl3Wkq57JN46PSw5wi2YXV2cdd96qyq7OAFnyQPbby3IZ2LABwgt34b8UPO6bDFU/0717kDNO9P4tRZgDyee7eEuWeN/QZj25pI7+O8t3s/9XH25e9xP++3PynlNyVea0hsOsrP9qbyV5t3+YG+LrjtLM/Y5/06jSXId667yXsb0vlLaSs713m/X8Nfo/96B8mOOlLWfz3ln41hHBbOZNkpPpRHw67gryeqAC/+hVJAHyohmln91/jjAwnu4JMRsGA3jmzGyEA4FdKw5q+BpjIsftYJiEhMoKf2OGQkEwGebH076liZfJPPc5L8ZPDbQ2fOHjpxBtSll32/IHcAgwOw1MwMqh7oZ+XewSSaAJwXIdTG03lkjJMeJK8AtaqygxcqD3Axfw+wh+oNnoCLn8B6ux+WPpMHZ0f4wt9kZimNvPfJCp7xc1yHu0zjOX5Weo3flOyh2pbMvuwXWUWVOwivyk5lTttxfjNGcHfXbegFgtPF/FIWvlvieZ2bjvL/roPm/UbAjwHob+Tw/7OdboCX69i3txXwXKD4r/f0WkR7Iu7nYmMhFODzMFmyPNnibjdz4Q0Lfx9rX3I5TyW2cqF3M6vXzgRg8Lxva/yRDJt7H0D3f2bS3jJku6mYp9YWGz+3n+DjmgA/WK6WEQADdB5Ooucc7pzpeLVuIko7WB7rSod6gLiaZPoOf80iV0Y179bH+qOs2DmPGzktRLlaUSHQOuHpXBILV8OfD3HlwFUAIl57k2VxnXyRfZABNhNnW0FfeS+PF642Xpf3xUJuEWuf7qW1Gkyu/Z2nOP+vZwKuwsbHo4De4TvSc/jD3mhqzVdY5cgwMuX1t1C6xZksCCMlrydr3yBN+y3srTO6/Hdzje7UZBLowmaD7OxYaK/FnB/YlcRIZfupKG85MozncV8ouLYZvHsGjLrVUDu/wF2+d5phAPK3soZmyqz+eqEOEBU7wN9q9/C3rg6idsCAMxhGJBqt+rHT847kMrf6UvlvO/AbYIe2tHuGBOLhvQdfe52dx4KKEuJceZv89D745y/oe2/LY0FFIRw5zaM7XT0UQ9MU+/ZeePdSjNfFi228sGkRMWAEt7Fcvsxf1/kGYm8xz6xgztenufghPPOymRiqRij3Grf64duuX3/3Ns2bSnimNI+LJVWw6SjPJAzQvD8YLeUqTv3OzNK9z/Lcpmvwcip8UurVuzCEsy7GhcwY9Z4M5/ewkbEygZU1Hc4d3u/3kJ6qUb5nXZ/XYb1W7s+wd7mBfM4AGrA4tmI3W0mrtAzrfUuz2ChOgebXs/1evI8mRMbgjQA+83wZH1szjYc7uKcRs9t7XxntrGF1jtf66aYsVkefMfb/Zzuz127F3duz0MoTa7v5zFWu1QjuAH+vzeZjayaftRsXBe7nDjS4rz/Kioz5dB6Opyknnqbam8TtdI7XnNvO5do2ZiUXsmA9sKPOK7i7JLB85zxu5MTTlFNKJ6kk+GROS2B5zbP87XA8TTnH6ZltfJFOqY+qufJ+J7O++yPmPw3kFnkFd5c4lhVG82X2K5zPPkQnqzHtecJTRsRqklz7yy9wJ+77RlljKKg0xtxLUmdDZDIlQ7L/GWLJdqynd38RZnMtbZHJvOgcoN9YaiV7bgul5iLM5iJKGyFlr2f8flbqUnr3VxgZAzf1Urq/hTumxIDG98cq28MI5DGNFZjdwX0p+0+6thn17k4t8EkFPCu1gIybFc6yB0nY5Js5MC/JxN0v6od3zQPsSGbB4GVun4N7vQMsSPRkYhy40gax20gJKEWvf7drG5mZ6Od8d++A6/+jjQUZrcb/wwj7vUWUlhDXd9zYl2NkGfSbWXCYPfR14fM62ZHMAtq8MiNGELfT9b8Vz+dd3mmK81hQsY2ZLaXO5z7O3eQS4ib4v7dqVQK3LzsCC+4AODjzyXy+87K/fXmsXhFBx8U9cPYGf41cwepNIxSzyczSSPjr/+f6Pqvi1Nk25qx7kVW4Wu+nRw7C43V2Ox+2RbBmbwlrItv4cKKt72H1noRz27ns+mwNNnLJ9VnzCcLe77XxPbzSz/+DEciNz6v7Ym/IZ/hSy3yW+8wj8f6cldI5mMAif5/hylbaIxPZYJ78S/YWEgH+kYzNxNxu5qq/MfDkrZjmtNPl3tdAt62ZQVOSJ4jfbuaCKyi3tNJNDI8u9C7ExNzk4Nd7xtoV0FJutNgBjrxN52ACUa4vgiPpXGqBuIyjLFifQE/t0Cu3AToPu7ZVcfvaALOifSdi9dQ6ewScX1ozFwTyBZdHud2OfehjPJM5IlaTZHuTta7Ha5s9+6oP0vpniPtBLvOfjuPm+weHv65y17ar9F8dYNbceP/7P2rk1kAEjw0dlPSjIr/IHeDo9wTToWPgbTZXy7mOi+0Q8/hSIJ0XU2fTdtbTmv+gpIam/lhWuQJp+zl3i9v7uLEFUDYAKe7g7lPn9BRW0MIb7m11vN04SEJyuueY9lr3OR80XONOZDSeS6Y0FkVD91f+55BEJCZw55qDe8C985e5E5vsmTR0JN24eIx1peidwISicw5uRT3rCdwA5LFgfQJ3Wt72fDaOpPN5VwRz1+a59w//n3A5QFRsG5+7W+xV9JxrY9ZSc0CT8AZqG31eZ0TikLrg/b/lvNCJWmSUvd7MXBppc7fYnSmS/V3EjCRhm5HWur6DF+Y18h/jDHbdH17m25uOenotXTaZWRrZxqe/M+r1aVuE0Qr2Ep/tTKm9dwXX9g8ZAvhdOu+1JfBMZZ3RereNr/U+Z12J+3Xtq+8gd8hFyEVbI7eB25+87bf3wSWmtHDYRcCo9b5fdrxI3Ow2bhz0XAT1HPH97AA86g7uvp9XY+jLs+3ewdP0zF7BHK//Bc/nzP93vKGNvv6ZRJmG72mwZpOZOf7WO4RIF/2M6JnQe8PZYvfjdt/Eu6W/svDpf5bz1A/sxPyAIV3/kzMjOoJZsSWk1JT4bO/x+vnewXI6K5wtkUDGCJ1fMsbrbfPJxT5QEs/lgGpWRWHmJK9+xxiDv3fg3+n8/S7i+k5xvjqA8qJiPK9r4Br9H7l2XOXmj1+ZXF19dHHRq+u6Ir/I2UqOAwbpbfN/1uSNXfas1GQSGKSpYcikvIRoZkXGUuJIxueT1B7ocycQ5WcCoMHonr9V6/w8nHNwa0eJTze991h7RGkHy2taPUNNAami59yLrFibx+0he+72TPBzuH4RM0lggbtL1cmnC38UPq/TuFi4MVaQnT3P+IzGzmPWbO/uXKeugGvvMwYfU9rKzvo6nwloYzq7nQ+zW1m9yfdbPeaZFcxpO+0ux+j+9+2mN8ayjYlr/sbyL9oaeWbvGF3oIxhpDN6Qx3MvpzIHYF0hz22q8i0/MpWd9Z4u8qF/j7Hqfd8Mfj1GfEkgLhnoOj3kYjSPR6NgQUYHCzK8tw/QOe5KNHCjt5jEhWngvx9uQkIiwN/rvQvRoxwwJ4oZ4AnKMVHMHuXwYVoK+djZLR+ZY2f1bmvQgvxYY3MRpSXMvXaczqXbWFF0bexxvL4bQRhjz6PcnsWwi8H+ZspeGj7GMxERr+1i7tVTdD7xHIl7Otzj8SPq6w6BCXuziU4A3OPicUSPGBiDX/adxgreIIeSvbspqBsySW/IXIHxaaOvH6L87dqRzAIiYGcHcTu9ticeoJPhrbeBkuP01Gzj0Vgg4AAPHGnhbs2LzGnx3Wz0OLk+88YXor/pE/75G68MVBW3rxUSl3iAzh3JLOhqGftL1/uLPojzXbpLTtNR/ywLN8HFcQTUixdv8kK2mWb3FqN7nsht7Kvf5nXkfFZvYkiwruLU2ReHTaoDjK79vakQjC5wL65W+Xsb3mbhuyWsefkoF85u9wxNeE+yG9Eo9b5fXBd2rt9j5znH7F3a+Nw5F8rfd/jQeSUT4+yFaw3unVwh0UX/99YrDJqyMPnrRm9ppRsTsRmuzuU0Yr5vYvD8O/RP4Lnu9d71u232Ext4ZJxlDVzxGmP3xznufuPgHnqONMJox64/SkJyBD1XgjPhpTAzk8yhjyAFd9e4+5cHznCz+gK4xuP9eToX03cjuPlZ4JPoMFuxjXdIYUxGd7332PXG0vUk9Lfw9qSnwwde9gclFmztsWSf9BpDr7hCW2Qyuyd8n3wDN3ohZuHwv9aMBfONyWnusUfneOSQLki3HcksYIC/jae1Chjd2POZ634Jzu7I5Bc9z+PTHVrF3/q8xsnXH2VFhtc9WOcc3Br0Hhcfv3sHT9MT+ywr1s+ns3a0/6sDxGV4hjE40kLP7KHzYYbLO2QMfZXnj16PmNJnie+/zIXxjnX/7m2a563A86lYytzIAZr3x7Nvg+tRSnP/8G569/n9CTxTGsiw3mQdYPO6CGfXfBWnftfI7chUNvudRzCGkeqdX24MNR6awOvp+po7Q7rOAeO9xntc3M/QEgB76DzcCD5zMYzP+IKMYNwnn0BU5F36/PTapVlsAX3O/AmJFjxfWfi00sp38u089QPnNndXehXtVjBZhsxyD/Ce9aEz6KGdz6y+rfe/1/6W9ieKWW2xe8oPZKLdkXSaqCPFp3XkbHU4Z9f31MYbH5Rz27mR0cHyncatIUb3ZwRxXucG50owSCJWk2Rb7fnd1WXvvEf+5vuvOMfQq/nyB2+yrPBXwP/g5kcAEcQVvklcoXHqzfdfoTOQbvz7rCK/CCoPenWFd2EzG63mjaOfOqmyhx9bweKTBZQ4lvLP+y3sravjJ2Z4y1GAw6tHdthM+VFUtbaTtWUreTTg+eTmMWdpBD3nhgS3Iy30ZGwjakcej673mqUO+NwJMk73zl+G5FToc/5+MIlLRa1eXd1G2a4vTldvQUrNNqCNzw83ssjry7OnAKgoce43jG82+x76uraxIKqRNj+vx7tr1bfcPXTmQFyN7/DbuP4/E7xb2W28t8HVch1yH3x2B/uyvW8R81bFhcuFrFkHfwV4OZn4/sucOevnmBVmYhg6SOtqDfvpLp8gYwze8zcxuuzhuXe3Ed/fyGFX9/3Z7fzHM63szG7lubYkLozrWUaod2Ur7VtMmKIXMe6O7HPbaVvbykr3962rd8jPe911nCZ/n7Fz27kcW0dKRgcLEo07OoZ/xplY709+Eqb+K7zjZ5y94atuijFhSvLuDQvMtxYvXvyPJUuWcP369XGd6C0rK4sTJ05M+PyH0wHiap7lbxP8Mg1dm4mzfZ9vyl3BXh6MNKzHikn8ooxsv7fKPZwiSjtY1Dv0osC4/e7RcyF0QS0BMD7ja3pPkHkfFoWZOsbrinJk+r8P3mzF9uoauk+OsH8UIdFFLyKT1YClshlSfoo1yLfaTFvuIbJwCgYPJ6ObOhyDO+QdMl7X8OCdhvWYHfsEgzuEShe9iEyew0K2qRx7vpU0R5DmW0xH7sWnfIcEZGT+lqH1GD7j/UFrsGaH5+fZbGVzdDNlL/m7aGnA8tLkXrW66EVERMKQuuhFRETCkAK8iIhIGFKAFxERCUMK8CIiImFIAV5ERCQMKcAHU3oOf3D4SxFqKKgcmtp0FAW7cZzMGXOFNSOFqpX96f62+0unOt5651Fut+neahGRaUb3wU+xjaVWI785YCxvOiQJyQS5sqgVVB4kY8yjR5KG9VgWMU1lFE4gVaGIiEwdBfgpVFB5kGxTFzazxRnU03mrMh3y68Y408OTDjX40iw/ZQ3NlGnpUxGRaSdkAvyMolZWJrty8niliVx/lBU7U8ErGUREaQfLY72SuiS2cKn3Wff5PokjdtSRsv5rLh2BhJ2pRhrALiNRQGDSecuRgXuRp/ZazN4BuGA3juxYr+O903AtZf/JAlIxtDJ4AAAflklEQVS80obeuekqNocM0yBN+71b7HX8ZEjGoCe8Wvh3Giv4Yck19/l/2JvsTGs4gZb/qPUGyGNrCjS//hCviCYiMo2Fxhj8jjpWJt/kc2c6y0st81lecZQZYGTwqfVKy+pcX9onT3TsNlZGnzZSYR72k5Z1diord87jhnP/ndhnR07bOkRBZSIXzUWYzUWYzbW0mTJ4yzVYnZ7DH7KjaNrv3L+/hTs+5xaQcqvWeW4RNq9UgBvTljKr/xp/HK2xHplM9vxzxvm2LmalZnrGyetq+KGf5wzIGPUG3NmN6tU1LyIyLYVEgI9ITKCn1hOw7x08TY937t4j6VxqgbiMoyxY73ssYKTnc7XIzzm4NRjBo96NUwboPOw8x+/+kVXk+7awL7ZDzOPGpLWCbcnQWMNef0E6PYcMUxe2cXS3D9PfQqnr/IortBHF4vTRTwnEqPV2SlsYA7031HoXEZmmQqCLPo9Ho3xzMxsG6PT67d7BcjorSojrO05TACkeZy7wyp07eJnb7pSsVfQUjCMb0bCubK9u9jCWMG/mVFdBREQmIQQCvKGndvTczBGlJcy9dpzOpdtYUXRtSH7n4e72BCGlYHoOf8iOpc1WxE+czfjJzUr3+ODLPkpSl/LP6fDBJBr590vb13dh3lTXQkREJioEuuiruH1tgAUZdUSMdIg7r/Meeo74GWP3MqOokLjZbfQF0Mp3M1ux2e3Yj1lJG7ZzkN42548Fu8k2efZcvTnIrMQU573q6bzlnvQG1PXQTSyrnIPmG0utPudSYaepfzYpL3vf6+6cRX+fjVpvp4avuiF6kZ+/h4iITAch0YK/dzCJS0WtrKzp8GwcbORSwXbuOXM799TGO8fQt3Mjo4PlO1uBJHrAmETnPnfIBLzJqKuhdttBsvcexLEX6G+hqT2WFc7dH5TU8M8nCyhxJFPCIE37a2FvoutkfmJLxJF9EEc20F5LaeN6drsLv8beLRXsd58PrtnwgfC9fx6yHQfJds+mHzLz31SAw+GZhT96vZ0qW2nfksXWfGioHO8fTkREptr0zwfvug2uYDv3pqYGYSvNYqN42RXKXtKtciIi000IdNFLqGqw/pZm1vBTizrqRUSmGwV4GUUDlpdO0J3yU61FLyIyzYTEGPykHEkP6LY5magqCjODcEeCiIg8UGrBi4iIhKEpD/BLliyZ6iqIiIiEnSkP8CIiIhJ8CvAiIiJhSAFeREQkDCnAT1MbS604xlrWNj2HPzgOjn3cZOSXj7DEr4iITKXpf5vc07kkFq4espZ6J19kHwzOcrUyMrMV25YYml8v1Ep3IiIhZvoHeEABfQR1NfywruY+FZ6GNX8NNJVhcdynpxARkQkLkwA/kieY//tdxHGB1h9XG2vV5xax9vk4br7/Cp3VTzD/9z+C6v/iscLnmA/4XiwY5z/20Sv0Pfkmy+IABugs/x/c/CjAKgzJJ+9K+AIYXejemdzaazHn1wFL2X8yB670kZIaC+212Mgg24RP6low0te6stQNTWvr2u7znK46JV+h9OZ6d8Kaocf4JrNxJbHxkr+VNTRTZlXbXUQkFIX5GPxVbv74FDcjVmPa8wSwmTh3cHcdE0Fc4ff5pvwVzme/whedcSx7bbNPKfOff5PHbx1y7o8g7gebhz6RfwW7cWRH0bS/CLPZeHiCqJGmtdvm2ldLmymDP5Qude6fTUpiL6X7W7hjyiDjZgWljYMkJHuNpzu3m81FmG1dJGTvxpmdlop8o1xb+wh1M2VQMv+c+9xZqZnucynYTUlqHzZnnUsbo8g+6Z3WFvKSTNz9ol5d8yIiISpMAnwcy2xvstb1+H0uM9z7ztBZfgG++zzz93yf+Z2nvIK74eb7nhb5wGedEBXjdT7QeYorB66OvN+vpezfFMudxhr21g3fu7F0PQn9LbztbhbX8RNbl1eedmg7W8MHAHRR690Cd2mv9VwwVFyhzSv//Jj6WyjNr/M6N4rFzmuHguRY2myeFvsHJedoi1zKP7uvLdJYFA3dXym8i4iEqjDpoh9jDP6jatpTf0XSd/v4IvvM2MVFRDMD3Olnb37mdU71Qc5X+ztpqDiiI6H7Sz+B2eVWjzOAB0Mnvf0QPelylrJ4LiS48ti7DdLr/jmBqMhJP5GIiNxHYRLgx5BbRNIT1/jiz0tZ9vtcz3j8SAZ6g5BbPoCAO3cBG8Ed5Dc+HgVeYXR84oiOHKS3bYKnDzF0rH/IXvr6ISo4TyUiIvdBmHTRj8Y57v5RNQMH/p1OXOPxIx9752rjuAJ83iE7drud8nzvrdf445VBn3Fxbx80XONOZDIvunem82LqbK9u+fExuvyv8Uc/wwHjM3q9DQ3c6IWYhbr7XUQkVIVJC94Yg/dwddlvJs72HPM7Tzm71a9y86NO4p7fReKeQ1w5YBw9//k3mf+88fOdPx9yj7dP1gclFii1UuI4iKu32z1bva6GHwJ/2OvpCr/TWMEPR2w1+2HKwOHIMH7ub6F0i+viIJ23HBkkuI8rwOHwM5t+HPX2LR+qWtvJ2rKVPBpQMlkRkdDzrcWLF/9jyZIlXL9+fcKFZGVlceLEiQmdO9nnnhzPbXBDJ97JWNKwHism8YsysnWrnIhIyHkIuujl/mjAUtkMKT/Fap7quoiIyFAK8DJxDgvZJ7tZk6+16EVEQk2YjMFP1FVu/viVqa7E9FZZSGblVFdCRESGUgteREQkDE37AL9kyZKproKIiEjImfYBXkRERIZTgBcREQlDCvAiIiJhSAHeW3459mNDbvkyW7EN3SZBkob12NAlfgEOkFvfwb53jxLzwOqSx3PvdvCz0rwH9ozjkWaxYbPoUygigXvIb5PzYrZi2xJD8+uFvjnOHRbOZNkpPpRHw64QWpQ1t4i1z8f5bhu4MHYinftuKftPFpAyJNucv+Q1eYeKWdN7Ypy32eXx3LslzD0bT/XvJlvXEJO2nbKfrSKi4zQ7/8U3I0GD9Qxb7cWU5zdQqNsSRSQACvAApGHNXwNNZVgcw/dW7Spj0bFiyvOrgvrl+kiGjSf4LZ/WTnCp15AI6P6Nno0OyC8na0k7JzL9XTTtoXrDnvtVtZD0TyW/4F/+qY3mDljj94gqCl9fhO3VcvIqC7X+v4iMSV30APlbWUMzvx1xTfUGLI52TObgdtX/vfYMd9cW81ROkLuFn84l0fYmiV5Z8yJee5O1tiIiwGj9v7aZGXt+xVrbm6wdciy5Raz9fS4znOWstb3J2tc2B7GCaVjNJtpPDg9UMaWt7KvvMB6VB3z2rarsYF99CWsiIT67w33c/elWdw4T1NexahxnpVlsw4d5xjxpOz+e+zE7f3SUv4x2nMPCmesmNqurXkQCoAAP5CWZuPtFPaO2oytbaY9MZENQ112vot1aRnt0Fk/ttvJIsIr9qJor73cy67s/Yv7TQG4Ry+JcGfac4p4jae5/cT77Fc6XXwDXsS4Rq0kqjOZL5/47cd/33T8Z5g0kRrbT6qc3pLskiX0b4jn8ycCwfRfz49m3oZTmfuiwxbNvg/H4TUmw27MHyK3fxrc/KWXfhnQuBrn0YRqOUvwvgSUJrmptZ+ayDZoTIiJjUhc9aSyKhu7WsbrJ2+jrzyLKBPjpxh8uD5Mla/gksdvNXHjDwt/dGxrofqOBv+XYWW0p5zNrIf2BVj1iNUm21Z7fO09x/l/PGD9XH6Q15lck/SAXouK4+f4r+ITMgQu0uo79qJFbuat5LB74yH0AneXOCwK/+0eXkO1JgwuDNO23sNeVq94Uxcz+PtoCfZ0PlJnc+lS+/UnpfbhwCIL2Pu5uiSIBRr8gFZGHngI8CURFjn0UNHCjt5jEhWkE9tVaRbu1ivZx1cVEbEZa4GPyY4zB3zvw73T+fhdxfac4H0A63MdingCuOsu+Rr87mI9/zf7RxuDTFsYAfeMq70GZsy6VOQzQ/OE4grvZiu3VNcx0b1hDsd1OMXC3KcjpdB036H41kUVmArzQFJGHlQI8bfT1Q9SYxwXa0ncJtAWfRszuYkw0c8HqvX3yIl7bxdyrp+h84jkS93Rw5cDVUY//pnv0/cHS8FU3xcseyFON2+1PSvkPCtm5t46vzgbYPe+wkO0MtmkWG8XLrlD2kuX+tLDNi4ihm1YFdxEZg8bgaeBGL8QsHGtUM4GoyLv0Bdwkr6LdmsnHQx/+gnvviSHbg8A57v7lgTPcrPYzxu5lxp4fERfRSV8ArXw3sxWb3T7+CWVgdDNHGt3M41fFV19D/KoDIx6Rd8iO3e7v/vrAdJck8V5bAi880PvwAzTS8MZk3g8RCUsK8DgnLqVsZdS52PlJmPqvUB/EltMjGT9l/tUyPq6Z4FhvxGqSXLPcbW8aM9/BfY/8zfddY+jVfNkZQVzhrzxB3uvcpO/2+U7AC4KE7IM4HJ7HWwVeOx31XOn3NxvcWGxmX30HO9dFQMI2v7PpL+Yfp8O1z88s+qpW4yps7Iu2kV3ML6WZVHbWt/LcpgkXE6CNFL/7GofffY0fxgPxz3L43dc4/L82DjtyxAmhjnqu9AMTvnASkXDzrcWLF/9jyZIlXL9+fcKFZGVlceLEiQmdO9nnnuz5hjSsx4pJ/GKk8VJjf5QjMzwWGcktYu3TvVN7D31+OfYtcCLzPtzT7RwT7z4ZJu+Xi9mK7dUozozwN8s7ZCcruvn+DQ+IyLSiFjwADVgqmyHlp1j93AbnWnEtrILFVKss5MR1E1mHgnkPu7H0rT0cgzt5lL+6hm4/aweQX47druAuIr40yc7FYSHbVI4930qaw+tL0mxlc3QzZS+F4C1T01zwVwhswPJSeIa3NMtmYprKyPb3d6osHOdyvyLyMFAXvYiISBhSF72IiEgYUoAXEREJQwrwIiIiYUgBXkREJAwpwIuIiIQhBXhv+eXDl/o0W7Fp+c+p4e/9ANh0lJ/5WeHuvnq5bty54cdtEq8r79DEl+YVkfCk++BdzFZsW2Jofr3Qd6EQh4UzWXaKD+XRsCuE7oV3LkfrY4zscg/GUvafLCBlSIa+0bLL+TXS+zGWTUf52d55fPgg8rg/SGO8rqoTzdhetWFtz8aiRDQiggK8UxrW/DXQVOb3yzH4C7IYHsmw8QS/DTw97FAhEdD9G3dA9zH6+8HZ7fzm7CQqF6om87pGWqhJRB5aCvAA+VtZQzNlI+btbsDi2IrdbCWtMnhfnn+vPcNdSzFPRSdMPOGMP0/nkli4Gv58yJ0iNuK1N1kW12kklcktYu2Tl2m99X2SvhsBwB2vY91r1VeDqXA1swA6T3H+X88Er46jGeX9WFXZwQvObCq3PynlNyWuv9sBcuu3Ee/87YX6Dl4AYIDm/UmcCvIFQUxpKzvXRQypw8QF5XVVvkOzuZit+dCgle1EHnoag2eUDF3eKltpj0xkg5+16ieuinZrGe3RWTy128ojwSr2o2quvN/JLFeKWGfqWJ+McXHPkTT3vzif/Qrny/2kk41YTVJhNF8699+J+/6I6WaDbbT342J+PPs2xPPesHype6jeEM++/Y3cpo33NhjH7dtwv4L7Td7bEB+U4A7Bel0N1H9xF1NSMNf3F5HpSi140lgUDd2tY7XL2+jrzyLKBAQ0xpmHyZI1PJ/47WYu+OR+b6D7jQb+lmNntaWcz6yF9Ada9YjVJNlWe373bmVXH6Q15lck/SAXouK4+f4rvulgBy7Q6jr2o0Zu5a7msXjgI/cBdJa70s362z+6hOyDOLJdvw3StN/C3rpAzgz0/ZgaC0tbeWHdTd4L0TH+hq+6KV62iDRQN73IQ04BngSiIsc+Chq40VtM4sJAvzqraLdW0T6uupiIzUgLfEx+jDH4ewf+nc7f7yKu7xTnq8cu7rGYJwBnN/3ANfrdwfwqN3/8SmB1cpr4GHyg78dUSGDNOqDtdEgGdwDa+7i7xcgJrwAv8nBTgKeNvn6IGvO48bYsA23BpxGzuxgTzVywem+fvIjXdjH36ik6n3iOxD0dnjH2EXzTPfr+ByPQ92MqtPHehha+U7+Nn5VeC1r3fFCZopjZ38ewnn4ReehoDJ4GbvRCzMKx7nRPICryLn0BN8mraLdm8vHQh7/g3ntiyPYgcI67f3ngDDer/Yyxe5mx50fERXTSF0Ar381sxWa3+79PfVICfT9GcPYGfyWB77w80gHOnPF2G9YJzafYQ/X+RlhXQu6w55hs2aMY83U5a7AwBnpvqPUuIgrwAFWt7cxM2cqoU5PykzD1X6E+iPcYP5LxU+ZfLZv4DPqI1STZ3mSt6/H7XGaA+x75m++7xtCr+bIzgrjCX3mCvNe5Sd/t852AFwQJ2QdxODyPtwoCP3fk9+MAufUd7Ks3ZpzPWVfCvvoOflbqfeQeqm1txGcbx+2rb+W5Td5lGBPRYKYxn2Iizm7nN67n8FmUZqJlB+N1AaSxYdlM2ltDsGdBRB445YMHjJZXMYlflJHt91Y5Y3+UIzOo98FPGddtcCF6D/3Y78ck5Zdj3xJD8+v3YVGY+1l2IM9t7qPsJd0HLyJqwTs1YKlshpSf+u1azTtUzJreE+ER3KeF0d+Picuj3G6/TwH4fpYdANfKf0Fcp0FEpjdNsnMZaSUws5XN0c2UvaRuz8naWGqlJHX2CHuH3Ep3X1Zmq6Iw8369j/ez7LHlZa2h+2SmlqkVETd10YuIiIQhddGLiIiEoWkf4NV6FxERGW7aB3gREREZTgFeREQkDCnAi4iIhKGwCPBpFhs2S3AXTBUREZnOwiLAN1jP0J1STHn+VNdEREQkNIRFgIcqCl9vJmZL+ejryYuIiDwkwiTAAw4LZ66b2KyuehERkTAK8DizkC3bEOT0pSIiItNPWAV42vu4GxlFwlTXQ0REZIqFV4B33KCbGBYFNQOZiIjI9BNeAd68iBi6uaGMWiIi8pALrwBvimJmfx9tU10PERGRKRZWAT4vycTdL+qDlDtcRERk+vq/proCQWO2snlJO2d2KbyLiIiESYDPo/zVNXSfzKRqqqsiIiISAsIiwKdZNhPTVEZ25VTXREREJDSERYBvsGZr3F1ERMRLWE2yExEREcOUB/jr169PdRVERETCzpQHeBEREQk+BXgREZEwpAAvIiIShkImwOcdslOeP9W1EBERCQ8hE+CrTjQTs8WGVZngREREJi1kAjwOC9knu1mTbyVtqusiIiIyzYVOgAeofIdm1rDVb1d9HuV2O/ZDeQ+6ViIiItNOaAV4Gqj/4i6mJAVxERGRyQi5pWobvuqmeNki0mDI8rNVFGYqlYyIiEggQqwFD7T3cTcyioSproeIiMg0FnoB3hTFzP4+2qa6HiIiItNYyAX4tIUx0HvDT3Y45yS7Y5plLyIiMpYQC/BpbFg2k/ZWf2PtbfT1A5GJbNC98iIiIqMKrQCfv5U1NPNOpb+dDdzoBfqvUO94wPUSERGZZkJnFr3Zim1LDM2vFw7vns8vx77FBP3NlL1k8dN9LyIiIt5CJsDnZa2h+2QmFn+t88pCMv226kVERMSfkAnwVbsyp7oKIiIiYSO0xuBFREQkKBTgRUREwpACvIiISBhSgBcREQlDCvAiIiJhSAFeREQkDIVHgJ/3c6p2/pKcqa6HiIhIiAiPAC8iIiI+QmOhm+W/5GhyP4fOwn/f+h0eA/jyNNvfP+Y84HsU7yhg5Wznr+59L/E/dz5LnHNz5s5qjOVyvuHSOwWUfQ3r1lewa85HnrLm/ZyqrZE0HP4FNUDO89Wk3a7gf5PLricfA6Dzw1z+7XOc5S/nyjv9pLnqNfgph478mk8CemF5LKgoIc5V767jNJXsMX7eUUdKRgI9tfF0HvE6lkYuFWzn3o46UhJbuNT7LCuTIwC401LK5YNVnvPXf82lI5CwM5VZQ8t3Pn+5PQvT9RNk7vKXwEdERMJV6LTgZ3+HXVsjaTicy/Z3PuWbx5+meJ6xK+f5Alb2n2b74Vy2H67gUuSzVK3/HnCMf3MdTxf2w7nOY4zgHqjHniwwLgIO53Los2+IS/4569x7Y8l01evwaTpnf4fnlwdWbkRpCXF9x2nKiacpp5TOqG2sKMozdh5J51LLAAsy6ogAZhQVeoK7+6m3sTL6tHH+4UZILmTBeu+/WSord87jhnP/ndhnffeLiMhDK3QCPN9w6R2jVc3XH3N18DHmzAV4icTHu7C7W/N/oqyli8din/IKwpM0+CmHnOV/8n/a+GZ2JEv81YtjXPkS5kd/L4BCDxAV28bn7hZ1FT3n2pi11MwM55Z7B5P4vCuBRUVH+W/J0HnEK7gDDDZyyXX+OQe3BiN4NNb7gAE6D6czMOL+KgozM9V6FxF5CIVGFz3AYBvn3K3uP1F25E/Gj/MWMp9Y4tzd767jPw3aU3/T9bGny/3rX5N3OAiFrl/ETBJYUNPhu33Qt2thoOQ4d2u2MbOllM5zYxc7c0Ee4AzYg5e57T6nip4CBXIRETGEToAfVRf2w65W9HTSxuc5zha2X3ksqNgGtce5m1FC3I4q53j8yO72KIiLiMjYQqiLfgRff8zVwVgyn39plGO+4iaxJI40Nh650Nmd/xL/0zVZ7n475+DWYALLSw+MeIhr3P0vR/bQWdvmHo8f8djZbfSNcQHgK49yux37MStp4zlNRESmvWnQgv8TZUegeEcBR3c+6976zWcV5J1zduNzjH/7cDlHn6nm6DPgPYv+k3PVrI8tYNfOanbxDZc+/JRvnol8APWuoqcAqCghpWabe6trJvyMolZWJkPnYee4+5G36VxfwvKaOk+rf3YqK91d/GP1BvjTRl8/mCIT2WCGBkdQXpiIiEwD31q8ePE/lixZwvXr1ydcSFZWFidOnAhitcR9G1zBkIl345R3yE5WdDNlL1loCFrlREQk1E2DFrxMSH459i0m6FdwFxF5GCnAh6vKQjIrp7oSIiIyVRTgQ9WRdJrGNaFORETEI/Rn0YuIiMi4BSXAa4KdiIhIaFELXkREJAwpwIuIiIQhBXgREZEwFLQAn3fIjt1ux34oL1hFioiIyAQFLcBX7cokM7OM5ugsyvODVaqIiIhMRJC76Buo/+IuMQuV2kRERGQqaQxeREQkDCnAi4iIhKGgB/iGr7qZuWyD8o+LiIhMoeC34CsLyXREUWy3Y7MozIuIiEyFoCebSbPYKJ53hszMwmAXLSIiIgG6L2Pwd79uux/FioiISIA0yU5ERCQMKcCLiIiEoSAH+DQ2LJtJ91cNwS1WRERExiVok+zyDtnJWgL0N1NWGaxSRUREZCK+tXjx4n8sWbKE69evT3VdREREJEg0Bi8iIhKGFOBFRETCkAK8iIhIGFKAFxERCUMK8CIiImEo6GvRi8cjGTZWr51p/NJ+go9rqnz2R+bYedJk/Dx4voxPa7V+gIiIBEfotOCX/5KjO37OuqmuRxD9vTabj62ZXDh/1+/+/ppMPrZm8ln7A66YiIiEvdAJ8CIiIhI0Qeqi/x7FOwqY05LLFVM1mY8DfMOldwoo+9p5yPJfcvSZWOcvXvvm/Zyqrd/hMeeeXTur2QVAF/bDv6DGq+x/+9w4Zt36CnbN+Yjt7x9znh9Jw+HPSdz5LHEAg59y6Miv+cR57H+nmoY5Bc56QeeHnrJGl4fJksStyj5i89cwG+B2MxfesPB3gORynvp+n+d38jBZNnO3Mpvuryb8x/SRZrFRnALNr2djcQSnTBERCX9BbcHHPVNN2u0Kth/Oxf7lY6xMecnYMe/nVD0zj0vv5LL9cC7bP/yalVt/SQ7A178m73Au2z/sMgLzYecxh39BTcDPHEvmzqe5/U4u2w+fpnP2d3h+uWfvY08WuOt16LNviEsez1CAiSfzo+iyZvKx9QTdc9bwfycHfLKIiMiUCG4X/ZenyTv3JwBq2rsgciHrgHX/lACfVXta85/buTQYS+LyEUsat84PXb0Fx7jyJcyP/p7fen3yf9r4ZnYkSwIu+S7tlYX0A1DFrXaYuSAteBUfQ4M1m8xMtd5FRGR8gjqLvrP9mOeXz3/Bdmc3eM6cx3js8QKOPlnge3zQnrmLK15d7jXv546j9S8iIhJ+Hthtct98VuFuRYuIiMj99UBm0de0d/HYk7kUzxvloFv9fDM7gfUjHOPucl/+S3Y9+Zj/g6bCnChmAJBGzO4sYoJcfJrFht1upzw/yAWLiEhYezAt+M9/wXZ+ydGt1Rx1b3TNknf6+tf8788q2OU+xrX/T5SdfYqqrc4u/sFPsX/2DZlzHkjNR9dSyGeJdp602AHo/s8TdP9gs3NnGjG7izG565nFU5YsrwVv8jBZvC4ITMU8tbZ42II3DV91U4wJU1Ie4LtQjoiIyEiUDz7Uma3YXl1D98lMCiunujIiIjJdaKnakJWG9VgxayKhXcFdRETGSS14ERGRMKSlakVERMKQAryIiEgY+tbixYv/MdWVEBERkeBSC15ERCQMKcCLiIiEIQV4ERGRMOQV4PMot9u1LKqIiEgYGD7JzmzF9moUZzILtTCqiIjINDW8i95Rz5X+GBaZp6A2IiIiEhQagxcREQlDCvAiIiJhyE+Ab+BG70wSv5/24GsjIiIiQeG3BV+1K5Mz84qx221YNRYvIiIy7fhJF2ukKY1yZJK568FXSERERCZvhDH4u/S1P9iKiIiISPBokp2IiEgYUoAXEREJQ8MDvHkDiZHd3HBMQW1EREQkKLwm2eVRbs/CBNxtKtMytSIiItPY8LXoRUREZNrTGLyIiEgYUoAXEREJQwrwIiIiYUgBXkREJAwpwIuIiIQhBXgREZEwpAAvIiIShhTgRUREwpACvIiISBhSgBcREQlD/z82ZDpV/Aaq+QAAAABJRU5ErkJggg==;" vertex="1" parent="1">
                    <mxGeometry x="628.0047058823532" y="2100" width="504" height="490" as="geometry"/>
                </mxCell>
                <mxCell id="89" style="edgeStyle=none;html=1;" edge="1" source="90" target="92" parent="1">
                    <mxGeometry relative="1" as="geometry"/>
                </mxCell>
                <mxCell id="90" value="1" style="rounded=0;whiteSpace=wrap;html=1;" vertex="1" parent="1">
                    <mxGeometry x="1371" y="2127" width="69" height="39" as="geometry"/>
                </mxCell>
                <mxCell id="91" style="edgeStyle=none;html=1;entryX=0;entryY=0.5;entryDx=0;entryDy=0;" edge="1" source="92" target="93" parent="1">
                    <mxGeometry relative="1" as="geometry"/>
                </mxCell>
                <mxCell id="92" value="+" style="rounded=0;whiteSpace=wrap;html=1;" vertex="1" parent="1">
                    <mxGeometry x="1488" y="2127" width="69" height="39" as="geometry"/>
                </mxCell>
                <mxCell id="93" value="2" style="rounded=0;whiteSpace=wrap;html=1;" vertex="1" parent="1">
                    <mxGeometry x="1602" y="2127" width="69" height="39" as="geometry"/>
                </mxCell>
                <mxCell id="94" value="&lt;div style=&quot;color: rgb(212, 212, 212); background-color: rgb(30, 30, 30); font-family: Consolas, &amp;quot;Courier New&amp;quot;, monospace; font-size: 14px; line-height: 19px;&quot;&gt;&lt;span style=&quot;color: #9cdcfe;&quot;&gt;stackPutBacks&lt;/span&gt;&lt;/div&gt;" style="text;html=1;align=center;verticalAlign=middle;resizable=0;points=[];autosize=1;strokeColor=none;fillColor=none;" vertex="1" parent="1">
                    <mxGeometry x="1242" y="2238" width="118" height="31" as="geometry"/>
                </mxCell>
                <mxCell id="95" value="" style="endArrow=classic;html=1;dashed=1;" edge="1" parent="1">
                    <mxGeometry width="50" height="50" relative="1" as="geometry">
                        <mxPoint x="1522.2599999999993" y="2088.9999999999995" as="sourcePoint"/>
                        <mxPoint x="1522.2599999999993" y="2127" as="targetPoint"/>
                    </mxGeometry>
                </mxCell>
                <mxCell id="96" value="&lt;div style=&quot;color: rgb(212, 212, 212); background-color: rgb(30, 30, 30); font-family: Consolas, &amp;quot;Courier New&amp;quot;, monospace; font-size: 14px; line-height: 19px;&quot;&gt;&lt;span style=&quot;color: #9cdcfe;&quot;&gt;queueCache&lt;/span&gt;&lt;/div&gt;" style="text;html=1;align=center;verticalAlign=middle;resizable=0;points=[];autosize=1;strokeColor=none;fillColor=none;" vertex="1" parent="1">
                    <mxGeometry x="1253.5" y="2337" width="95" height="31" as="geometry"/>
                </mxCell>
                <mxCell id="97" value="peek" style="text;html=1;align=center;verticalAlign=middle;resizable=0;points=[];autosize=1;strokeColor=#6F0000;fillColor=#a20025;fontColor=#ffffff;" vertex="1" parent="1">
                    <mxGeometry x="1199" y="2136" width="44" height="26" as="geometry"/>
                </mxCell>
                <mxCell id="98" value="" style="html=1;dashed=0;whitespace=wrap;shape=partialRectangle;right=0;" vertex="1" parent="1">
                    <mxGeometry x="1373" y="2227" width="208" height="53" as="geometry"/>
                </mxCell>
                <mxCell id="99" value="" style="html=1;dashed=0;whitespace=wrap;shape=partialRectangle;right=0;left=0;" vertex="1" parent="1">
                    <mxGeometry x="1371" y="2319" width="216" height="60" as="geometry"/>
                </mxCell>
                <mxCell id="100" value="" style="endArrow=classic;html=1;" edge="1" parent="1">
                    <mxGeometry width="50" height="50" relative="1" as="geometry">
                        <mxPoint x="1636.2599999999998" y="2088.9999999999995" as="sourcePoint"/>
                        <mxPoint x="1636.2599999999998" y="2127" as="targetPoint"/>
                    </mxGeometry>
                </mxCell>
                <mxCell id="106" style="edgeStyle=orthogonalEdgeStyle;html=1;dashed=1;" edge="1" parent="1" source="103" target="105">
                    <mxGeometry relative="1" as="geometry">
                        <Array as="points">
                            <mxPoint x="1609" y="2254"/>
                            <mxPoint x="1609" y="2349"/>
                        </Array>
                    </mxGeometry>
                </mxCell>
                <mxCell id="103" value="+" style="rounded=0;whiteSpace=wrap;html=1;dashed=1;" vertex="1" parent="1">
                    <mxGeometry x="1386" y="2234" width="69" height="39" as="geometry"/>
                </mxCell>
                <mxCell id="104" value="1" style="rounded=0;whiteSpace=wrap;html=1;" vertex="1" parent="1">
                    <mxGeometry x="1373" y="2329.5" width="69" height="39" as="geometry"/>
                </mxCell>
                <mxCell id="105" value="+" style="rounded=0;whiteSpace=wrap;html=1;" vertex="1" parent="1">
                    <mxGeometry x="1461" y="2329" width="69" height="39" as="geometry"/>
                </mxCell>
                <mxCell id="109" style="edgeStyle=none;html=1;" edge="1" source="110" target="112" parent="1">
                    <mxGeometry relative="1" as="geometry"/>
                </mxCell>
                <mxCell id="110" value="1" style="rounded=0;whiteSpace=wrap;html=1;" vertex="1" parent="1">
                    <mxGeometry x="1339" y="2612" width="69" height="39" as="geometry"/>
                </mxCell>
                <mxCell id="111" style="edgeStyle=none;html=1;entryX=0;entryY=0.5;entryDx=0;entryDy=0;" edge="1" source="112" target="113" parent="1">
                    <mxGeometry relative="1" as="geometry"/>
                </mxCell>
                <mxCell id="112" value="+" style="rounded=0;whiteSpace=wrap;html=1;" vertex="1" parent="1">
                    <mxGeometry x="1456" y="2612" width="69" height="39" as="geometry"/>
                </mxCell>
                <mxCell id="113" value="2" style="rounded=0;whiteSpace=wrap;html=1;" vertex="1" parent="1">
                    <mxGeometry x="1570" y="2612" width="69" height="39" as="geometry"/>
                </mxCell>
                <mxCell id="114" value="" style="endArrow=classic;html=1;dashed=1;" edge="1" parent="1">
                    <mxGeometry width="50" height="50" relative="1" as="geometry">
                        <mxPoint x="1604.0799999999992" y="2573.9999999999995" as="sourcePoint"/>
                        <mxPoint x="1604.0799999999992" y="2612" as="targetPoint"/>
                    </mxGeometry>
                </mxCell>
                <mxCell id="115" value="&lt;div style=&quot;color: rgb(212, 212, 212); background-color: rgb(30, 30, 30); font-family: Consolas, &amp;quot;Courier New&amp;quot;, monospace; font-size: 14px; line-height: 19px;&quot;&gt;&lt;span style=&quot;color: #9cdcfe;&quot;&gt;queueCache&lt;/span&gt;&lt;/div&gt;" style="text;html=1;align=center;verticalAlign=middle;resizable=0;points=[];autosize=1;strokeColor=none;fillColor=none;" vertex="1" parent="1">
                    <mxGeometry x="1221.5" y="2822" width="95" height="31" as="geometry"/>
                </mxCell>
                <mxCell id="116" value="" style="html=1;dashed=0;whitespace=wrap;shape=partialRectangle;right=0;" vertex="1" parent="1">
                    <mxGeometry x="1341" y="2712" width="255" height="53" as="geometry"/>
                </mxCell>
                <mxCell id="117" value="" style="html=1;dashed=0;whitespace=wrap;shape=partialRectangle;right=0;left=0;" vertex="1" parent="1">
                    <mxGeometry x="1339" y="2804" width="261" height="60" as="geometry"/>
                </mxCell>
                <mxCell id="118" value="" style="endArrow=classic;html=1;" edge="1" parent="1">
                    <mxGeometry width="50" height="50" relative="1" as="geometry">
                        <mxPoint x="1688.9999999999998" y="2573.9999999999995" as="sourcePoint"/>
                        <mxPoint x="1688.9999999999998" y="2612" as="targetPoint"/>
                    </mxGeometry>
                </mxCell>
                <mxCell id="121" value="1" style="rounded=0;whiteSpace=wrap;html=1;" vertex="1" parent="1">
                    <mxGeometry x="1341" y="2814.5" width="69" height="39" as="geometry"/>
                </mxCell>
                <mxCell id="122" value="+" style="rounded=0;whiteSpace=wrap;html=1;" vertex="1" parent="1">
                    <mxGeometry x="1429" y="2814" width="69" height="39" as="geometry"/>
                </mxCell>
                <mxCell id="123" value="&lt;div style=&quot;color: rgb(212, 212, 212); background-color: rgb(30, 30, 30); font-family: Consolas, &amp;quot;Courier New&amp;quot;, monospace; font-size: 14px; line-height: 19px;&quot;&gt;&lt;span style=&quot;color: #9cdcfe;&quot;&gt;stackPutBacks&lt;/span&gt;&lt;/div&gt;" style="text;html=1;align=center;verticalAlign=middle;resizable=0;points=[];autosize=1;strokeColor=none;fillColor=none;" vertex="1" parent="1">
                    <mxGeometry x="1210" y="2723" width="118" height="31" as="geometry"/>
                </mxCell>
                <mxCell id="125" value="2" style="rounded=0;whiteSpace=wrap;html=1;" vertex="1" parent="1">
                    <mxGeometry x="1509" y="2814" width="69" height="39" as="geometry"/>
                </mxCell>
            </root>
        </mxGraphModel>
    </diagram>
</mxfile>
